<svg xmlns="http://www.w3.org/2000/svg" viewBox="0 0 32 32" width="32" height="32">
  <defs>
    <linearGradient id="cloud" x1="0%" y1="0%" x2="100%" y2="100%">
      <stop offset="0%" style="stop-color:#0d9488"/>
      <stop offset="100%" style="stop-color:#0f766e"/>
    </linearGradient>
  </defs>
  <rect width="32" height="32" rx="6" fill="url(#cloud)"/>
  <!-- Nuvem simples, escala reduzida para ser perceptível no tab -->
  <path fill="white" fill-opacity="0.95" d="M24 18.5c0-1.5-1.2-2.7-2.7-2.7-.3 0-.5 0-.8.1C20.2 14.3 18.2 12 16 12s-4.2 2.3-4.5 4c-.3 0-.5-.1-.8-.1-1.5 0-2.7 1.2-2.7 2.7 0 1.2.8 2.2 1.9 2.6-.2.4-.3.9-.3 1.4 0 1.7 1.3 3 3 3h6c1.7 0 3-1.3 3-3 0-.5-.1-1-.3-1.4 1.1-.4 1.9-1.4 1.9-2.6z"/>
</svg>
