<svg class="svgDente" xmlns:dc="http://purl.org/dc/elements/1.1/" xmlns:cc="http://creativecommons.org/ns#" xmlns:rdf="http://www.w3.org/1999/02/22-rdf-syntax-ns#" xmlns:svg="http://www.w3.org/2000/svg" xmlns="http://www.w3.org/2000/svg" xmlns:sodipodi="http://sodipodi.sourceforge.net/DTD/sodipodi-0.dtd" xmlns:inkscape="http://www.inkscape.org/namespaces/inkscape" sodipodi:docname="dd34.svg" inkscape:version="1.0 (4035a4fb49, 2020-05-01)" id="svg8" version="1.1" viewBox="0 0 13.669024 46.389736" height="46.389736mm" width="13.669024mm"><g class="dente DD34" transform="translate(-175.51681,-87.505502)" id="layer1" inkscape:groupmode="layer" inkscape:label="Camada 1"><g transform="translate(-494.54886,-102.52613)" id="g1166"><path class="fundoDente fundoDD34" inkscape:connector-curvature="0" id="path1039" d="m 676.31085,236.05667 c -0.62365,-0.80522 -2.28265,-5.32011 -2.82567,-7.68994 -0.37777,-1.64865 -0.57327,-5.31678 -0.69567,-13.05278 -0.16393,-10.36122 -0.20237,-10.84464 -1.03811,-13.05277 -0.96725,-2.55562 -1.91211,-7.47466 -1.63748,-8.52486 0.0981,-0.37495 0.9118,-1.05833 1.80833,-1.51862 3.19018,-1.73371 3.69381,-3.4369 7.48449,-0.89263 3.74851,2.25493 4.37004,3.3297 4.32583,4.81887 -0.0221,0.74511 -0.47273,2.54536 -1.00161,4.00057 -0.86236,2.37278 -0.99288,3.35577 -1.2647,9.525 -0.21449,4.86797 -0.56985,8.27153 -1.21547,11.64167 -0.50179,2.61937 -1.07453,6.58812 -1.27275,8.81944 -0.47029,5.29403 -0.68622,6.14792 -1.58782,6.27883 -0.39856,0.0579 -0.88428,-0.10088 -1.07937,-0.35278 z" style="fill:#000000;stroke-width:0.352778" /><path class="coroaDente coroaDD34" inkscape:connector-curvature="0" transform="scale(0.26458333)" id="path942" d="m 2552.1141,776.88683 c -3.5465,-1.26979 -6.0164,-3.64856 -8.5178,-8.20348 -3.6494,-6.64533 -7.589,-23.16046 -7.6469,-32.056 -0.033,-5.12567 0.3219,-5.88525 3.1898,-6.82019 2.2342,-0.72834 4.5148,-2.01609 11.2842,-6.37157 l 5.3901,-3.46805 4.7685,1.87949 c 11.1827,4.40772 16.6653,8.26214 19.2512,13.53434 0.9236,1.88314 0.9862,2.29659 0.9734,6.43192 -0.011,3.64953 -0.1798,5.04411 -0.9676,8.00535 -3.996,15.02078 -9.9469,23.49109 -18.6239,26.50867 -3.4766,1.20904 -6.7286,1.40897 -9.101,0.55952 z" style="fill:#ffffff;fill-opacity:1;stroke-width:1.64895" /><path class="raizDente raizDD34" inkscape:connector-curvature="0" transform="scale(0.26458333)" id="path944" d="m 2558.707,890.21732 c -2.3903,-2.5243 -7.9197,-17.07674 -9.8402,-25.89778 -2.4856,-11.4157 -3.5884,-28.88674 -4.4524,-70.5339 -0.1069,-5.15304 -0.2873,-11.41964 -0.401,-13.92579 l -0.2066,-4.55662 1.1231,0.84431 c 3.3761,2.53809 4.56,3.21629 6.8043,3.89798 2.22,0.6743 2.7196,0.70869 4.9485,0.3406 4.7384,-0.78253 9.6574,-2.82031 13.3246,-5.51996 1.9089,-1.40526 2.202,-1.52282 2.4273,-0.9737 0.3974,0.96841 0.2086,26.06586 -0.2467,32.79788 -0.7332,10.83955 -2.0422,20.70769 -4.4788,33.76435 -3.101,16.61732 -4.0166,23.09963 -5.0933,36.06244 -0.3957,4.76413 -0.8876,9.61665 -1.093,10.78338 -0.375,2.13 -1.1128,3.71231 -1.731,3.71231 -0.1824,0 -0.6705,-0.35797 -1.0848,-0.7955 z" style="fill:#ffffff;fill-opacity:1;stroke-width:1.64895" /></g></g></svg>