<svg class="svgDente" xmlns:dc="http://purl.org/dc/elements/1.1/" xmlns:cc="http://creativecommons.org/ns#" xmlns:rdf="http://www.w3.org/1999/02/22-rdf-syntax-ns#" xmlns:svg="http://www.w3.org/2000/svg" xmlns="http://www.w3.org/2000/svg" xmlns:sodipodi="http://sodipodi.sourceforge.net/DTD/sodipodi-0.dtd" xmlns:inkscape="http://www.inkscape.org/namespaces/inkscape" sodipodi:docname="dd31.svg" inkscape:version="1.0 (4035a4fb49, 2020-05-01)" id="svg8" version="1.1" viewBox="0 0 11.324682 45.64215" height="45.642151mm" width="11.324682mm"><g class="dente DD31" transform="translate(14.439342,30.816899)" id="layer1" inkscape:groupmode="layer" inkscape:label="Camada 1"><g transform="translate(-628.65225,-209.66121)" id="g1187"><path class="fundoDente fundoDD31" inkscape:connector-curvature="0" id="path1001" d="m 619.04928,223.69242 c 0,-0.75522 -0.73206,-3.50736 -2.09823,-13.49374 -0.37166,-2.71676 -1.00258,-8.53081 -1.22502,-11.28889 -0.0782,-0.97014 -0.3786,-3.98639 -0.66746,-6.70278 -1.22424,-11.51256 -1.20854,-11.8144 0.63819,-12.26833 2.758,-1.12618 6.57586,-1.77518 8.93711,0.0412 1.63581,0.98782 0.57614,4.36639 0.4512,6.25396 -0.20462,3.09137 -0.52547,6.42347 -0.713,7.40466 -0.18752,0.98118 -0.37162,3.28305 -0.4091,5.11527 -0.0375,1.83222 -0.19954,4.2838 -0.36012,5.44797 -0.16058,1.16417 -0.38491,4.73604 -0.49852,7.9375 -0.1136,3.20146 -0.27056,6.13833 -0.34878,6.52639 -0.0782,0.38805 -0.244,1.4993 -0.3684,2.46944 -0.2889,2.25309 -0.98365,3.35139 -2.11998,3.35139 -0.57912,0 -1.21789,-0.22727 -1.21789,-0.79375 z" style="fill:#000000;stroke-width:0.352778" /><path class="raizDente raizDD31" inkscape:connector-curvature="0" transform="scale(0.26458333)" id="path954" d="m 2342.6362,845.13927 c -0.2923,-0.3403 -0.6336,-0.90612 -0.7585,-1.25737 -0.9536,-2.68215 -7.2277,-46.73892 -9.2237,-64.76873 -1.3156,-11.88372 -2.463,-24.55069 -2.2438,-24.76993 0.108,-0.10803 1.0015,0.29895 1.9855,0.90441 4.3813,2.69585 10.9285,3.07872 15.2448,0.89149 2.5794,-1.3071 3.8416,-2.54557 6.1011,-5.98666 l 2.077,-3.16311 -0.2088,2.27332 c -0.1148,1.25033 -0.8401,12.37611 -1.6116,24.72396 -1.7596,28.16178 -3.4118,53.03872 -3.8743,58.33631 -0.348,3.98487 -1.5697,9.63205 -2.4328,11.2447 -0.9915,1.85263 -4.0081,2.7905 -5.0549,1.57161 z" style="fill:#ffffff;fill-opacity:1;stroke-width:1.64895" /><path class="coroaDente coroaDD31" inkscape:connector-curvature="0" transform="scale(0.26458333)" id="path956" d="m 2338.3644,755.09895 c -6.6483,-2.73391 -8.8185,-7.77547 -10.6651,-24.77614 -1.5611,-14.37203 -2.6697,-30.04914 -2.7713,-39.18981 l -0.078,-7.01646 3.8891,-1.41094 c 8.1416,-2.95372 7.4247,-2.8428 17.9929,-2.7837 10.7226,0.06 11.0725,0.13167 12.0042,2.46021 1.282,3.20409 1.7606,7.96501 1.5315,15.23701 -0.7954,25.25947 -4.4696,44.31252 -10.1964,52.87478 -3.4222,5.11657 -7.0207,6.5321 -11.7069,4.60505 z" style="fill:#ffffff;fill-opacity:1;stroke-width:1.64895" /></g></g></svg>