<svg class="svgDente svgDenteMolar" xmlns:dc="http://purl.org/dc/elements/1.1/" xmlns:cc="http://creativecommons.org/ns#" xmlns:rdf="http://www.w3.org/1999/02/22-rdf-syntax-ns#" xmlns:svg="http://www.w3.org/2000/svg" xmlns="http://www.w3.org/2000/svg" xmlns:sodipodi="http://sodipodi.sourceforge.net/DTD/sodipodi-0.dtd" xmlns:inkscape="http://www.inkscape.org/namespaces/inkscape" sodipodi:docname="dd18.svg" inkscape:version="1.0 (4035a4fb49, 2020-05-01)" id="svg8" version="1.1" viewBox="0 0 21.417795 40.495686" height="40.495686mm" width="21.417795mm"> <g transform="translate(-104.60328,-101.94524)" id="layer1" inkscape:groupmode="layer" inkscape:label="Camada 1"> <g class="dente DD18" transform="translate(-326.76898,-11.051614)"> <path inkscape:connector-curvature="0" class="fundoDente fundoDD18" d="m 444.73692,152.56103 c -0.31248,-0.0228 -1.17829,-0.45556 -1.92404,-0.96164 l -1.35591,-0.92014 -1.87614,0.92014 c -1.03187,0.50608 -2.11863,0.92014 -2.415,0.92014 -0.93858,0 -2.74594,-1.0859 -4.2962,-2.58125 -1.41036,-1.36041 -1.49919,-1.56219 -1.49734,-3.40123 0.003,-2.851 1.14429,-6.70844 2.44078,-8.24867 0.41423,-0.4921 0.60314,-1.9435 0.78059,-5.99723 0.17292,-3.95036 0.47366,-6.31605 1.15076,-9.05217 0.50416,-2.03729 0.91687,-4.68337 0.91712,-5.88017 5.1e-4,-2.45267 0.22411,-3.29205 0.87695,-3.29205 0.24652,0 0.64585,-0.23813 0.88739,-0.52917 0.79323,-0.95578 2.56852,-0.62859 4.64073,0.85529 2.40977,1.72559 3.9856,3.63927 5.97716,7.2586 l 1.55295,2.82222 c 0.9524,1.73083 0.22916,4.53139 0.26106,6.65553 0.081,5.39126 0.0635,7.19868 0.61124,9.04308 0.37451,1.26118 0.8594,3.94568 1.07754,5.96555 0.36982,3.42445 0.35074,3.73419 -0.28248,4.58611 -0.37351,0.50249 -1.52813,1.3643 -2.58433,1.87785 -3.50173,1.70263 -2.46556,0.54562 -4.94283,-0.0408 z" style="fill:#000000;stroke-width:0.352778"/> <path transform="scale(0.26458333)" inkscape:connector-curvature="0" class="raizDente raizDD18" d="m 1691.8127,520.09769 c -7.2799,-0.82041 -14.6508,-2.1567 -18.2679,-3.31182 -3.5718,-1.14068 -5.9547,-1.13133 -9.8885,0.0388 -6.626,1.97099 -7.8199,2.28194 -10.7322,2.79525 -1.9807,0.34911 -3.8734,0.45041 -5.5599,0.29757 l -2.557,-0.2317 0.1862,-10.11667 c 0.1024,-5.56417 0.3416,-12.98045 0.5316,-16.48063 0.5306,-9.77788 1.1902,-13.72992 5.0751,-30.40559 1.391,-5.97118 2.3088,-12.96718 2.6564,-20.25019 0.1738,-3.64093 0.5015,-7.09717 0.7283,-7.68053 l 0.4123,-1.06066 1.5835,1.73904 c 3.3601,3.69013 10.468,15.35468 12.7149,20.86589 1.773,4.34869 2.3594,7.73953 2.088,12.07209 -0.1832,2.92305 -0.1285,3.64307 0.304,4.00201 0.8001,0.66396 1.9186,-0.10226 2.1487,-1.47183 0.7529,-4.48203 0.834,-5.7228 0.5067,-7.75512 -0.8809,-5.46966 -4.6857,-13.81682 -10.2863,-22.56631 -1.8078,-2.82427 -3.6847,-5.89461 -4.1708,-6.82298 l -0.8839,-1.68794 1.6588,-1.57391 c 1.9537,-1.85375 2.7978,-1.96118 5.5053,-0.70066 10.4944,4.88575 22.7408,18.26328 29.722,32.46712 6.3469,12.91314 7.238,20.74419 5.52,48.50724 -0.2768,4.47245 -0.5048,8.56925 -0.5066,9.104 0,1.18084 -0.025,1.1814 -8.4887,0.22753 z" style="fill:#ffffff;fill-opacity:1;stroke-width:1.64895"/> <path transform="scale(0.26458333)" inkscape:connector-curvature="0" class="coroaDente coroaDD18" d="m 1687.7468,576.7199 c -3.5316,-1.2774 -7.5396,-3.30445 -13.0815,-6.61593 l -5.6568,-3.3802 0.3124,-5.5689 c 0.3127,-5.57235 0.1204,-8.84619 -0.5196,-8.84619 -0.724,0 -1.0555,2.0882 -1.3034,8.21008 l -0.2572,6.35455 -5.1265,2.63268 c -6.0921,3.12853 -8.2089,3.81767 -10.9604,3.56818 -3.4148,-0.30965 -6.59,-2.37519 -12.7713,-8.30814 -4.7912,-4.59872 -5.0874,-5.27561 -5.0647,-11.57347 0.014,-3.74187 0.2146,-5.88509 0.824,-8.7827 1.6807,-7.99109 5.0121,-16.65233 7.4908,-19.47548 1.947,-2.21754 3.487,-2.69687 9.8224,-3.05731 6.0095,-0.34189 8.913,-0.85293 12.7883,-2.25083 3.2727,-1.18053 5.278,-1.1544 8.7185,0.11357 3.3438,1.23231 8.0899,2.017 15.0186,2.48306 7.7101,0.51861 12.4409,2.34096 14.6181,5.63096 1.6269,2.45831 2.9801,9.5367 5.1384,26.87666 l 1.3796,11.08386 -1.6692,1.93405 c -2.9545,3.42311 -7.2645,6.21162 -13.2574,8.57731 -3.1326,1.2366 -3.9721,1.28796 -6.4431,0.39419 z" style="fill:#ffffff;fill-opacity:1;stroke-width:1.64895"/> </g> </g></svg>