<svg class="svgDente svgDenteMolar" xmlns:dc="http://purl.org/dc/elements/1.1/" xmlns:cc="http://creativecommons.org/ns#" xmlns:rdf="http://www.w3.org/1999/02/22-rdf-syntax-ns#" xmlns:svg="http://www.w3.org/2000/svg" xmlns="http://www.w3.org/2000/svg" xmlns:sodipodi="http://sodipodi.sourceforge.net/DTD/sodipodi-0.dtd" xmlns:inkscape="http://www.inkscape.org/namespaces/inkscape" sodipodi:docname="dd37.svg" inkscape:version="1.0 (4035a4fb49, 2020-05-01)" id="svg8" version="1.1" viewBox="0 0 22.363838 41.81018" height="41.810181mm" width="22.363836mm"><g class="dente DD37" transform="translate(-268.29691,-109.38088)" id="layer1" inkscape:groupmode="layer" inkscape:label="Camada 1"><g transform="translate(-467.16789,-82.926413)" id="g1145"><path class="fundoDente fundoDD37" inkscape:connector-curvature="0" id="path1027" d="m 738.18296,224.13695 c -0.6569,-2.60797 -0.75762,-4.02121 -0.76704,-10.76327 -0.006,-4.26861 -0.12135,-7.93055 -0.25642,-8.13764 -0.61059,-0.93619 -1.6947,-5.98573 -1.6947,-7.89352 0,-2.54824 0.54488,-3.19426 3.64864,-4.32595 3.93609,-1.11507 3.43686,-0.88513 5.79633,0.4771 l 1.75677,1.01427 1.89566,-0.88246 c 2.47295,-1.1512 3.36015,-1.11739 6.09732,0.23238 1.82765,0.90125 2.39352,1.38511 2.87904,2.46182 0.93104,2.06466 -0.60169,4.17714 -1.46823,8.75812 l -1.67429,3.55951 0.43428,3.95566 c 0.55895,5.09124 1.27628,9.34353 2.15723,12.788 0.78477,3.06845 0.86778,4.66866 0.34062,6.56658 -0.74126,2.66873 -2.575,1.87632 -4.65361,-2.01095 -2.7274,-5.10057 -3.86367,-7.68729 -4.53301,-10.31935 -1.04513,-4.10979 -2.12478,-4.48751 -3.39776,-1.18875 -1.05431,2.73207 -0.82715,7.28842 0.5472,10.97584 1.2938,3.47128 1.35226,4.09949 0.42756,4.59437 -3.51092,0.95486 -5.98168,-3.98616 -7.53559,-9.86176 z" style="fill:#000000;stroke-width:0.352778" /><path class="raizDente raizDD37" inkscape:connector-curvature="0" transform="scale(0.26458333)" id="path930" d="m 2811.4753,880.87962 c -2.1144,-1.04831 -3.3836,-2.07323 -6.6766,-5.39169 -2.2896,-2.30735 -4.4774,-4.86959 -5.0079,-5.86509 -1.4921,-2.79974 -6.6409,-25.38878 -8.2602,-36.23922 -1.8437,-12.35392 -2.2833,-23.9115 -1.442,-37.91443 0.3124,-5.19936 0.568,-9.95468 0.568,-10.56738 v -1.11399 l 9.4575,0.19428 c 12.4261,0.25527 15.3426,0.75558 19.0431,3.26684 1.7346,1.17715 2.9399,1.11988 7.8557,-0.37323 5.8276,-1.77007 8.0798,-1.86818 15.7928,-0.68796 3.8633,0.59114 6.5165,1.16152 6.7522,1.45155 0.2196,0.27025 0.4916,2.89896 0.6263,6.05209 0.9628,22.54485 2.7097,34.8998 8.5116,60.19832 1.7471,7.61776 2.2153,12.45257 1.6759,17.30377 -0.8495,7.63994 -2.1811,9.6235 -5.3578,7.98079 -2.2952,-1.1869 -4.6825,-5.08284 -12.8936,-21.04191 -7.3781,-14.33996 -9.0545,-18.45108 -11.8919,-29.16337 -3.3656,-12.70672 -4.4349,-14.24123 -9.6905,-13.90658 -2.0238,0.12887 -2.4432,0.28604 -3.5019,1.31222 -1.4891,1.44327 -4.4433,6.77379 -5.6632,10.21845 -1.2049,3.40247 -1.6179,7.31995 -1.6214,15.37814 -0.01,11.2612 0.8465,16.12314 4.5588,26.03242 2.2599,6.03259 2.8629,8.35048 2.8629,11.00577 0,1.9831 -0.8403,3.16458 -2.2506,3.16458 -0.46,0 -2.0112,-0.58247 -3.4472,-1.29437 z" style="fill:#ffffff;fill-opacity:1;stroke-width:1.64895" /><path class="coroaDente coroaDD37" inkscape:connector-curvature="0" transform="scale(0.26458333)" id="path932" d="m 2819.648,784.03188 c -1.264,-0.86947 -3.0936,-1.81385 -4.0659,-2.09863 -2.4532,-0.71856 -9.1077,-1.21589 -16.4402,-1.2287 -4.2355,-0.007 -6.466,-0.15068 -7.0711,-0.45423 -3.3027,-1.65687 -10.2531,-25.77206 -10.2531,-35.57432 0,-2.5989 0.1418,-3.3619 0.9117,-4.90691 1.5768,-3.16416 4.5772,-4.91725 15.4729,-9.04038 l 5.9547,-2.25339 3.768,1.9439 c 7.1205,3.67343 11.3473,6.19685 13.3099,7.94611 1.6219,1.44558 2.0573,1.67653 2.4876,1.3194 0.2869,-0.23809 0.5216,-0.63355 0.5216,-0.87879 0,-0.71559 2.6347,-2.89515 4.8509,-4.01294 2.6778,-1.35058 7.6287,-3.07539 9.6967,-3.37816 2.4946,-0.36522 5.9426,0.58902 10.7315,2.96992 4.9213,2.44669 9.077,5.5104 10.6497,7.8513 3.6194,5.38712 1.9217,17.10675 -4.4194,30.50961 -2.4534,5.18546 -4.7861,9.62125 -5.6439,10.73216 l -0.6402,0.82912 -7.6031,-1.09428 c -10.902,-1.56906 -13.5313,-1.46656 -14.504,0.56542 -0.5274,1.10187 -2.1997,1.83629 -4.1788,1.83528 -0.8864,-3.5e-4 -1.8894,-0.44907 -3.5355,-1.58149 z m -1.4491,-23.86635 c 2.0645,-2.03213 3.0692,-3.41496 2.7286,-3.75552 -0.3561,-0.35614 -2.0074,1.01281 -3.666,3.03935 -2.4875,3.0392 -1.8879,3.49729 0.9374,0.71617 z m 9.5808,-0.11682 c 0,-0.49599 -3.4447,-3.73973 -3.9714,-3.73973 -0.5601,0 -0.2247,0.59576 1.3471,2.39256 1.5865,1.8136 2.6243,2.34633 2.6243,1.34717 z" style="fill:#ffffff;fill-opacity:1;stroke-width:1.64895" /></g></g></svg>