<svg class="svgDente" xmlns:dc="http://purl.org/dc/elements/1.1/" xmlns:cc="http://creativecommons.org/ns#" xmlns:rdf="http://www.w3.org/1999/02/22-rdf-syntax-ns#" xmlns:svg="http://www.w3.org/2000/svg" xmlns="http://www.w3.org/2000/svg" xmlns:sodipodi="http://sodipodi.sourceforge.net/DTD/sodipodi-0.dtd" xmlns:inkscape="http://www.inkscape.org/namespaces/inkscape" sodipodi:docname="dd25.svg" inkscape:version="1.0 (4035a4fb49, 2020-05-01)" id="svg8" version="1.1" viewBox="0 0 14.622907 45.941605" height="45.941605mm" width="14.622906mm"><g class="dente DD25" transform="translate(-179.06082,-0.82980105)" id="layer1" inkscape:groupmode="layer" inkscape:label="Camada 1"><g transform="translate(-512.05097,-108.72593)" id="g1093"><path class="fundoDente fundoDD25" inkscape:connector-curvature="0" id="path911" d="m 695.43387,154.25332 c -0.82451,-0.52288 -1.99867,-1.06043 -2.60925,-1.19453 -0.61057,-0.13411 -1.28457,-0.56975 -1.49776,-0.9681 -0.48137,-0.89945 -0.10428,-6.00129 0.6316,-8.54538 0.82989,-2.86909 1.12597,-5.66941 1.19589,-11.3105 0.0823,-6.64254 0.47482,-10.0822 1.61022,-14.11111 1.42249,-5.04763 3.87308,-9.04234 5.22811,-8.52237 0.43954,0.16867 0.54783,0.85375 0.55075,3.48422 0.002,1.9204 0.29702,4.66002 0.71319,6.62565 0.48488,2.29018 0.8144,5.80895 1.04064,11.1125 0.4011,9.40251 0.5446,10.50053 1.62532,12.43629 1.02033,1.82758 2.05769,6.14916 1.7604,7.33368 -0.1196,0.47653 -0.71955,1.11573 -1.35594,1.44466 -0.62777,0.32447 -1.9967,1.22164 -3.04205,1.99369 -3.53719,2.29125 -3.80021,1.52195 -5.85112,0.2213 z" style="fill:#000000;stroke-width:0.352778" /><path class="coroaDente coroaDD25" inkscape:connector-curvature="0" transform="scale(0.26458333)" id="path904" d="m 2635.8002,584.03656 c -1.6529,-0.82744 -4.7245,-2.51034 -6.8259,-3.73977 -4.3771,-2.56084 -6.683,-3.64028 -10.675,-4.99731 l -2.8284,-0.96148 0.018,-8.98173 c 0.027,-13.3852 1.0732,-20.51292 3.8607,-26.30846 2.2857,-4.75215 7.2043,-10.15412 10.9513,-12.02767 2.2915,-1.14573 5.0325,-1.14915 9.5156,-0.0119 8.1705,2.07261 13.8322,7.1242 18.4896,16.49721 3.0503,6.13855 6.1443,17.38026 6.2523,22.71669 l 0.056,2.77654 -1.6303,1.47906 c -0.8966,0.81348 -2.6467,2.02041 -3.889,2.68207 -2.9031,1.5461 -7.8193,4.88353 -11.5908,7.86853 -3.3214,2.62882 -6.6078,4.51479 -7.8649,4.5135 -0.4589,-4.7e-4 -2.1867,-0.67785 -3.8396,-1.50528 z" style="fill:#ffffff;fill-opacity:1;stroke-width:1.64895" /><path class="raizDente raizDD25" inkscape:connector-curvature="0" transform="scale(0.26458333)" id="path906" d="m 2649.5888,527.55514 c -4.441,-2.31794 -9.8782,-3.9457 -13.873,-4.15317 -4.4746,-0.23239 -5.8883,0.1859 -10.0637,2.97747 -1.8436,1.23264 -3.4424,2.24116 -3.5529,2.24116 -0.2794,0 0.2102,-29.07359 0.631,-37.47665 1.395,-27.85377 4.8471,-45.84767 11.531,-60.10408 3.2266,-6.88216 8.1484,-14.49569 9.3709,-14.49569 0.8276,0 1.1321,2.49381 1.3816,11.31371 0.2977,10.52669 0.5602,13.16529 2.2861,22.98097 1.9347,11.00324 3.3544,25.51731 4.5822,46.84582 0.6955,12.08099 1.1136,31.29552 0.6804,31.27198 -0.1771,-0.01 -1.5152,-0.64031 -2.9736,-1.40152 z" style="fill:#ffffff;fill-opacity:1;stroke-width:1.64895" /></g></g></svg>