<svg class="svgDente" xmlns:dc="http://purl.org/dc/elements/1.1/" xmlns:cc="http://creativecommons.org/ns#" xmlns:rdf="http://www.w3.org/1999/02/22-rdf-syntax-ns#" xmlns:svg="http://www.w3.org/2000/svg" xmlns="http://www.w3.org/2000/svg" xmlns:sodipodi="http://sodipodi.sourceforge.net/DTD/sodipodi-0.dtd" xmlns:inkscape="http://www.inkscape.org/namespaces/inkscape" sodipodi:docname="dd22.svg" inkscape:version="1.0 (4035a4fb49, 2020-05-01)" id="svg8" version="1.1" viewBox="0 0 13.854594 47.302376" height="47.302376mm" width="13.854593mm"><g class="dente DD22" transform="translate(-243.15446,-173.97916)" id="layer1" inkscape:groupmode="layer" inkscape:label="Camada 1"><g transform="translate(-388.98236,57.005059)" id="g1070"><path class="fundoDente fundoDD22" inkscape:connector-curvature="0" id="path893" d="m 632.50043,150.40287 c 0.36585,-1.64924 0.88856,-5.06236 1.16156,-7.58472 1.33824,-12.36436 3.82503,-24.33728 5.31103,-25.57055 0.29608,-0.24573 0.90443,-0.34269 1.38823,-0.22126 1.01769,0.25542 1.1658,1.1528 1.43295,8.68208 0.25064,7.06387 0.54078,10.08184 1.28164,13.33103 0.36669,1.60824 0.66745,3.91011 0.66834,5.11527 10e-4,1.61238 0.29239,2.93672 1.10233,5.01342 0.95136,2.43931 1.1067,3.30087 1.1449,6.35 -5.5e-4,6.40057 -2.60461,7.03772 -6.24368,8.05273 -1.40007,0.39051 -2.38296,0.25236 -3.86541,0.48934 -0.83497,0.13348 -2.53726,0.40827 -3.33841,0.006 -0.78287,-3.33634 -0.2288,-10.01121 -0.0435,-13.66298 z" style="fill:#000000;stroke-width:0.352778" /><path class="coroaDente coroaDD22" inkscape:connector-curvature="0" transform="scale(0.26458333)" id="path890" d="m 2391.697,617.75719 c -0.9381,-1.51792 -1.4582,-17.25933 -0.9293,-28.1289 0.9964,-20.48017 4.2047,-33.6511 10.1104,-41.50638 5.822,-7.74404 15.2444,-7.50868 23.9,0.59701 7.811,7.31467 12.783,20.29803 14.1018,36.82378 1.3993,17.53401 -3.1906,25.93487 -15.9188,29.1361 -7.4074,1.86298 -30.6037,4.14699 -31.2641,3.07839 z" style="fill:#ffffff;fill-opacity:1;stroke-width:1.64895" /><path class="raizDente raizDD22" inkscape:connector-curvature="0" transform="scale(0.26458333)" id="path892" d="m 2426.7392,545.78241 c -2.4451,-2.2554 -8.0651,-5.23342 -11.0428,-5.85159 -1.1448,-0.23766 -3.4211,-0.36019 -5.0925,-0.27413 -3.8761,0.19958 -5.9552,1.09426 -9.8583,4.24223 -1.6362,1.31964 -3.1111,2.39935 -3.2777,2.39935 -0.1665,0 -0.2253,-0.67617 -0.1307,-1.5026 0.095,-0.82643 0.7342,-6.67332 1.4215,-12.99309 1.5153,-13.93287 3.6638,-29.35787 5.3186,-38.18376 3.5176,-18.76125 7.3532,-35.71289 9.1772,-40.55882 2.4146,-6.41495 6.1816,-10.49439 7.1931,-7.78961 0.6059,1.62017 1.1501,8.7242 2.7017,35.26695 1.335,22.83635 3.0168,38.85153 4.9939,47.55293 1.9744,8.6897 2.5093,19.05997 1.005,19.48762 -0.1944,0.0553 -1.2785,-0.75268 -2.409,-1.79548 z" style="fill:#ffffff;fill-opacity:1;stroke-width:1.64895" /></g></g></svg>