<svg class="svgDente" xmlns:dc="http://purl.org/dc/elements/1.1/" xmlns:cc="http://creativecommons.org/ns#" xmlns:rdf="http://www.w3.org/1999/02/22-rdf-syntax-ns#" xmlns:svg="http://www.w3.org/2000/svg" xmlns="http://www.w3.org/2000/svg" xmlns:sodipodi="http://sodipodi.sourceforge.net/DTD/sodipodi-0.dtd" xmlns:inkscape="http://www.inkscape.org/namespaces/inkscape" sodipodi:docname="dd45.svg" inkscape:version="1.0 (4035a4fb49, 2020-05-01)" id="svg8" version="1.1" viewBox="0 0 14.22049 49.399585" height="49.399586mm" width="14.22049mm"><g class="dente DD45" transform="translate(161.53325,100.32613)" id="layer1" inkscape:groupmode="layer" inkscape:label="Camada 1"><g transform="translate(-676.68429,-289.50915)" id="g1222"><path class="fundoDente fundoDD45" inkscape:connector-curvature="0" id="path1107" d="m 518.92977,238.17395 c -0.26626,-0.26626 -0.42474,-1.60794 -0.42712,-3.61597 -0.004,-3.65389 -0.76359,-11.23487 -1.59173,-15.89264 -0.41657,-2.34295 -0.54605,-5.07021 -0.4941,-10.40694 0.0487,-5.00369 -0.0615,-7.55803 -0.35773,-8.29028 -0.8373,-2.06977 -1.14826,-4.72278 -0.7094,-6.05253 1.39902,-2.55789 6.32045,-6.12853 8.97758,-4.16726 0.58208,0.48906 1.88758,1.43612 2.9011,2.10457 1.19058,0.78523 1.92654,1.54916 2.07948,2.15851 0.33439,1.33232 -0.69618,5.73202 -1.96575,8.39215 -0.84781,1.77644 -1.07486,2.72477 -1.076,4.49416 -0.001,2.11287 -0.5366,8.49808 -1.41523,16.8829 -0.50515,4.82069 -1.42634,8.83169 -2.6332,11.46528 -1.45153,3.1675 -2.29622,3.91974 -3.2879,2.92805 z" style="fill:#000000;stroke-width:0.352778" /><path class="coroaDente coroaDD45" inkscape:connector-curvature="0" transform="scale(0.26458333)" id="path974" d="m 1969.9488,775.57704 c -4.4964,-1.23603 -8.2847,-4.17088 -11.371,-8.80936 -2.4303,-3.65237 -3.7471,-6.52854 -5.679,-12.40324 -2.2748,-6.91729 -3.0997,-11.43586 -2.9241,-16.0164 0.1239,-3.23334 0.2815,-4.04636 1.085,-5.5991 1.3005,-2.51322 3.3168,-4.10585 7.1052,-5.61225 3.7638,-1.49667 7.5258,-3.48969 11.0104,-5.83312 7.4524,-5.01184 8.4268,-4.8788 17.1473,2.34124 2.0418,1.69045 5.253,4.24035 7.1361,5.66645 1.883,1.42609 3.6729,2.94867 3.9774,3.38349 2.1835,3.1173 -1.8936,20.74915 -7.2955,31.55071 -2.1702,4.3396 -3.4306,6.20155 -5.8246,8.60475 -2.7501,2.76078 -4.0767,3.2472 -8.7767,3.21838 -2.139,-0.0131 -4.6548,-0.23431 -5.5905,-0.49155 z" style="fill:#ffffff;fill-opacity:1;stroke-width:1.64895" /><path class="raizDente raizDD45" inkscape:connector-curvature="0" transform="scale(0.26458333)" id="path976" d="m 1962.4853,897.28839 c -0.7879,-2.10928 -1.2582,-8.39615 -1.2629,-16.88217 -0.01,-16.31459 -0.8828,-27.33308 -3.6731,-46.31549 -1.0718,-7.29204 -2.1464,-15.96294 -2.3878,-19.26866 -0.5887,-8.05829 -0.6507,-45.22539 -0.076,-45.80083 0.3052,-0.30584 0.7423,-0.0287 1.7678,1.12073 2.9121,3.26415 4.9389,4.9261 7.6918,6.30723 3.682,1.8472 7.6484,2.84075 11.3406,2.84075 3.9481,0 5.9741,-0.64587 9.0946,-2.89921 0.331,-0.23899 0.7288,-0.30739 0.8839,-0.15199 0.5305,0.53125 -0.1798,18.87286 -1.323,34.1639 -0.4175,5.58429 -2.8715,29.12415 -3.8885,37.29988 -2.076,16.68928 -5.0814,29.75906 -8.8312,38.40497 -1.5927,3.67204 -5.1864,9.9493 -6.5455,11.43309 -1.5038,1.6418 -2.1029,1.58765 -2.7902,-0.2522 z" style="fill:#ffffff;fill-opacity:1;stroke-width:1.64895" /></g></g></svg>