<svg class="svgDente" xmlns:dc="http://purl.org/dc/elements/1.1/" xmlns:cc="http://creativecommons.org/ns#" xmlns:rdf="http://www.w3.org/1999/02/22-rdf-syntax-ns#" xmlns:svg="http://www.w3.org/2000/svg" xmlns="http://www.w3.org/2000/svg" xmlns:sodipodi="http://sodipodi.sourceforge.net/DTD/sodipodi-0.dtd" xmlns:inkscape="http://www.inkscape.org/namespaces/inkscape" sodipodi:docname="dd12.svg" inkscape:version="1.0 (4035a4fb49, 2020-05-01)" id="svg8" version="1.1" viewBox="0 0 14.447798 47.726742" height="47.726742mm" width="14.447798mm"><g class="dente DD12" transform="translate(-33.597533,-16.202101)" id="layer1" inkscape:groupmode="layer" inkscape:label="Camada 1"><g transform="translate(-537.33379,-100.77199)" id="g1049"><path class="fundoDente fundoDD12" inkscape:connector-curvature="0" id="path947" d="m 576.80791,163.59283 c -3.05875,-0.64896 -4.1931,-1.32621 -5.11675,-3.05487 -0.68691,-1.2856 -0.7911,-1.98013 -0.75301,-5.01982 0.0382,-3.04913 0.19354,-3.91069 1.1449,-6.35 0.80995,-2.0767 1.10114,-3.40104 1.10233,-5.01342 10e-4,-1.20516 0.30165,-3.50703 0.66835,-5.11527 0.74085,-3.24919 1.031,-6.26716 1.28163,-13.33103 0.26715,-7.52928 0.41526,-8.42666 1.43295,-8.68208 0.4838,-0.12143 1.09215,-0.0245 1.38823,0.22126 1.486,1.23327 3.97279,13.20619 5.31103,25.57055 0.27301,2.52236 0.79571,5.93548 1.16156,7.58472 0.77717,3.50338 1.30837,12.08864 0.6576,12.87276 0.0803,2.66936 -5.66693,0.87397 -8.27882,0.3172 z" style="fill:#000000;stroke-width:0.352778" /><path class="coroaDente coroaDD12" inkscape:connector-curvature="0" transform="scale(0.26458333)" id="path878" d="m 2199.6921,617.83082 c -11.5345,-0.97814 -21.2603,-2.39458 -25.2791,-3.68157 -7.2133,-2.31002 -11.166,-6.42558 -13.1642,-13.70656 -0.6269,-2.28454 -0.7452,-3.74111 -0.7647,-9.41991 -0.013,-3.71276 0.1832,-8.2199 0.438,-10.07628 2.567,-18.70094 10.1478,-32.42442 20.562,-37.22324 3.2188,-1.48319 7.7245,-1.74128 10.7072,-0.61331 7.4989,2.83583 12.9621,14.41413 15.2672,32.35648 0.9946,7.74184 1.238,12.61414 1.2366,24.74873 0,11.69402 -0.3002,16.42298 -1.0985,17.38492 -0.3759,0.45288 -4.0278,0.55948 -7.9045,0.23074 z" style="fill:#ffffff;fill-opacity:1;stroke-width:1.64895" /><path class="raizDente raizDD12" inkscape:connector-curvature="0" transform="scale(0.26458333)" id="path880" d="m 2169.1097,545.88272 c 0,-5.81521 0.6283,-10.60368 2.613,-19.91377 1.9033,-8.92891 3.6245,-27.60295 5.1649,-56.03821 0.7871,-14.52843 1.5928,-23.73351 2.1742,-24.83712 1.1074,-2.10245 4.4287,1.34181 6.6548,6.90108 2.6983,6.73881 8.2164,31.7783 11.1207,50.46295 2.3472,15.10053 5.7082,43.84062 5.1269,43.84062 -0.3364,0 -3.0505,-2.0181 -3.3365,-2.48086 -0.4834,-0.78225 -3.9851,-2.78899 -6.124,-3.50952 -2.6651,-0.89779 -7.2147,-0.97421 -9.9832,-0.16769 -3.697,1.07703 -7.624,3.5547 -11.3778,7.17858 l -2.033,1.96256 z" style="fill:#ffffff;fill-opacity:1;stroke-width:1.64895" /></g></g></svg>