<svg class="svgDente svgDenteMolar" xmlns:dc="http://purl.org/dc/elements/1.1/" xmlns:cc="http://creativecommons.org/ns#" xmlns:rdf="http://www.w3.org/1999/02/22-rdf-syntax-ns#" xmlns:svg="http://www.w3.org/2000/svg" xmlns="http://www.w3.org/2000/svg" xmlns:sodipodi="http://sodipodi.sourceforge.net/DTD/sodipodi-0.dtd" xmlns:inkscape="http://www.inkscape.org/namespaces/inkscape" sodipodi:docname="dd47.svg" inkscape:version="1.0 (4035a4fb49, 2020-05-01)" id="svg8" version="1.1" viewBox="0 0 22.547919 41.700721" height="41.700722mm" width="22.54792mm"><g class="dente DD47" transform="translate(235.76757,163.17587)" id="layer1" inkscape:groupmode="layer" inkscape:label="Camada 1"><g transform="translate(-694.68435,-355.61629)" id="g1238"><path class="fundoDente fundoDD47" inkscape:connector-curvature="0" id="path1083" d="m 471.63851,229.40439 c 1.37435,-3.68742 1.60151,-8.24377 0.54721,-10.97584 -1.27299,-3.29876 -2.35264,-2.92104 -3.39777,1.18875 -0.66933,2.63206 -1.80561,5.21878 -4.53301,10.31935 -2.07861,3.88727 -3.91235,4.67968 -4.6536,2.01095 -0.52717,-1.89792 -0.44416,-3.49813 0.34062,-6.56658 0.88094,-3.44447 1.59827,-7.69676 2.15722,-12.788 l 0.43428,-3.95566 -1.67429,-3.55951 c -1.98441,-4.21881 -2.39926,-6.69346 -1.46823,-8.75812 0.48552,-1.07671 1.05139,-1.56057 2.87904,-2.46182 2.73717,-1.34977 3.62437,-1.38358 6.09733,-0.23238 l 1.89565,0.88246 1.75677,-1.01427 c 1.21938,-1.50714 3.97498,-1.14119 5.79633,-0.4771 3.10376,1.13169 3.64864,1.77771 3.64864,4.32595 0,1.90779 -1.08411,6.95733 -1.6947,7.89352 -0.13507,0.20709 -0.25046,3.86903 -0.25642,8.13764 -0.009,6.74206 -0.11013,8.1553 -0.76703,10.76327 -1.55836,6.18685 -2.9617,8.77726 -5.27974,9.7458 -3.89381,1.37405 -2.32365,-3.11554 -1.8283,-4.47841 z" style="fill:#000000;stroke-width:0.352778" /><path class="coroaDente coroaDD47" inkscape:connector-curvature="0" transform="scale(0.26458333)" id="path982" d="m 1772.4228,783.99106 c -4.227,-1.56686 -7.9937,-1.85038 -13.435,-1.01122 -2.0418,0.31489 -4.9018,0.74066 -6.3557,0.94615 l -2.6433,0.37362 -0.8135,-1.00223 c -1.1898,-1.46579 -6.9016,-13.17376 -8.3603,-17.1369 -2.1562,-5.85801 -3.0901,-9.9749 -3.3004,-14.54872 -0.3357,-7.299 0.9503,-9.97368 6.7093,-13.95487 2.9329,-2.02755 7.971,-4.62123 10.8748,-5.59854 2.929,-0.98578 5.8996,-0.82854 9.8818,0.52309 5.5633,1.88828 8.7243,3.89767 10.671,6.78348 l 0.577,0.85537 1.7353,-1.62314 c 1.8631,-1.74271 5.789,-4.13444 12.8438,-7.82464 l 4.4194,-2.3117 6.7714,2.57294 c 14.0471,5.33754 16.0389,7.27937 15.5648,15.17451 -0.6466,10.76929 -7.3247,33.01786 -10.2379,34.10828 -0.4315,0.16151 -4.2847,0.38016 -8.5627,0.48588 -9.3597,0.23131 -12.7378,0.77835 -18.043,2.92185 -2.1455,0.86685 -4.1342,1.56163 -4.4194,1.54395 -0.2852,-0.0177 -2.03,-0.59239 -3.8774,-1.27716 z m 11.3137,-22.52703 c 0,-0.51769 -5.6827,-5.95411 -5.9473,-5.68953 -0.3104,0.31042 2.1712,3.04168 2.6105,2.8731 0.273,-0.10478 0.9174,0.53499 1.5821,1.57072 1.119,1.74388 1.7547,2.19518 1.7547,1.24571 z m -9.3766,-2.90397 c 0.8922,-1.09536 1.5417,-2.07215 1.4432,-2.17063 -0.4034,-0.40339 -4.0874,2.88244 -4.0874,3.64563 0,1.05499 1.069,0.45867 2.6442,-1.475 z" style="fill:#ffffff;fill-opacity:1;stroke-width:1.64895" /><path class="raizDente raizDD47" inkscape:connector-curvature="0" transform="scale(0.26458333)" id="path984" d="m 1784.4437,882.27989 c -0.2917,-0.10551 -1.0671,-0.43857 -1.723,-0.74016 -1.1883,-0.54633 -1.192,-0.55566 -1.0105,-2.55667 0.1001,-1.10458 0.7726,-3.66251 1.4944,-5.68428 6.1917,-17.34441 6.3397,-18.07899 6.3346,-31.42988 0,-11.40065 -0.2509,-12.96307 -2.9292,-18.56976 -3.266,-6.83723 -4.7257,-8.29669 -8.3001,-8.29898 -4.3886,-0.003 -5.7112,1.65834 -7.9962,10.04298 -0.7996,2.9344 -2.4261,8.35816 -3.6143,12.05279 -1.9449,6.0471 -2.7333,7.84664 -7.8997,18.03122 -6.023,11.87305 -9.8241,18.85145 -11.738,21.54949 -2.0754,2.9258 -5.0606,3.95296 -6.2431,2.14818 -0.9301,-1.41945 -1.6312,-5.02168 -1.8598,-9.55553 -0.2522,-5.00162 0.2938,-9.30375 2.1986,-17.32412 4.7959,-20.19318 6.937,-35.21656 7.975,-55.95814 0.4116,-8.22656 0.4599,-8.5891 1.1649,-8.75366 2.2629,-0.52816 12.3228,-1.92631 13.8823,-1.92939 2.1393,-0.004 5.5028,0.68202 9.4807,1.93429 4.1693,1.31256 5.5537,1.17971 7.6064,-0.72994 2.0893,-1.94369 7.1112,-2.60029 19.9941,-2.61416 l 7.448,-0.008 0.6451,12.28598 c 1.2919,24.60092 0.17,39.28495 -4.2498,55.6233 -2.8804,10.64762 -7.0563,20.66073 -10.5606,25.32249 -3.0637,4.07561 -7.2243,6.20208 -10.0998,5.16197 z" style="fill:#ffffff;fill-opacity:1;stroke-width:1.64895" /></g></g></svg>