<svg class="svgDenteRoda" xmlns:dc="http://purl.org/dc/elements/1.1/" xmlns:cc="http://creativecommons.org/ns#" xmlns:rdf="http://www.w3.org/1999/02/22-rdf-syntax-ns#" xmlns:svg="http://www.w3.org/2000/svg" xmlns="http://www.w3.org/2000/svg" xmlns:sodipodi="http://sodipodi.sourceforge.net/DTD/sodipodi-0.dtd" xmlns:inkscape="http://www.inkscape.org/namespaces/inkscape" sodipodi:docname="roda2.svg" inkscape:version="0.92.3 (2405546, 2018-03-11)" id="svg8" version="1.1" viewBox="0 0 17.032557 17.032564" height="17.032564mm" width="17.032558mm"> <g class="DenteRoda DRB43" transform="translate(-4.0001075,-114.21064)" id="layer1" inkscape:groupmode="layer" inkscape:label="Camada 1"> <g id="g857"> <path class="DRBBordaBaixo DRBBordaBaixo43" style="opacity:1;fill:#ffffff;fill-opacity:1;fill-rule:nonzero;stroke:#000000;stroke-width:0.28174928;stroke-miterlimit:4;stroke-dasharray:none;stroke-opacity:1" d="m 18.439314,128.64986 a 8.3762936,8.3762936 0 0 1 -11.8458625,0 l 5.9229355,-5.92293 z" id="path1363-7" inkscape:connector-curvature="0"/> <path class="DRBBordaEsq DRBBordaEsq43" style="opacity:1;fill:#ffffff;fill-opacity:1;fill-rule:nonzero;stroke:#000000;stroke-width:0.28174928;stroke-miterlimit:4;stroke-dasharray:none;stroke-opacity:1" d="m 6.59346,128.64986 a 8.3762936,8.3762936 0 0 1 -8.5e-6,-11.84587 l 5.9229355,5.92294 z" id="path1363-4-5" inkscape:connector-curvature="0"/> <path class="DRBBordaCima DRBBordaCima43" style="opacity:1;fill:#ffffff;fill-opacity:1;fill-rule:nonzero;stroke:#000000;stroke-width:0.28174928;stroke-miterlimit:4;stroke-dasharray:none;stroke-opacity:1" d="m 6.5934515,116.80399 a 8.3762936,8.3762936 0 0 1 11.8458705,0 l -5.922935,5.92294 z" id="path1363-4-2-3" inkscape:connector-curvature="0"/> <path class="DRBBordaDir DRBBordaDir43" style="opacity:1;fill:#ffffff;fill-opacity:1;fill-rule:nonzero;stroke:#000000;stroke-width:0.28174928;stroke-miterlimit:4;stroke-dasharray:none;stroke-opacity:1" d="m 18.439322,116.80399 a 8.3762936,8.3762936 0 0 1 -8e-6,11.84587 l -5.922927,-5.92293 z" id="path1363-4-2-0-6" inkscape:connector-curvature="0"/> <path class="DRBBaixo DRBBaixo43" style="opacity:1;fill:#ffffff;fill-opacity:1;fill-rule:nonzero;stroke:#000000;stroke-width:0.4;stroke-miterlimit:4;stroke-dasharray:none;stroke-opacity:1" d="m 16.798308,127.00886 a 6.0555586,6.0555586 0 0 1 -8.5638493,0 l 4.2819283,-4.28193 z" id="path1363-7-1" inkscape:connector-curvature="0"/> <path class="DRBEsq DRBEsq43" style="opacity:1;fill:#ffffff;fill-opacity:1;fill-rule:nonzero;stroke:#000000;stroke-width:0.4;stroke-miterlimit:4;stroke-dasharray:none;stroke-opacity:1" d="m 8.2344665,127.00886 a 6.0555586,6.0555586 0 0 1 -7.8e-6,-8.56387 l 4.2819283,4.28195 z" id="path1363-4-5-2" inkscape:connector-curvature="0"/> <path class="DRBCima DRBCima43" style="opacity:1;fill:#ffffff;fill-opacity:1;fill-rule:nonzero;stroke:#000000;stroke-width:0.4;stroke-miterlimit:4;stroke-dasharray:none;stroke-opacity:1" d="m 8.2344587,118.44499 a 6.0555586,6.0555586 0 0 1 8.5638563,0 l -4.281928,4.28194 z" id="path1363-4-2-3-2" inkscape:connector-curvature="0"/> <path class="DRBDir DRBDir43" style="opacity:1;fill:#ffffff;fill-opacity:1;fill-rule:nonzero;stroke:#000000;stroke-width:0.4;stroke-miterlimit:4;stroke-dasharray:none;stroke-opacity:1" d="m 16.798315,118.44499 a 6.0555586,6.0555586 0 0 1 -7e-6,8.56387 l -4.281921,-4.28192 z" id="path1363-4-2-0-6-1" inkscape:connector-curvature="0"/> </g> </g></svg>