<svg class="svgDenteRoda" xmlns:dc="http://purl.org/dc/elements/1.1/" xmlns:cc="http://creativecommons.org/ns#" xmlns:rdf="http://www.w3.org/1999/02/22-rdf-syntax-ns#" xmlns:svg="http://www.w3.org/2000/svg" xmlns="http://www.w3.org/2000/svg" xmlns:sodipodi="http://sodipodi.sourceforge.net/DTD/sodipodi-0.dtd" xmlns:inkscape="http://www.inkscape.org/namespaces/inkscape" sodipodi:docname="roda1.svg" inkscape:version="0.92.3 (2405546, 2018-03-11)" id="svg8" version="1.1" viewBox="0 0 17.032559 17.03256" height="17.03256mm" width="17.03256mm"> <g class="DenteRoda DRA46" transform="translate(247.53123,-11.601923)" id="layer1" inkscape:groupmode="layer" inkscape:label="Camada 1"> <g id="g865"> <path class="DRABordaBaixo DRABordaBaixo46" style="opacity:1;fill:#ffffff;fill-opacity:1;fill-rule:nonzero;stroke:#000000;stroke-width:0.28174928;stroke-miterlimit:4;stroke-dasharray:none;stroke-opacity:1" d="m -233.09202,26.041139 a 8.3762936,8.3762936 0 0 1 -11.84586,0 l 5.92293,-5.92293 z" id="path1363" inkscape:connector-curvature="0"/> <path class="DRABordaEsq DRABordaEsq46" style="opacity:1;fill:#ffffff;fill-opacity:1;fill-rule:nonzero;stroke:#000000;stroke-width:0.28174928;stroke-miterlimit:4;stroke-dasharray:none;stroke-opacity:1" d="m -244.93788,26.041139 a 8.3762936,8.3762936 0 0 1 0,-11.845867 l 5.92293,5.922937 z" id="path1363-4" inkscape:connector-curvature="0"/> <path class="DRABordaCima DRABordaCima46" style="opacity:1;fill:#ffffff;fill-opacity:1;fill-rule:nonzero;stroke:#000000;stroke-width:0.28174928;stroke-miterlimit:4;stroke-dasharray:none;stroke-opacity:1" d="m -244.93788,14.195272 a 8.3762936,8.3762936 0 0 1 11.84587,0 l -5.92294,5.922937 z" id="path1363-4-2" inkscape:connector-curvature="0"/> <path class="DRABordaDir DRABordaDir46" style="opacity:1;fill:#ffffff;fill-opacity:1;fill-rule:nonzero;stroke:#000000;stroke-width:0.28174928;stroke-miterlimit:4;stroke-dasharray:none;stroke-opacity:1" d="m -233.09201,14.195272 a 8.3762936,8.3762936 0 0 1 -1e-5,11.845867 l -5.92293,-5.92293 z" id="path1363-4-2-0" inkscape:connector-curvature="0"/> <path class="DRABaixo DRABaixo46" style="opacity:1;fill:#ffffff;fill-opacity:1;fill-rule:nonzero;stroke:#000000;stroke-width:0.36143598;stroke-miterlimit:4;stroke-dasharray:none;stroke-opacity:1" d="m -234.79397,24.314549 c -2.32089,2.320888 -6.10839,2.345466 -8.42927,0.02461 l 2.30535,-2.305356 c 1.36098,0.844744 2.51227,1.021645 3.81857,-0.02454 z" id="path2676-8-9" inkscape:connector-curvature="0" sodipodi:nodetypes="ccccc"/> <path class="DRACima DRACima46" style="opacity:1;fill:#fffff9;fill-opacity:1;fill-rule:nonzero;stroke:#000000;stroke-width:0.36143598;stroke-miterlimit:4;stroke-dasharray:none;stroke-opacity:1" d="m -243.24782,15.909855 c 2.32088,-2.320895 6.13297,-2.320887 8.45387,8e-6 l -2.32996,2.280763 c -1.36097,-0.844737 -2.51226,-1.021645 -3.81856,0.02461 z" id="path2676-8-9-1" inkscape:connector-curvature="0" sodipodi:nodetypes="ccccc"/> <path class="DRAEsq DRAEsq46" style="opacity:1;fill:#ffffff;fill-opacity:1;fill-rule:nonzero;stroke:#000000;stroke-width:0.36143598;stroke-miterlimit:4;stroke-dasharray:none;stroke-opacity:1" d="m -243.22324,24.339127 c -2.3209,-2.320888 -2.34547,-6.108383 -0.0246,-8.429272 l 2.30534,2.305363 c -0.47619,0.767192 -0.74015,1.46777 -0.69243,2.167037 0.0369,0.541194 0.26056,1.081606 0.71702,1.651517 z" id="path2676-8-9-1-5" inkscape:connector-curvature="0" sodipodi:nodetypes="cccscc"/> <path class="DRADir DRADir46" style="opacity:1;fill:#ffffff;fill-opacity:1;fill-rule:nonzero;stroke:#000000;stroke-width:0.36143598;stroke-miterlimit:4;stroke-dasharray:none;stroke-opacity:1" d="m -234.79395,15.909863 c 2.32087,2.320888 2.32086,6.08379 -2e-5,8.404686 l -2.28077,-2.28077 c 0.84474,-1.360972 1.02165,-2.51227 -0.0245,-3.818561 z" id="path2676-8-9-1-5-8" inkscape:connector-curvature="0" sodipodi:nodetypes="ccccc"/> <path class="DRACentro DRACentro46" id="path1082" d="m -236.32274,20.118205 a 2.6922077,2.6922077 0 0 1 -2.69221,2.692206 2.6922077,2.6922077 0 0 1 -2.69221,-2.692206 2.6922077,2.6922077 0 0 1 2.69221,-2.692206 2.6922077,2.6922077 0 0 1 2.69221,2.692206 z" style="opacity:1;fill:#ffffff;fill-opacity:1;fill-rule:nonzero;stroke:#000000;stroke-width:0.27203411;stroke-miterlimit:4;stroke-dasharray:none;stroke-opacity:1" inkscape:connector-curvature="0"/> </g> </g></svg>