<svg class="svgDente svgDenteMolar" xmlns:dc="http://purl.org/dc/elements/1.1/" xmlns:cc="http://creativecommons.org/ns#" xmlns:rdf="http://www.w3.org/1999/02/22-rdf-syntax-ns#" xmlns:svg="http://www.w3.org/2000/svg" xmlns="http://www.w3.org/2000/svg" xmlns:sodipodi="http://sodipodi.sourceforge.net/DTD/sodipodi-0.dtd" xmlns:inkscape="http://www.inkscape.org/namespaces/inkscape" sodipodi:docname="dd16.svg" inkscape:version="1.0 (4035a4fb49, 2020-05-01)" id="svg855" version="1.1" viewBox="0 0 26.496798 47.443318" height="47.443317mm" width="26.496798mm"> <g transform="translate(-38.125557,-164.8376)" id="layer1" inkscape:groupmode="layer" inkscape:label="Camada 1"> <g class="dente DD16" transform="translate(-442.69616,61.951744)" id="g1019"> <path inkscape:connector-curvature="0" class="fundoDente fundoDD16" d="m 497.09499,148.82075 -2.02552,-1.12158 -1.89926,0.99907 c -2.63994,1.38869 -3.85501,1.30626 -6.4053,-0.43455 -2.96226,-2.02202 -3.88994,-3.22356 -3.88479,-5.03164 0.005,-1.89296 0.70497,-4.4958 2.12553,-7.90816 1.03555,-2.48748 1.11226,-2.92929 0.90184,-5.19336 -0.29396,-3.16298 -1.98243,-9.01656 -3.41268,-11.83111 -1.79989,-3.54195 -2.24307,-9.29042 -0.85979,-11.15239 0.83191,-1.11979 1.59919,-0.1991 2.86036,3.43226 1.09125,3.14207 3.27972,7.52534 3.59822,7.20683 0.30582,-0.30582 1.47368,-9.6747 1.47922,-11.86677 0.19487,-3.91359 2.18488,-3.46967 3.72942,-1.84536 0.96362,1.01338 1.66813,2.68619 1.91821,3.43304 0.92676,2.76777 4.14296,9.07501 4.36935,8.48504 0.51335,-1.33776 0.006,-5.19327 -1.06911,-8.13109 -0.66551,-1.81785 -0.51807,-3.80112 0.294,-3.95485 0.73558,-0.13925 3.17249,2.02507 4.57449,4.0628 0.6476,0.94125 1.38888,2.84401 1.93197,4.95907 0.91545,3.56522 0.93309,5.74064 0.0779,9.60543 -0.35696,1.61319 -0.39067,1.8976 -0.8152,6.87916 -0.21879,2.56731 -0.14324,3.1117 0.83644,6.02716 1.64149,4.88502 2.21211,7.96873 1.73619,9.38272 -0.54226,1.61105 -0.82264,1.91164 -3.60726,3.8672 -0.43798,0.20078 -1.18251,1.10422 -1.95236,1.32796 -3.27206,0.71872 -2.08397,0.14196 -4.50187,-1.19688 z" style="fill:#000000;stroke-width:0.352778"/> <path inkscape:connector-curvature="0" class="raizDente raizDD16" transform="scale(0.26458333)" id="path858" d="m 1867.1326,473.73144 c -1.6184,-3.18273 -5.6548,-8.48827 -13.0797,-17.19222 -1.8872,-2.2123 -3.8831,-4.83744 -4.4353,-5.83364 -0.9626,-1.73663 -1.0032,-2.00066 -0.9838,-6.40746 0.015,-3.38478 0.3142,-6.41331 1.1354,-11.49048 1.3227,-8.17772 1.933,-13.28093 2.8964,-24.21841 0.7612,-8.64153 1.312,-11.47151 2.6979,-13.86067 1.8102,-3.12064 3.8503,-3.44065 6.4474,-1.01137 2.3031,2.15429 4.2123,5.65269 7.4692,13.68674 3.0763,7.58873 4.8122,11.52148 8.3259,18.86297 6.2174,12.99076 7.9959,17.91285 8.048,22.27386 0.067,5.63458 -2.8216,11.7533 -9.0543,19.1767 -2.4808,2.95468 -7.4562,7.51658 -8.1979,7.51658 -0.2779,0 -0.849,-0.67617 -1.2692,-1.5026 z" style="fill:#ffffff;fill-opacity:1;stroke-width:1.64895"/> <path inkscape:connector-curvature="0" class="raizDente raizDD16" transform="scale(0.26458333)" id="path860" d="m 1839.148,496.18208 c -0.2106,-10.10918 -0.3804,-11.2365 -3.6088,-23.95324 -2.5786,-10.15692 -3.972,-14.28635 -7.1581,-21.2132 -6.8611,-14.91653 -7.5178,-17.28511 -8.0864,-29.16816 -0.371,-7.75191 0.8847,-14.74996 2.5901,-14.43471 0.8897,0.16446 3.0348,4.65647 6.2544,13.09713 6.1453,16.1111 11.6033,25.23195 23.0152,38.46069 6.8092,7.89328 10.7288,12.94728 12.6576,16.32082 1.4146,2.47432 2.6798,3.83172 3.5714,3.83172 2.6759,0 10.2875,-8.1204 15.1481,-16.16086 2.0912,-3.45915 4.655,-9.14938 5.3696,-11.91745 0.9362,-3.62653 1.3342,-9.58427 1.3838,-20.71206 0.053,-11.93841 -0.022,-12.59835 -2.2563,-19.79899 -2.6549,-8.55677 -3.4116,-13.27282 -2.3539,-14.67155 0.5271,-0.69708 0.5535,-0.6925 2.0434,0.35468 3.2647,2.29449 12.7079,13.64777 15.1274,18.1871 1.3022,2.44324 2.8555,7.14338 4.4463,13.45389 2.9884,11.85436 3.0486,14.28817 0.7702,31.1127 -0.8822,6.51422 -2.3289,17.7307 -3.2148,24.92551 -0.8859,7.19481 -1.704,13.6781 -1.818,14.4073 l -0.2073,1.32583 -9.9568,-0.0109 c -13.7919,-0.0151 -15.4504,-0.28341 -18.8321,-3.04647 -2.2921,-1.87278 -2.7009,-1.72753 -7.3472,2.61032 -3.2139,3.00054 -4.5652,3.77815 -7.4855,4.30772 -1.5938,0.289 -17.0234,1.43091 -19.471,1.44101 -0.2807,0.001 -0.453,-2.59254 -0.5813,-8.74881 z" style="fill:#ffffff;fill-opacity:1;stroke-width:1.64895"/> <path inkscape:connector-curvature="0" class="coroaDente coroaDD16" transform="scale(0.26458333)" id="path862" d="m 1881.6102,560.89249 -9.6621,-4.88267 -0.1768,-6.35838 c -0.2097,-7.54214 -0.4104,-8.12528 -3.2633,-9.48124 -1.0242,-0.48678 -1.9251,-0.82215 -2.002,-0.74527 -0.077,0.0769 0.4911,0.75199 1.2621,1.50025 1.8368,1.78259 2.3889,3.78161 2.3727,8.59241 -0.015,4.41755 -0.4238,5.3872 -3.1622,7.49593 -5.353,4.12218 -12.974,6.4845 -17.2914,5.35995 -4.3264,-1.12689 -15.1351,-8.58326 -18.8528,-13.0056 -2.2789,-2.71082 -2.7281,-4.15351 -2.7171,-8.72645 0.011,-4.51663 0.5603,-7.67017 2.5231,-14.48501 2.2016,-7.64366 5.7824,-15.64826 7.7723,-17.3741 1.0657,-0.92436 1.9939,-1.03497 11.4383,-1.36324 4.9586,-0.17234 9.8111,-0.49131 10.7834,-0.7088 1.809,-0.40467 3.5531,-1.4581 7.6014,-4.59122 3.0346,-2.34859 3.7747,-2.45691 7.2627,-1.06302 4.7039,1.87978 7.2586,2.15773 17.3352,1.88611 4.8756,-0.13142 9.2893,-0.13239 9.8082,-0.002 0.6703,0.16824 1.2021,0.74735 1.8371,2.0003 2.7379,5.4031 7.9651,22.13281 9.3527,29.93386 0.5135,2.88664 0.5034,10.35315 -0.016,12.08773 -1.3312,4.4429 -10.0693,12.08833 -19.8309,17.35105 l -2.7123,1.46225 -9.6621,-4.88268 z" style="fill:#ffffff;fill-opacity:1;stroke-width:1.64895"/> </g> </g></svg>