<svg class="svgDente" xmlns:dc="http://purl.org/dc/elements/1.1/" xmlns:cc="http://creativecommons.org/ns#" xmlns:rdf="http://www.w3.org/1999/02/22-rdf-syntax-ns#" xmlns:svg="http://www.w3.org/2000/svg" xmlns="http://www.w3.org/2000/svg" xmlns:sodipodi="http://sodipodi.sourceforge.net/DTD/sodipodi-0.dtd" xmlns:inkscape="http://www.inkscape.org/namespaces/inkscape" sodipodi:docname="dd24.svg" inkscape:version="1.0 (4035a4fb49, 2020-05-01)" id="svg8" version="1.1" viewBox="0 0 15.146534 45.650879" height="45.650879mm" width="15.146533mm"><g  class="dente DD24" transform="translate(-118.33655,-39.675604)" id="layer1" inkscape:groupmode="layer" inkscape:label="Camada 1"><g transform="translate(-553.62849,-70.510596)" id="g1086"><path class="fundoDente fundoDD24" inkscape:connector-curvature="0" id="path919" d="m 677.41963,154.73527 c -0.70486,-0.47897 -1.97694,-1.17845 -2.82683,-1.5544 -1.75055,-0.77435 -2.62818,-1.81674 -2.62776,-3.12108 3.6e-4,-1.41009 1.00816,-5.87009 1.77999,-7.87807 0.48374,-1.2585 0.76169,-3.04929 0.8868,-5.71357 0.2824,-6.01386 1.6101,-12.87962 3.3444,-17.29448 0.53535,-1.3628 1.08116,-3.42655 1.21292,-4.58611 0.35183,-3.0965 0.82665,-4.40136 1.60159,-4.40136 0.36155,0 0.75575,0.15918 0.87599,0.35374 0.14614,0.23645 0.43775,0.23645 0.87958,0 0.36352,-0.19456 1.00966,-0.35374 1.43585,-0.35374 0.70268,0 0.75267,0.12332 0.53634,1.32292 -0.58984,3.27083 -0.61644,6.83906 -0.0822,11.02431 1.06745,8.36196 1.22252,11.88964 0.77538,17.63888 -0.0528,0.6791 0.12233,1.77558 0.38921,2.43663 1.17231,2.9038 1.86287,7.58289 1.3257,8.98273 -0.11417,0.29753 -0.78886,0.7301 -1.49931,0.96127 -0.71044,0.23117 -1.79811,0.86062 -2.41704,1.39878 -0.61893,0.53815 -1.41135,1.13854 -1.76095,1.33418 -0.47944,1.19725 -2.76523,0.17757 -3.82966,-0.55063 z" style="fill:#000000;stroke-width:0.352778" /><path class="raizDente raizDD24" inkscape:connector-curvature="0" transform="scale(0.26458333)" id="path898" d="m 2570.5333,428.565 c 0.1048,-0.48614 0.3715,-2.15553 0.5926,-3.70976 0.453,-3.18431 1.2504,-5.48263 1.9022,-5.48263 0.7556,0 1.6074,1.24951 1.6074,2.35789 0,0.6512 -0.6939,2.21964 -1.7864,4.03803 -2.0724,3.44928 -2.5917,4.07644 -2.3158,2.79647 z" style="fill:#ffffff;fill-opacity:1;stroke-width:1.64895" /><path class="raizDente raizDD24" inkscape:connector-curvature="0" transform="scale(0.26458333)" id="path900" d="m 2584.6669,527.66902 c -3.3939,-4.07046 -5.7204,-6.06739 -8.7348,-7.49745 -1.5882,-0.75344 -3.6219,-1.54401 -4.5194,-1.75684 -6.8822,-1.63197 -13.4797,-0.0757 -17.2726,4.0742 l -1.6924,1.85175 -0.2283,-1.72103 c -0.6173,-4.65363 1.7053,-26.19682 4.2511,-39.43066 4.6484,-24.16368 14.9517,-51.90262 22.4582,-60.46294 1.6382,-1.86817 3.7738,-3.35344 4.8217,-3.35344 0.9817,0 0.9864,-0.17524 -0.1286,4.77297 -0.4091,1.81552 -0.6083,5.28506 -0.7478,13.02285 -0.213,11.81683 0.093,17.41023 1.6758,30.64099 2.8159,23.53804 3.7018,35.69955 3.4125,46.84583 -0.1697,6.54173 -0.9318,14.41612 -1.4448,14.92909 -0.076,0.0761 -0.9088,-0.78583 -1.8506,-1.91532 z" style="fill:#ffffff;fill-opacity:1;stroke-width:1.64895" /><path class="coroaDente coroaDD24" inkscape:connector-curvature="0" transform="scale(0.26458333)" id="path902" d="m 2567.111,585.16994 c -1.7729,-0.43492 -2.9656,-1.06759 -6.9712,-3.69778 -1.8473,-1.21299 -5.5642,-3.37871 -8.2597,-4.8127 -5.4842,-2.91753 -8.0964,-4.98803 -8.7353,-6.92372 -0.9057,-2.74431 0.2726,-11.79727 2.8389,-21.81178 2.8949,-11.29692 6.5354,-18.74786 11.4799,-23.4958 3.2403,-3.11152 5.5396,-4.11606 9.4211,-4.11606 2.8592,0 3.2068,0.0864 6.0822,1.51153 6.5311,3.23703 13.4551,11.91221 16.6526,20.86412 2.108,5.90181 4.8335,19.2697 4.917,24.11662 0.074,4.29154 -1.1352,6.2097 -4.481,7.1087 -6.2011,1.66621 -6.1053,1.61919 -8.8157,4.32959 -5.8238,5.82379 -10.0936,7.91724 -14.1288,6.92728 z" style="fill:#ffffff;fill-opacity:1;stroke-width:1.64895" /></g></g></svg>