<svg class="svgDente svgDenteMolar" xmlns:dc="http://purl.org/dc/elements/1.1/" xmlns:cc="http://creativecommons.org/ns#" xmlns:rdf="http://www.w3.org/1999/02/22-rdf-syntax-ns#" xmlns:svg="http://www.w3.org/2000/svg" xmlns="http://www.w3.org/2000/svg" xmlns:sodipodi="http://sodipodi.sourceforge.net/DTD/sodipodi-0.dtd" xmlns:inkscape="http://www.inkscape.org/namespaces/inkscape" sodipodi:docname="dd46.svg" inkscape:version="1.0 (4035a4fb49, 2020-05-01)" id="svg8" version="1.1" viewBox="0 0 24.623099 44.689235" height="44.689236mm" width="24.6231mm"><g class="dente DD46" transform="translate(-89.982581,-79.168543)" id="layer1" inkscape:groupmode="layer" inkscape:label="Camada 1"><g transform="translate(-396.47045,-112.93208)" id="g1229"><path class="fundoDente fundoDD46" inkscape:connector-curvature="0" id="path1101" d="m 500.97516,236.25221 c -0.12267,-0.31966 -0.0172,-1.07372 0.23436,-1.6757 1.79652,-4.29895 1.9273,-5.06789 1.3471,-7.92026 -0.80386,-3.95196 -2.07114,-8.63179 -2.47235,-9.13002 -0.50985,-0.63312 -1.45854,-0.0102 -2.3926,1.57097 -0.43279,0.73262 -1.38388,3.17528 -2.11353,5.42815 -1.46476,4.52257 -3.78228,9.27871 -5.32695,10.93229 -0.7281,0.77942 -1.25993,1.04135 -1.94798,0.95936 -1.47227,-0.17542 -1.81778,-1.06176 -1.03357,-2.65141 0.50567,-1.02501 0.72206,-2.54992 0.91631,-6.45719 0.13987,-2.81341 0.4295,-5.66438 0.64363,-6.3355 0.50165,-1.57231 1.45463,-8.39611 1.45463,-10.41589 0,-1.14408 -0.27858,-1.97047 -1.04918,-3.11228 -3.21285,-4.76054 -3.67181,-9.15981 -1.22614,-11.75297 1.09903,-1.16532 1.33507,-1.26299 2.57355,-1.06495 1.07044,0.17117 1.49206,0.076 1.96143,-0.44261 3.74727,-2.63749 5.17571,-1.07518 8.34566,-0.0346 l 1.63106,-0.82893 c 2.25886,-1.20689 2.27265,-1.71877 5.01676,-0.59819 0.59603,0.24688 1.65212,1.07807 2.34687,1.84707 1.14863,1.2714 1.25464,1.56358 1.16899,3.22197 -0.10619,2.05578 -0.56054,4.19445 -1.72298,8.11014 -0.73644,2.4807 -0.76659,2.92229 -0.39653,5.80785 0.77229,6.02199 0.21309,14.89575 -1.20926,19.18935 -0.79368,2.39582 -2.43233,4.47079 -4.14463,5.24818 -1.82449,0.82834 -2.31946,0.84831 -2.60465,0.10513 z" style="fill:#000000;stroke-width:0.352778" /><path class="raizDente raizDD46" inkscape:connector-curvature="0" transform="scale(0.26458333)" id="path978" d="m 1895.9873,890.95203 c -0.2733,-1.08889 0.5056,-3.39278 2.7287,-8.07094 3.4633,-7.28774 4.5216,-11.42179 4.5216,-17.66246 0,-4.45744 -0.5061,-7.64327 -2.6704,-16.80899 -2.8393,-12.02475 -6.4797,-24.20586 -8.3008,-27.77553 -0.8621,-1.68993 -2.5712,-2.94528 -3.6435,-2.67616 -1.6657,0.41808 -5.1984,3.08728 -7.0385,5.31813 -3.578,4.33771 -6.4182,10.60661 -11.227,24.78 -3.944,11.62447 -6.3584,17.55706 -10.4848,25.76314 -6.4931,12.91246 -12.2132,19.01524 -15.5998,16.64322 -1.1953,-0.83726 -1.0113,-2.80179 0.8101,-8.64711 2.009,-6.44747 2.5303,-10.55565 2.8035,-22.09198 0.2572,-10.86303 0.8552,-16.70184 2.4621,-24.04163 2.7358,-12.4964 5.1034,-29.32236 5.4158,-38.48958 l 0.2033,-5.96267 9.2277,0.18131 c 10.4222,0.20478 11.3895,0.3667 17.1826,2.8764 4.3448,1.88223 5.6777,1.99278 8.7882,0.72888 2.7835,-1.13104 6.1363,-1.83518 11.7179,-2.46096 7.0278,-0.78791 15.9516,-1.34497 16.2702,-1.01567 0.3948,0.40801 1.2666,4.86068 1.755,8.96372 1.0313,8.66414 1.043,34.15311 0.02,44.90128 -0.5109,5.36991 -1.9748,14.81792 -3.013,19.44544 -3.0518,13.60326 -7.7824,21.28754 -15.4415,25.08274 -1.6784,0.83169 -3.7765,1.59386 -4.6624,1.69372 -1.4781,0.16661 -1.6284,0.11109 -1.8255,-0.6743 z" style="fill:#ffffff;fill-opacity:1;stroke-width:1.64895" /><path class="coroaDente coroaDD46" inkscape:connector-curvature="0" transform="scale(0.26458333)" id="path980" d="m 1884.676,791.84388 c -3.0744,-1.90761 -8.1543,-2.74191 -20.5061,-3.36787 -4.278,-0.2168 -8.126,-0.46366 -8.5512,-0.54857 -1.2978,-0.25923 -4.67,-5.53452 -5.4559,-8.53519 -0.6711,-2.56188 -1.8849,-5.48949 -5.2123,-12.57153 -3.7101,-7.89651 -4.3044,-11.1263 -3.037,-16.50345 1.12,-4.7521 4.5235,-9.93644 7.4547,-11.3554 1.5709,-0.76048 1.7456,-0.77175 5.0934,-0.32866 4.2998,0.56911 5.7156,0.24193 8.6727,-2.00417 4.8735,-3.70184 7.4025,-4.71822 11.7195,-4.71002 3.182,0.006 5.4964,0.50097 11.5458,2.46905 l 4.3579,1.4178 0.2297,3.2348 c 0.3263,4.59688 0.2799,9.16331 -0.1306,12.84889 -0.6048,5.43051 -0.9833,6.74136 -2.5015,8.66201 -0.7686,0.9723 -1.2744,1.76641 -1.124,1.76468 0.1503,-0.002 1.2051,-0.8007 2.344,-1.7755 3.5006,-2.9964 3.4392,-2.99736 7.0462,0.10902 1.1252,0.969 2.1119,1.69566 2.1928,1.6148 0.081,-0.0809 -0.4591,-0.85732 -1.1999,-1.72547 -0.7408,-0.86816 -1.4629,-1.97622 -1.6047,-2.46235 -0.1417,-0.48614 -0.7558,-2.15668 -1.3645,-3.71231 -1.0945,-2.79688 -1.1083,-2.91152 -1.2364,-10.27729 l -0.1296,-7.44886 6.8354,-3.22363 c 3.7595,-1.77299 7.8108,-3.49319 9.0029,-3.82266 2.0632,-0.57023 2.2672,-0.56774 4.2427,0.0518 4.6914,1.47128 13.5195,8.58238 14.7924,11.9154 1.4515,3.80088 0.031,14.66805 -3.754,28.71458 -2.1824,8.09947 -3.0369,10.63051 -4.9812,14.75525 -2.1037,4.46298 -0.8044,3.95519 -11.5834,4.52691 -8.7648,0.46489 -15.6336,1.37754 -18.3113,2.43299 -2.4012,0.94648 -3.1221,0.92491 -4.8465,-0.14502 z" style="fill:#ffffff;fill-opacity:1;stroke-width:1.64895" /></g></g></svg>