<svg class="svgDente" xmlns:dc="http://purl.org/dc/elements/1.1/" xmlns:cc="http://creativecommons.org/ns#" xmlns:rdf="http://www.w3.org/1999/02/22-rdf-syntax-ns#" xmlns:svg="http://www.w3.org/2000/svg" xmlns="http://www.w3.org/2000/svg" xmlns:sodipodi="http://sodipodi.sourceforge.net/DTD/sodipodi-0.dtd" xmlns:inkscape="http://www.inkscape.org/namespaces/inkscape" sodipodi:docname="dd43.svg" inkscape:version="1.0 (4035a4fb49, 2020-05-01)" id="svg8" version="1.1" viewBox="0 0 16.346059 54.095126" height="54.095127mm" width="16.34606mm"><g class="dente DD43" transform="translate(-61.8092,-111.06345)" id="layer1" inkscape:groupmode="layer" inkscape:label="Camada 1"><g transform="translate(-489.13205,-69.519957)" id="g1208"><path class="fundoDente fundoDD43" inkscape:connector-curvature="0" id="path1089" d="m 555.86938,234.14969 c -0.29873,-0.35994 -0.56127,-2.13151 -0.71885,-4.85069 -0.13653,-2.35601 -0.41617,-5.47428 -0.62142,-6.92949 -0.71376,-5.06059 -1.16101,-14.28524 -0.91812,-18.93698 l 0.24277,-4.64948 -1.33041,-3.81718 c -1.73047,-4.96502 -2.07529,-9.25651 -0.86654,-10.78455 2.82506,-3.06141 8.126,-4.54601 11.29536,-2.94675 0.96783,0.52676 2.8584,1.21721 3.04742,2.17223 l 1.28772,1.21448 -0.2205,2.91092 c -0.24471,3.2305 -1.30239,9.01605 -2.14448,11.73037 -0.31091,1.00217 -0.54908,3.05881 -0.55152,4.7625 -0.005,3.59164 -0.68322,7.68467 -2.10394,12.69999 -0.57711,2.0373 -1.28673,5.60917 -1.57693,7.9375 -0.63455,5.09121 -1.32672,7.5418 -2.53614,8.97911 -1.01683,1.20843 -1.5962,1.33728 -2.28442,0.50802 z" style="fill:#000000;stroke-width:0.352778" /><path class="coroaDente coroaDD43" inkscape:connector-curvature="0" transform="scale(0.26458333)" id="path966" d="m 2113.4251,771.36447 c -5.2231,-1.00915 -8.218,-2.62454 -11.7399,-6.33217 -3.6567,-3.84949 -5.2702,-7.26312 -5.962,-12.61332 -0.3897,-3.0136 -0.9886,-5.39086 -2.3156,-9.19147 -5.963,-17.07769 -8.0373,-27.6162 -7.0913,-36.02819 0.8163,-7.2586 2.8242,-11.40451 7.108,-14.67619 3.3305,-2.54358 6.7398,-4.34262 10.9852,-5.7967 10.247,-3.50972 13.5259,-3.70192 18.6687,-1.09428 3.9131,1.98412 10.6199,6.4423 13.2429,8.80288 3.0697,2.76251 3.9091,4.43097 4.0796,8.10917 0.1523,3.28504 -0.972,16.15369 -2.0562,23.53597 -1.3522,9.20657 -3.3626,17.73859 -5.9983,25.45584 -1.7555,5.14031 -5.5537,13.04163 -7.0274,14.61922 -0.5907,0.63245 -1.1848,1.49978 -1.32,1.9274 -0.4625,1.46265 -1.2469,2.30866 -2.6678,2.87719 -2.0157,0.80653 -5.028,0.9607 -7.9059,0.40465 z" style="fill:#ffffff;fill-opacity:1;stroke-width:1.64895" /><path class="raizDente raizDD43" inkscape:connector-curvature="0" transform="scale(0.26458333)" id="path968" d="m 2103.1833,883.60066 c -1.1189,-1.23636 -1.6086,-4.54834 -1.9574,-13.23797 -0.3622,-9.02429 -0.6773,-12.83705 -1.7562,-21.24595 -2.7925,-21.76592 -4.003,-41.00091 -4.4277,-70.35712 -0.1097,-7.58372 -0.2819,-14.58408 -0.3827,-15.55635 l -0.1831,-1.76776 2.213,2.47487 c 4.4597,4.98723 7.7215,7.55377 11.5261,9.06929 2.9225,1.16418 8.547,1.17502 11.5737,0.0223 2.3808,-0.90673 5.8176,-3.20955 9.0013,-6.03129 l 2.1318,-1.88946 -0.1999,2.24301 c -0.5596,6.27934 -1.3346,12.69609 -2.1284,17.62259 -1.111,6.89501 -6.4758,33.78449 -8.1472,40.83541 -1.5714,6.62914 -2.7465,13.17225 -3.6797,20.48882 -2.4842,19.47669 -5.1112,29.51841 -9.1048,34.80274 -1.2613,1.66891 -3.0062,3.21218 -3.6398,3.2192 -0.1157,10e-4 -0.4932,-0.31026 -0.839,-0.69232 z" style="fill:#ffffff;fill-opacity:1;stroke-width:1.64895" /></g></g></svg>