<svg class="svgDente" xmlns:dc="http://purl.org/dc/elements/1.1/" xmlns:cc="http://creativecommons.org/ns#" xmlns:rdf="http://www.w3.org/1999/02/22-rdf-syntax-ns#" xmlns:svg="http://www.w3.org/2000/svg" xmlns="http://www.w3.org/2000/svg" xmlns:sodipodi="http://sodipodi.sourceforge.net/DTD/sodipodi-0.dtd" xmlns:inkscape="http://www.inkscape.org/namespaces/inkscape" sodipodi:docname="dd44.svg" inkscape:version="1.0 (4035a4fb49, 2020-05-01)" id="svg8" version="1.1" viewBox="0 0 13.666798 46.808139" height="46.80814mm" width="13.666799mm"><g class="dente DD44" transform="translate(-19.446041,-51.373664)" id="layer1" inkscape:groupmode="layer" inkscape:label="Camada 1"><g transform="translate(-513.74909,-138.27879)" id="g1215"><path class="fundoDente fundoDD44" inkscape:connector-curvature="0" id="path1095" d="m 538.61526,235.60017 c -0.19434,-0.51115 -0.36031,-1.6731 -0.36883,-2.5821 -0.0224,-2.39353 -0.4947,-5.9087 -1.55476,-11.57242 -0.657,-3.51029 -1.02062,-6.9994 -1.23163,-11.81805 -0.2684,-6.12941 -0.39897,-7.11117 -1.26125,-9.48309 -0.52902,-1.45521 -0.97985,-3.25546 -1.00186,-4.00057 -0.044,-1.48869 0.70036,-2.31786 4.32583,-4.81887 1.9285,-1.40778 2.34227,-2.52578 4.73766,-0.78156 0.61422,0.46051 1.8503,1.2139 2.74683,1.67419 0.89653,0.46029 1.70999,1.14254 1.80768,1.51612 0.28043,1.07238 -0.74624,6.31233 -1.69358,8.64376 -0.83056,2.04402 -0.86221,2.42907 -0.86221,10.49037 0,12.28627 -0.64715,16.92342 -3.08639,22.11545 -0.79019,1.68195 -2.03809,1.98289 -2.55749,0.61677 z" style="fill:#000000;stroke-width:0.352778" /><path class="coroaDente coroaDD44" inkscape:connector-curvature="0" transform="scale(0.26458333)" id="path970" d="m 2039.9372,776.96216 c -7.3483,-1.77884 -13.5965,-8.33963 -17.5636,-18.44218 -1.8931,-4.82085 -3.8966,-12.67191 -4.1317,-16.19025 -0.1658,-2.48275 -0.089,-3.04097 0.6112,-4.41253 1.5889,-3.11449 5.4712,-6.38269 17.6859,-14.88856 l 5.8454,-4.07052 4.938,3.31443 c 2.7159,1.82294 6.688,4.289 8.827,5.48014 4.9273,2.74382 6.3375,4.14731 6.9198,6.88648 1.0472,4.92709 -1.7286,20.56243 -5.2459,29.54838 -2.2506,5.74987 -6.3683,11.1176 -9.6818,12.62121 -1.8403,0.83505 -5.134,0.89664 -8.2043,0.1534 z" style="fill:#ffffff;fill-opacity:1;stroke-width:1.64895" /><path class="raizDente raizDD44" inkscape:connector-curvature="0" transform="scale(0.26458333)" id="path972" d="m 2039.0551,890.54637 c -0.7038,-0.84799 -1.4251,-4.9293 -1.9796,-11.20081 -1.0237,-11.57829 -1.2794,-13.96281 -2.1609,-20.15254 -0.4847,-3.40296 -1.5039,-9.52827 -2.2649,-13.61181 -3.8904,-20.87522 -4.9641,-29.1568 -5.6611,-43.66384 -0.3833,-7.97938 -0.475,-26.23147 -0.138,-27.48878 0.2865,-1.06917 0.5982,-1.01114 2.5384,0.47256 2.2223,1.6995 6.7761,3.83895 10.1876,4.78637 5.4559,1.51518 8.984,0.88774 13.3108,-2.36722 1.3859,-1.04259 2.5327,-1.8612 2.5484,-1.81914 0.016,0.0421 -0.085,5.00855 -0.2231,11.03664 -1.4077,61.30635 -2.3079,71.92502 -7.3973,87.25227 -2.577,7.76113 -4.6683,12.93406 -6.2122,15.36659 -1.1931,1.87972 -1.8459,2.23578 -2.5481,1.38971 z" style="fill:#ffffff;fill-opacity:1;stroke-width:1.64895" /></g></g></svg>