<svg class="svgDente" xmlns:dc="http://purl.org/dc/elements/1.1/" xmlns:cc="http://creativecommons.org/ns#" xmlns:rdf="http://www.w3.org/1999/02/22-rdf-syntax-ns#" xmlns:svg="http://www.w3.org/2000/svg" xmlns="http://www.w3.org/2000/svg" xmlns:sodipodi="http://sodipodi.sourceforge.net/DTD/sodipodi-0.dtd" xmlns:inkscape="http://www.inkscape.org/namespaces/inkscape" sodipodi:docname="dd33.svg" inkscape:version="1.0 (4035a4fb49, 2020-05-01)" id="svg8" version="1.1" viewBox="0 0 16.614589 54.619903" height="54.619904mm" width="16.61459mm"><g class="dente DD33" transform="translate(-335.7869,-200.04674)" id="layer1" inkscape:groupmode="layer" inkscape:label="Camada 1"><g transform="translate(-313.85529,20.056451)" id="g1173"><path class="fundoDente fundoDD33" inkscape:connector-curvature="0" id="path1033" d="m 658.79006,233.65873 c -1.22364,-1.45421 -1.91398,-3.88918 -2.5505,-8.99617 -0.2902,-2.32833 -0.99982,-5.9002 -1.57693,-7.9375 -1.42072,-5.01532 -2.09878,-9.10835 -2.10394,-12.69999 -0.003,-1.70369 -0.24061,-3.76033 -0.55152,-4.7625 -0.84209,-2.71432 -1.89977,-8.49987 -2.14448,-11.73037 l -0.2205,-2.91092 c 2.73823,-2.80626 5.09636,-4.48083 7.20478,-4.63099 3.63817,1.08633 5.8838,2.00911 8.26447,4.22603 0.3442,0.30705 0.4476,0.7833 0.62322,1.15281 1.25867,2.64823 0.0142,5.07763 -1.33122,9.60461 l -1.33314,3.82506 0.24738,4.46522 c 0.26603,4.80211 -0.23848,14.40014 -1.07704,20.48981 -0.27851,2.02256 -0.50873,4.88006 -0.51159,6.35 -0.008,4.22272 -1.1822,5.64273 -2.93899,3.5549 z" style="fill:#000000;stroke-width:0.352778" /><path class="raizDente raizDD33" inkscape:connector-curvature="0" transform="scale(0.26458333)" id="path946" d="m 2492.7349,882.27364 c -4.5309,-4.93506 -7.2399,-14.55443 -10.0348,-35.63177 -1.3221,-9.97102 -2.9815,-18.36669 -5.0932,-25.76914 -4.7371,-16.60536 -7.3217,-31.01906 -8.4875,-47.33315 -0.3025,-4.2322 -0.55,-7.8618 -0.55,-8.06576 0,-0.20397 1.1203,0.6336 2.4894,1.86128 5.1232,4.59372 8.5533,6.26464 13.4685,6.56095 5.9316,0.3576 10.6352,-2.01362 16.7019,-8.41992 l 3.4917,-3.68707 -0.2337,13.43503 c -0.5316,30.56884 -1.5589,48.91088 -3.782,67.52869 -0.3948,3.30573 -1.0204,8.59636 -1.3903,11.75695 -0.3699,3.16061 -0.8373,9.76321 -1.0386,14.67247 -0.2014,4.90926 -0.5192,9.86096 -0.7063,11.00378 -0.6888,4.206 -2.2653,4.88671 -4.8351,2.08766 z" style="fill:#ffffff;fill-opacity:1;stroke-width:1.64895" /><path class="coroaDente coroaDD33" inkscape:connector-curvature="0" transform="scale(0.26458333)" id="path948" d="m 2481.4741,770.31011 c -6.8202,-2.15695 -11.8972,-8.5281 -14.652,-18.38682 -4.7411,-16.96672 -9.3589,-47.98544 -7.8323,-52.61092 0.494,-1.49691 2.0586,-3.17573 6.9803,-7.48974 4.4413,-3.89302 6.5635,-5.22202 10.2686,-6.4307 2.6386,-0.86076 3.2521,-0.92944 6.8943,-0.77178 5.0489,0.21854 8.9739,1.43598 15.5861,4.8345 8.2504,4.24053 13.0649,7.18453 13.7958,8.43604 1.1875,2.0333 1.6546,4.6553 1.6523,9.27437 0,8.98926 -2.5313,20.60521 -7.2523,33.34098 -1.9807,5.34344 -2.8614,8.72671 -3.3182,12.74693 -0.4028,3.54524 -1.3611,5.93106 -3.6971,9.2046 -3.9307,5.50848 -8.9015,8.3743 -14.4368,8.32345 -1.416,-0.013 -3.2108,-0.22492 -3.9887,-0.47091 z" style="fill:#ffffff;fill-opacity:1;stroke-width:1.64895" /></g></g></svg>