<svg class="svgDente svgDenteMolar" xmlns:dc="http://purl.org/dc/elements/1.1/" xmlns:cc="http://creativecommons.org/ns#" xmlns:rdf="http://www.w3.org/1999/02/22-rdf-syntax-ns#" xmlns:svg="http://www.w3.org/2000/svg" xmlns="http://www.w3.org/2000/svg" xmlns:sodipodi="http://sodipodi.sourceforge.net/DTD/sodipodi-0.dtd" xmlns:inkscape="http://www.inkscape.org/namespaces/inkscape" sodipodi:docname="dd48.svg" inkscape:version="1.0 (4035a4fb49, 2020-05-01)" id="svg8" version="1.1" viewBox="0 0 21.613791 40.11423" height="40.114231mm" width="21.613792mm"><g class="dente DD48" transform="translate(24.324472,-97.981303)" id="layer1" inkscape:groupmode="layer" inkscape:label="Camada 1"><g transform="translate(-457.81336,-92.911297)" id="g1248"><path class="fundoDente fundoDD48" inkscape:connector-curvature="0" id="path1073" d="m 439.60445,227.24287 c -0.0524,-1.37745 -0.48733,-4.90269 -0.9666,-7.83387 -1.06783,-6.53076 -1.16673,-7.21324 -1.46235,-10.09193 -0.17977,-1.75049 -0.55379,-2.83562 -1.58072,-4.58611 -1.45134,-2.47393 -2.10278,-4.42362 -2.10589,-6.30273 -0.002,-1.4935 1.9405,-4.23848 3.65285,-5.16064 1.10705,-0.59618 1.41297,-0.61451 3.28095,-0.19652 1.13304,0.25353 2.2201,0.52234 2.41569,0.59736 0.1956,0.075 1.20373,-0.50084 2.24029,-1.2797 3.99157,-1.52553 3.07241,-1.94501 5.66752,-0.97695 1.05495,0.39353 2.24761,1.21528 3.04529,2.09821 l 1.3112,1.45134 -0.22387,3.56166 c -0.12313,1.9589 -0.45665,4.51415 -0.74115,5.67831 -0.2845,1.16417 -0.52307,3.14855 -0.53015,4.40973 -0.0164,2.92687 -1.55731,8.65115 -3.51356,13.05277 -3.46434,7.79485 -3.83493,8.30939 -6.37647,8.85325 -0.6791,0.14532 -1.55847,0.36569 -1.95415,0.48969 -1.943,0.0179 -2.10337,-2.66337 -2.15888,-3.76387 z" style="fill:#000000;stroke-width:0.352778" /><path class="raizDente raizDD48" inkscape:connector-curvature="0" transform="scale(0.26458333)" id="path986" d="m 1676.5887,867.6571 c -0.7632,-0.76322 -0.7818,-0.94419 -0.5559,-5.42232 0.744,-14.74446 3.0487,-34.3744 6.6252,-56.42832 0.7726,-4.76414 1.5017,-10.37238 1.6203,-12.46276 0.2103,-3.70552 0.1969,-3.8007 -0.5345,-3.8007 -0.6015,0 -0.8561,0.36795 -1.2843,1.85615 -1.2606,4.38143 -4.9118,27.1551 -6.3628,39.68637 -3.2818,28.34241 -4.346,34.47146 -5.9855,34.47146 -0.7412,0 -1.8584,-1.69648 -2.8473,-4.32367 -1.9685,-5.22999 -8.4112,-40.91669 -11.1234,-61.61404 -0.9312,-7.10646 -1.9207,-17.50258 -1.6879,-17.73532 0.1031,-0.10309 4.2954,0.0545 9.3162,0.35025 12.2737,0.72294 15.4468,0.53057 34.9436,-2.11838 5.41,-0.73504 9.9687,-1.19299 10.5137,-1.05618 1.9208,0.48207 2.2092,1.528 2.2044,7.99276 0,6.53372 -0.5315,10.47772 -2.5043,18.75406 -3.3768,14.16601 -8.8181,28.66026 -17.5154,46.65643 -4.9643,10.27209 -6.9731,13.05586 -10.7083,14.83942 -2.4552,1.17234 -3.2295,1.23912 -4.1138,0.35479 z" style="fill:#ffffff;fill-opacity:1;stroke-width:1.64895" /><path class="coroaDente coroaDD48" inkscape:connector-curvature="0" transform="scale(0.26458333)" id="path988" d="m 1673.9582,779.81078 c -2.5279,-0.27168 -8.3884,-0.56664 -13.0233,-0.65547 -4.6349,-0.0888 -8.4765,-0.2142 -8.537,-0.2786 -0.2646,-0.28202 -4.3233,-7.87728 -6.0613,-11.34269 -3.4644,-6.90776 -4.7285,-11.26584 -4.7285,-16.30147 0,-3.65361 0.7909,-6.40317 2.6693,-9.27931 1.768,-2.70707 5.9491,-6.85543 8.7045,-8.63634 4.2885,-2.77179 4.8317,-2.73682 16.9823,1.09344 l 5.9054,1.86158 2.3179,-2.09067 c 7.8959,-7.12179 12.2642,-9.33589 18.3981,-9.3252 3.3196,0.006 6.0518,0.7196 9.0698,2.59835 2.1285,1.32498 4.3992,3.2294 7.1184,5.87361 l 4.5448,4.41942 -0.5686,8.48528 c -0.838,12.50439 -1.7651,19.9706 -3.3145,26.69328 l -0.6111,2.65165 -9.3568,0.1996 c -10.0683,0.21478 -11.106,0.39545 -13.0691,2.27527 -1.6051,1.53691 -3.4041,2.03345 -7.7782,2.14683 -2.2362,0.058 -6.1342,-0.11689 -8.6621,-0.38856 z m 3.6239,-30.0886 c 1.2113,-0.32461 0.9486,-0.90518 -0.3586,-0.79256 -0.6348,0.0547 -1.3507,-0.0221 -1.591,-0.17056 -0.2714,-0.16772 -0.4368,-0.0724 -0.4368,0.25175 0,0.80089 0.9716,1.09053 2.3864,0.71137 z" style="fill:#ffffff;fill-opacity:1;stroke-width:1.64895" /><path class="raizDente raizDD48" inkscape:connector-curvature="0" transform="scale(0.26458333)" id="path990" d="m 1667.5512,870.35225 c -1.385,-0.6028 -2.255,-1.81959 -2.255,-3.15385 v -1.02968 l 0.6979,0.88729 c 0.747,0.94965 2.985,1.68295 5.1363,1.68295 1.5372,0 1.3673,0.44579 -0.5408,1.41926 -1.607,0.81981 -1.6013,0.81945 -3.0384,0.19403 z" style="fill:#ffffff;fill-opacity:1;stroke-width:1.64895" /></g></g></svg>