<svg class="svgDente" xmlns:dc="http://purl.org/dc/elements/1.1/" xmlns:cc="http://creativecommons.org/ns#" xmlns:rdf="http://www.w3.org/1999/02/22-rdf-syntax-ns#" xmlns:svg="http://www.w3.org/2000/svg" xmlns="http://www.w3.org/2000/svg" xmlns:sodipodi="http://sodipodi.sourceforge.net/DTD/sodipodi-0.dtd" xmlns:inkscape="http://www.inkscape.org/namespaces/inkscape" sodipodi:docname="dd11.svg" inkscape:version="1.0 (4035a4fb49, 2020-05-01)" id="svg8" version="1.1" viewBox="0 0 17.833535 50.796936" height="50.796936mm" width="17.833534mm"><g class="dente DD11" transform="translate(-222.74029,-53.547681)" id="layer1" inkscape:groupmode="layer" inkscape:label="Camada 1"><g transform="translate(-365.74976,-59.807969)" id="g1056"><path class="fundoDente fundoDD11" inkscape:connector-curvature="0" id="path953" d="m 593.4812,163.45564 c -2.48387,0 -4.48827,-1.86274 -4.9509,-4.60099 -0.26436,-1.56478 0.81161,-6.40346 2.1098,-9.48781 0.69226,-1.64474 0.8927,-2.7307 0.89745,-4.86237 0.004,-1.50956 0.22466,-3.77653 0.49175,-5.03771 1.60647,-7.5855 2.06084,-12.0736 1.87763,-18.54652 -0.1044,-3.68856 -0.0409,-6.62505 0.15066,-6.96736 1.77863,-3.17824 6.91027,6.88093 8.72228,17.09764 0.39083,2.20358 0.80703,4.87964 0.92489,5.94679 0.11787,1.06716 0.27633,2.17841 0.35214,2.46945 0.0758,0.29104 0.23482,1.48166 0.35336,2.64583 0.11855,1.16417 0.366,3.22792 0.5499,4.58611 1.39145,10.27655 1.71279,15.58541 0.98728,16.31093 -5.04197,2.5301 -9.99148,0.005 -12.46624,0.44601 z" style="fill:#000000;stroke-width:0.352778" /><path class="raizDente raizDD11" inkscape:connector-curvature="0" transform="scale(0.26458333)" id="path882" d="m 2238.5339,545.06084 c 0.2689,-8.74829 0.6399,-12.11283 2.2028,-19.97577 2.8022,-14.09806 5.7809,-33.3389 6.5407,-42.24963 0.3121,-3.66027 0.3399,-9.555 0.1065,-22.62742 -0.3212,-17.99063 -0.3094,-24.54694 0.048,-26.60756 0.1158,-0.66785 0.5528,-1.38308 1.0401,-1.70239 1.8529,-1.21403 3.6471,0.7348 8.1611,8.86452 9.4458,17.01182 15.246,34.5486 19.2361,58.15953 3.2819,19.42078 6.3776,40.73141 6.3776,43.9033 0,0.8647 -0.1635,1.35153 -0.454,1.35153 -0.2497,0 -1.3236,-0.88905 -2.3865,-1.97567 -2.4683,-2.5235 -5.6596,-4.82067 -8.127,-5.84996 -1.625,-0.67786 -2.564,-0.8068 -5.8263,-0.80004 -3.2716,0.007 -4.3168,0.15605 -6.5831,0.94018 -5.1372,1.77741 -9.4491,4.77875 -15.8239,11.01435 l -4.7293,4.62609 z" style="fill:#ffffff;fill-opacity:1;stroke-width:1.64895" /><path class="coroaDente coroaDD11" inkscape:connector-curvature="0" transform="scale(0.26458333)" id="path884" d="m 2257.4981,615.91588 c -14.8101,-0.38567 -19.1194,-1.09805 -23.2244,-3.83927 -3.1639,-2.11278 -5.1606,-5.22385 -6.5104,-10.14376 -1.0724,-3.90918 -0.8221,-8.40925 0.8883,-15.96912 3.6491,-16.12902 9.3098,-28.55074 16.6258,-36.48348 7.2845,-7.89852 16.0135,-12.12695 22.5878,-10.94178 9.1379,1.6473 15.2818,12.22371 17.8873,30.79219 1.5357,10.94445 3.2118,31.39885 3.2118,39.19526 0,3.63964 -0.03,3.78238 -0.9722,4.66421 -1.5048,1.40782 -3.0146,2.02543 -5.8191,2.38029 -3.7904,0.47963 -14.0222,0.62287 -24.6749,0.34546 z" style="fill:#ffffff;fill-opacity:1;stroke-width:1.64895" /></g></g></svg>