<svg class="svgDente svgDenteMolar" xmlns:dc="http://purl.org/dc/elements/1.1/" xmlns:cc="http://creativecommons.org/ns#" xmlns:rdf="http://www.w3.org/1999/02/22-rdf-syntax-ns#" xmlns:svg="http://www.w3.org/2000/svg" xmlns="http://www.w3.org/2000/svg" xmlns:sodipodi="http://sodipodi.sourceforge.net/DTD/sodipodi-0.dtd" xmlns:inkscape="http://www.inkscape.org/namespaces/inkscape" sodipodi:docname="dd36.svg" inkscape:version="1.0 (4035a4fb49, 2020-05-01)" id="svg8" version="1.1" viewBox="0 0 24.623083 44.49298" height="44.492981mm" width="24.623081mm"><g class="dente DD36" transform="translate(-184.92585,-112.08082)" id="layer1" inkscape:groupmode="layer" inkscape:label="Camada 1"><g transform="translate(-520.92756,-80.129525)" id="g1152"><path class="fundoDente fundoDD36" inkscape:connector-curvature="0" id="path1045" d="m 713.34971,236.1517 c -1.71213,-0.78267 -3.3525,-2.86163 -4.14463,-5.2528 -1.42235,-4.2936 -1.98155,-13.16736 -1.20926,-19.18935 0.37006,-2.88556 0.33991,-3.32715 -0.39653,-5.80785 -1.16244,-3.91569 -1.61679,-6.05436 -1.72298,-8.11014 -0.0856,-1.65839 0.0204,-1.95057 1.16899,-3.22197 0.69475,-0.769 1.75084,-1.60019 2.34687,-1.84707 2.31843,-0.82255 2.29299,-0.67628 5.01675,0.59819 l 1.63107,0.82893 2.29782,-0.75432 c 2.74058,-0.89967 2.48803,-0.69314 3.87389,-0.31305 0.86812,0.23809 1.84511,0.73857 2.17395,1.10193 0.46937,0.51864 0.89099,0.61378 1.96143,0.44261 1.23848,-0.19804 1.47452,-0.10037 2.57355,1.06495 2.44567,2.59316 1.98671,6.99243 -1.22614,11.75297 -0.7706,1.14181 -1.04918,1.9682 -1.04918,3.11228 0,2.01978 0.95298,8.84358 1.45463,10.41589 0.21413,0.67112 0.50376,3.52209 0.64363,6.3355 0.19425,3.90727 0.41064,5.43218 0.91631,6.45719 0.78421,1.58965 0.4387,2.47599 -1.03357,2.65141 -0.68805,0.082 -1.21988,-0.17994 -1.94798,-0.95936 -1.54467,-1.65358 -3.86219,-6.40972 -5.32695,-10.93229 -1.4078,-4.34669 -2.50184,-6.54688 -3.5287,-7.09643 -0.89031,-0.47648 -1.19914,0.0409 -2.10651,3.52948 -2.05835,7.91363 -2.09364,8.81337 -0.48615,12.39535 1.4332,3.19359 0.8579,4.04966 -1.88031,2.79795 z" style="fill:#000000;stroke-width:0.352778" /><path class="coroaDente coroaDD36" inkscape:connector-curvature="0" transform="scale(0.26458333)" id="path934" d="m 2709.8696,792.01381 c -2.6244,-1.20919 -10.4557,-2.19516 -21.0364,-2.6485 -7.5219,-0.32229 -6.8866,-0.0421 -8.6662,-3.82199 -2.0123,-4.2741 -3.6823,-9.42615 -5.8236,-17.96626 -3.4388,-13.71483 -4.4924,-22.20872 -3.215,-25.91862 1.1958,-3.47285 10.8817,-11.04743 15.6407,-12.23131 2.2815,-0.56754 4.1916,0.0412 12.613,4.01999 l 6.8366,3.22999 -0.1191,8.66689 c -0.1167,8.49683 -0.1372,8.70504 -1.0438,10.61143 -0.5087,1.0695 -1.7417,2.86862 -2.7401,3.99805 -2.6323,2.9778 -2.3817,3.09948 0.8364,0.40616 1.6027,-1.34132 3.0383,-2.28289 3.4807,-2.28289 0.093,0 1.3292,0.94835 2.7477,2.10744 2.6298,2.14869 3.6712,2.56626 1.9689,0.7894 -0.5681,-0.59292 -1.3197,-2.17437 -1.8886,-3.97379 -0.8561,-2.70739 -0.9594,-3.63661 -1.0973,-9.86546 -0.084,-3.7821 -0.045,-7.87642 0.086,-9.09848 l 0.238,-2.22194 5.3641,-1.73144 c 2.9503,-0.95229 6.522,-1.92448 7.9372,-2.16042 4.9504,-0.82537 8.728,0.28187 13.1601,3.85732 3.9162,3.15925 5.0692,3.49288 9.8251,2.84296 4.0981,-0.56003 5.0986,-0.23876 7.5691,2.43053 4.7149,5.09414 6.5635,12.32483 5.0386,19.70735 -0.7968,3.85752 -2.7404,9.26166 -5.0749,14.11031 -2.2663,4.70703 -7.4749,12.7593 -8.4335,13.03776 -0.3387,0.0984 -3.4797,0.27981 -6.9799,0.40313 -8.7588,0.3086 -19.5762,2.05967 -22.761,3.68443 -1.7161,0.87549 -2.5937,0.87903 -4.4626,0.018 z" style="fill:#ffffff;fill-opacity:1;stroke-width:1.64895" /><path class="raizDente raizDD36" inkscape:connector-curvature="0" transform="scale(0.26458333)" id="path936" d="m 2699.4398,891.12297 c -2.9928,-1.21195 -4.6841,-2.29373 -6.9787,-4.46389 -4.0456,-3.82615 -7.7393,-9.63929 -9.43,-14.84081 -3.9252,-12.07606 -6.2637,-38.22788 -5.1915,-58.05686 0.5299,-9.79848 1.2807,-18.19233 1.8423,-20.59449 0.5058,-2.16381 -0.1771,-2.02609 7.3317,-1.47857 3.2232,0.23502 7.7851,0.90247 12.0823,1.76776 3.7971,0.76461 7.3177,1.39019 7.8234,1.39019 0.5057,0 1.5308,0.25544 2.278,0.56765 2.0142,0.84157 4.387,0.48824 8.1177,-1.20879 5.1961,-2.36354 6.5758,-2.58989 17.0382,-2.79517 l 9.2808,-0.1821 v 4.29414 c 0,7.63825 2.0219,23.35858 4.665,36.2706 2.5839,12.62289 3.1105,16.87501 3.1163,25.16313 0,6.28001 0.5959,15.40467 1.2017,18.53644 0.2783,1.43876 1.1552,4.65213 1.9487,7.14084 1.72,5.39489 1.8355,7.04539 0.5519,7.88645 -2.7959,1.83198 -6.9836,-1.77148 -12.2143,-10.51045 -4.818,-8.04961 -9.1517,-18.10812 -14.2998,-33.19039 -4.9915,-14.62332 -7.951,-20.77706 -11.9736,-24.89723 -1.8335,-1.87803 -5.216,-4.0847 -6.2707,-4.09083 -2.6906,-0.0156 -5.5971,7.10869 -10.0395,24.6081 -3.1502,12.40958 -4.1013,17.60869 -4.1246,22.54922 -0.032,6.80157 0.8297,10.08922 4.8787,18.60945 2.5827,5.4347 2.8001,6.13459 2.3858,7.68063 -0.2796,1.0432 -1.143,1.00991 -4.0198,-0.15502 z" style="fill:#ffffff;fill-opacity:1;stroke-width:1.64895" /></g></g></svg>