<svg class="svgDente" xmlns:dc="http://purl.org/dc/elements/1.1/" xmlns:cc="http://creativecommons.org/ns#" xmlns:rdf="http://www.w3.org/1999/02/22-rdf-syntax-ns#" xmlns:svg="http://www.w3.org/2000/svg" xmlns="http://www.w3.org/2000/svg" xmlns:sodipodi="http://sodipodi.sourceforge.net/DTD/sodipodi-0.dtd" xmlns:inkscape="http://www.inkscape.org/namespaces/inkscape" sodipodi:docname="dd32.svg" inkscape:version="1.0 (4035a4fb49, 2020-05-01)" id="svg8" version="1.1" viewBox="0 0 13.306371 47.180366" height="47.180367mm" width="13.306372mm"><g class="dente DD32" transform="translate(-60.770622,-108.42084)" id="layer1" inkscape:groupmode="layer" inkscape:label="Camada 1"><g transform="translate(-571.048,-70.662716)" id="g1180"><path class="fundoDente fundoDD32" inkscape:connector-curvature="0" id="path1007" d="m 637.84395,225.96568 c -0.87985,-0.55903 -2.64081,-6.76422 -3.44396,-12.13564 -0.28177,-1.88444 -0.60619,-6.01241 -0.72095,-9.17326 -0.11475,-3.16084 -0.42954,-7.73137 -0.69953,-10.15671 -1.00983,-9.07132 -1.3526,-13.62955 -1.06046,-14.10224 0.7483,-2.6841 6.73575,-0.4321 9.81258,-0.39347 1.23688,0.062 2.6434,1.07842 3.03104,2.19041 0.81115,2.32686 0.19557,8.49562 -1.20225,12.04785 -0.28786,0.73153 -0.52374,2.16028 -0.52418,3.175 -7e-4,2.05266 -0.97065,12.17867 -1.20225,12.55341 -0.27609,0.44672 -0.94112,5.85908 -1.2554,10.21705 -0.37833,5.24612 -1.11651,6.80571 -2.73464,5.7776 z" style="fill:#000000;stroke-width:0.352778" /><path class="coroaDente coroaDD32" inkscape:connector-curvature="0" transform="scale(0.26458333)" id="path950" d="m 2405.6369,756.71964 c -2.9045,-0.96618 -5.4908,-2.38613 -6.3612,-3.49253 -1.1588,-1.473 -1.6822,-2.95538 -2.4466,-6.9295 -1.6465,-8.55951 -5.3434,-44.21095 -6.2528,-60.29856 l -0.2471,-4.37223 8.4493,0.23395 c 20.1753,0.55863 27.3825,1.56748 32.3024,4.52161 1.063,0.63826 2.2876,1.68862 2.7214,2.33415 2.7402,4.07768 2.7028,16.74325 -0.088,29.76224 -2.578,12.02669 -7.0975,23.92249 -11.7102,30.82268 -1.989,2.97536 -5.0612,5.90981 -7.3516,7.02197 -2.3513,1.14169 -6.2584,1.3134 -9.0157,0.39622 z" style="fill:#ffffff;fill-opacity:1;stroke-width:1.64895" /><path class="raizDente raizDD32" inkscape:connector-curvature="0" transform="scale(0.26458333)" id="path952" d="m 2412.2415,851.48537 c -2.434,-2.68958 -9.2697,-26.51178 -10.9807,-38.26752 -2.1011,-14.43612 -4.6132,-48.223 -3.9689,-53.37987 0.3904,-3.12463 0.381,-3.12083 4.1595,-1.68217 6.6383,2.52748 10.4517,2.70417 14.5731,0.67522 2.9586,-1.45652 6.4745,-4.69762 8.7436,-8.06035 0.9444,-1.39958 1.9047,-2.66057 2.1338,-2.8022 1.1717,-0.72412 -1.5012,31.19673 -3.6144,43.16551 -3.0022,17.00359 -3.3599,19.80909 -4.7559,37.29988 -1.3646,17.09764 -2.1594,21.63058 -4.0256,22.95948 -1.2521,0.89156 -1.5307,0.90288 -2.2645,0.092 z" style="fill:#ffffff;fill-opacity:1;stroke-width:1.64895" /></g></g></svg>