<svg class="svgDente" xmlns:dc="http://purl.org/dc/elements/1.1/" xmlns:cc="http://creativecommons.org/ns#" xmlns:rdf="http://www.w3.org/1999/02/22-rdf-syntax-ns#" xmlns:svg="http://www.w3.org/2000/svg" xmlns="http://www.w3.org/2000/svg" xmlns:sodipodi="http://sodipodi.sourceforge.net/DTD/sodipodi-0.dtd" xmlns:inkscape="http://www.inkscape.org/namespaces/inkscape" sodipodi:docname="dd15.svg" inkscape:version="1.0 (4035a4fb49, 2020-05-01)" id="svg855" version="1.1" viewBox="0 0 14.622906 46.657899" height="46.657898mm" width="14.622906mm"><g class="dente DD15" transform="translate(0.17994133,-16.020555)" id="layer1" inkscape:groupmode="layer" inkscape:label="Camada 1"><g transform="translate(-511.37486,-93.535176)" id="g1026"><path class="fundoDente fundoDD15" inkscape:connector-curvature="0" id="path965" d="m 512.60257,152.03833 c -0.63639,-0.32893 -1.23634,-0.96814 -1.35594,-1.44466 -0.29729,-1.18452 0.74007,-5.5061 1.7604,-7.33368 1.08072,-1.93576 1.22422,-3.03378 1.62532,-12.43629 0.22624,-5.30355 0.55576,-8.82233 1.04064,-11.1125 0.41617,-1.96563 0.71106,-4.70525 0.71319,-6.62565 0.003,-2.63047 0.11121,-3.31555 0.55075,-3.48422 1.35504,-0.51997 3.80562,3.47474 5.22811,8.52237 1.1354,4.02891 1.5279,7.46857 1.61022,14.11111 0.0699,5.64109 0.366,8.44141 1.19589,11.3105 0.73588,2.54409 1.11297,7.64593 0.6316,8.54537 -0.21319,0.39836 -0.88718,0.834 -1.49776,0.96811 -0.61058,0.1341 -1.78474,0.67164 -2.60925,1.19453 -3.94295,4.23751 -3.33913,0.7155 -8.89317,-2.21499 z" style="fill:#000000;stroke-width:0.352778" /><path inkscape:connector-curvature="0" class="coroaDente coroaDD15" transform="scale(0.26458333)" id="path864" d="m 1957.1624,584.64496 c -0.9286,-0.49375 -2.8675,-1.80632 -4.3085,-2.91681 -4.2704,-3.29077 -9.3079,-6.73733 -12.1141,-8.28814 -1.4444,-0.79821 -3.4166,-2.21314 -4.3826,-3.14429 l -1.7565,-1.693 0.1934,-2.75533 c 0.3887,-5.53527 3.1666,-15.6592 5.9131,-21.54949 3.6471,-7.82165 9.316,-13.88283 15.0892,-16.13328 2.7818,-1.08434 7.1367,-2.01888 9.3719,-2.01113 2.8189,0.01 4.5159,0.75929 7.2322,3.19429 8.9613,8.0331 11.4016,15.58224 11.5543,35.74308 l 0.07,9.20938 -3.7123,1.31864 c -4.261,1.51355 -6.6189,2.66708 -12.0911,5.91533 -4.4611,2.6481 -7.3625,4.00849 -8.5492,4.00849 -0.4516,0 -1.5809,-0.40398 -2.5095,-0.89774 z" style="fill:#ffffff;fill-opacity:1;stroke-width:1.64895" /><path inkscape:connector-curvature="0" class="raizDente raizDD15" transform="scale(0.26458333)" id="path866" d="m 1946.7761,517.92598 c 0.3022,-14.63113 1.1831,-30.13374 2.6165,-46.05069 0.7601,-8.43994 1.4286,-13.59105 2.6384,-20.32932 1.5696,-8.74166 2.1194,-14.18555 2.3213,-22.98097 0.2109,-9.18453 0.3416,-10.61857 1.0516,-11.53114 0.4938,-0.63483 0.5896,-0.58961 2.0184,0.95307 1.7173,1.8542 6.1899,9.55904 8.3408,14.36844 6.4684,14.46366 9.7779,32.85063 10.995,61.08667 0.4669,10.83114 0.8674,35.17856 0.5787,35.17856 -0.1312,0 -1.4362,-0.80822 -2.9001,-1.79606 -4.3716,-2.94992 -5.8432,-3.49979 -9.377,-3.50378 -4.1152,-0.005 -8.9304,1.27242 -14.0475,3.72567 -2.2115,1.06025 -4.1207,1.92789 -4.2426,1.92809 -0.122,2.1e-4 -0.119,-4.97164 0.01,-11.04854 z" style="fill:#ffffff;fill-opacity:1;stroke-width:1.64895" /></g></g></svg>