<svg class="svgDente" xmlns:dc="http://purl.org/dc/elements/1.1/" xmlns:cc="http://creativecommons.org/ns#" xmlns:rdf="http://www.w3.org/1999/02/22-rdf-syntax-ns#" xmlns:svg="http://www.w3.org/2000/svg" xmlns="http://www.w3.org/2000/svg" xmlns:sodipodi="http://sodipodi.sourceforge.net/DTD/sodipodi-0.dtd" xmlns:inkscape="http://www.inkscape.org/namespaces/inkscape" sodipodi:docname="dd14.svg" inkscape:version="1.0 (4035a4fb49, 2020-05-01)" id="svg855" version="1.1" viewBox="0 0 15.146529 46.043119" height="46.043118mm" width="15.146528mm"><g class="dente DD14" transform="translate(-181.23489,-62.546614)" id="layer1" inkscape:groupmode="layer" inkscape:label="Camada 1"><g transform="translate(-348.58305,-47.639546)" id="g1035"><path class="fundoDente fundoDD14" inkscape:connector-curvature="0" id="path973" d="m 535.68022,155.28586 c -0.34959,-0.19565 -1.14202,-0.79603 -1.76095,-1.33419 -0.61892,-0.53816 -1.70659,-1.1676 -2.41704,-1.39878 -0.71045,-0.23116 -1.38513,-0.66373 -1.4993,-0.96126 -0.53718,-1.39984 0.15338,-6.07893 1.3257,-8.98273 0.26688,-0.66105 0.44202,-1.75753 0.3892,-2.43663 -0.44713,-5.74925 -0.29206,-9.27693 0.77538,-17.63889 0.53427,-4.18525 0.50767,-7.75347 -0.0822,-11.0243 -0.21633,-1.1996 -0.16634,-1.32292 0.53633,-1.32292 0.4262,0 1.07234,0.15918 1.43586,0.35373 0.44183,0.23646 0.73344,0.23646 0.87958,0 0.12024,-0.19455 0.51444,-0.35373 0.87599,-0.35373 0.77494,0 1.24976,1.30486 1.60159,4.40135 0.13176,1.15957 0.67757,3.22332 1.21292,4.58611 1.7343,4.41487 3.062,11.28062 3.3444,17.29448 0.12511,2.66428 0.40306,4.45508 0.8868,5.71358 0.77183,2.00797 1.77953,6.46798 1.77999,7.87806 3.5e-4,1.30435 -0.87721,2.34674 -2.62777,3.12109 -0.84988,0.37595 -2.12196,1.07543 -2.82682,1.5544 -1.62309,1.38878 -0.83012,2.25668 -3.82966,0.55063 z" style="fill:#000000;stroke-width:0.352778" /><path class="coroaDente coroaDD14" inkscape:connector-curvature="0" transform="scale(0.26458333)" id="path868" d="m 2026.6078,584.53722 c -3.1818,-1.61402 -6.0071,-3.70718 -8.5488,-6.33336 -2.487,-2.5698 -2.5021,-2.57747 -8.1351,-4.13804 -3.5815,-0.99222 -5.2096,-3.11857 -5.2145,-6.81001 0,-2.29501 2.0005,-13.51726 3.34,-18.70796 2.0595,-7.98038 4.0664,-12.26412 8.2797,-17.67293 4.3729,-5.61367 8.3597,-8.82349 12.5341,-10.09144 11.9453,-3.62826 21.681,9.64987 26.565,36.23097 1.1692,6.36326 1.4548,10.22703 0.9066,12.26479 -0.6402,2.3795 -2.9311,4.33198 -8.5041,7.24785 -2.6016,1.36118 -6.5671,3.63147 -8.8123,5.04508 -6.6478,4.18557 -8.9298,4.73077 -12.4106,2.96505 z" style="fill:#ffffff;fill-opacity:1;stroke-width:1.64895" /><path class="raizDente raizDD14" inkscape:connector-curvature="0" transform="scale(0.26458333)" id="path870" d="m 2012.1455,526.23412 c -0.6578,-4.68583 -0.8763,-19.98297 -0.3888,-27.22224 0.5015,-7.44619 1.4638,-17.26471 2.6942,-27.49015 1.9501,-16.20594 2.0588,-17.84355 2.0636,-31.11269 0,-10.92596 -0.085,-13.15339 -0.6323,-15.73313 -1.1299,-5.33005 -1.1294,-5.3033 -0.09,-5.3033 2.5549,0 7.0265,5.5948 11.1618,13.96536 10.8555,21.97365 19.2647,57.10738 20.0765,83.88054 0.1135,3.74324 0.085,6.8059 -0.064,6.8059 -0.1485,0 -0.9275,-0.66236 -1.731,-1.47192 -1.6547,-1.66703 -6.1196,-3.9022 -8.9915,-4.50124 -4.2387,-0.88416 -8.5435,-0.27605 -12.7989,1.80803 -1.7929,0.87808 -3.1978,2.04253 -6.3907,5.29697 -2.251,2.2943 -4.1788,4.17146 -4.2839,4.17146 -0.1052,0 -0.3867,-1.39212 -0.6256,-3.09359 z" style="fill:#ffffff;fill-opacity:1;stroke-width:1.64895" /><path class="raizDente raizDD14" inkscape:connector-curvature="0" transform="scale(0.26458333)" id="path872" d="m 2027.446,427.57109 c -0.6195,-0.83833 -1.5596,-2.62867 -2.0892,-3.97853 -0.8024,-2.04516 -0.8959,-2.60146 -0.5607,-3.33712 0.6458,-1.41743 1.7565,-1.14528 2.5293,0.61977 0.8375,1.91287 1.5158,5.38546 1.3641,6.98409 l -0.1172,1.23603 z" style="fill:#ffffff;fill-opacity:1;stroke-width:1.64895" /></g></g></svg>