<svg class="svgDente" xmlns:dc="http://purl.org/dc/elements/1.1/" xmlns:cc="http://creativecommons.org/ns#" xmlns:rdf="http://www.w3.org/1999/02/22-rdf-syntax-ns#" xmlns:svg="http://www.w3.org/2000/svg" xmlns="http://www.w3.org/2000/svg" xmlns:sodipodi="http://sodipodi.sourceforge.net/DTD/sodipodi-0.dtd" xmlns:inkscape="http://www.inkscape.org/namespaces/inkscape" sodipodi:docname="dd41.svg" inkscape:version="1.0 (4035a4fb49, 2020-05-01)" id="svg8" version="1.1" viewBox="0 0 11.244213 44.898841" height="44.898842mm" width="11.244213mm"><g class="dente DD41" transform="translate(-132.64094,19.248465)" id="layer1" inkscape:groupmode="layer" inkscape:label="Camada 1"><g transform="translate(-458.83144,-198.83593)" id="g1194"><path class="fundoDente fundoDD41" inkscape:connector-curvature="0" id="path1057" d="m 595.27633,223.69276 c 0,0.51732 -0.59928,-1.50812 -0.71496,-2.38124 -0.11568,-0.87313 -0.28273,-2.06375 -0.37122,-2.64584 -0.0885,-0.58208 -0.25316,-3.59833 -0.36593,-6.70277 -0.11277,-3.10445 -0.33655,-6.59695 -0.49729,-7.76112 -0.16074,-1.16416 -0.32292,-3.61575 -0.36041,-5.44796 -0.0375,-1.83222 -0.22157,-4.1341 -0.4091,-5.11528 -0.18752,-0.98119 -0.50837,-4.31328 -0.713,-7.40466 l -0.37204,-5.62068 c 1.33397,-1.2538 6.20249,-1.20085 9.76037,-0.67451 1.84672,0.45393 1.86242,0.75577 0.63818,12.26834 -0.28886,2.71638 -0.58922,5.73263 -0.66746,6.70277 -0.22244,2.75809 -0.85336,8.57213 -1.22502,11.28889 -1.97924,14.46772 -1.93741,14.2875 -3.31612,14.2875 -0.52931,0 -1.386,-1.35862 -1.386,-0.79375 z" style="fill:#000000;stroke-width:0.352778" /><path class="coroaDente coroaDD41" inkscape:connector-curvature="0" transform="scale(0.26458333)" id="path958" d="m 2256.4358,755.48579 c -6.7148,-1.8452 -12.0111,-11.44047 -14.2795,-25.87009 -2.0533,-13.06126 -3.1467,-27.47073 -2.9778,-39.24442 l 0.1116,-7.77818 1.9445,-0.0975 c 1.0695,-0.0536 4.3159,-0.41156 7.2141,-0.79549 6.8429,-0.90647 11.7936,-0.89657 16.1204,0.0322 1.8474,0.39654 5.1057,0.96138 7.2409,1.25521 2.1351,0.29383 3.9079,0.56392 3.9395,0.6002 0.103,0.1183 -2.9892,40.56011 -3.5735,46.73501 -1.2981,13.71933 -2.6795,19.78026 -4.998,21.929 -0.5194,0.48135 -1.3095,0.87519 -1.7557,0.87519 -0.4463,0 -0.9116,0.16213 -1.0341,0.36028 -0.3875,0.62707 -3.4752,2.02096 -4.9456,2.23259 -0.7778,0.11196 -2.1309,0.007 -3.0068,-0.23408 z" style="fill:#ffffff;fill-opacity:1;stroke-width:1.64895" /><path class="raizDente raizDD41" inkscape:connector-curvature="0" transform="scale(0.26458333)" id="path960" d="m 2252.2532,844.75572 c -0.9501,-0.95006 -2.7773,-8.71619 -3.2164,-13.6702 -0.7842,-8.84886 -5.3927,-83.31429 -5.1699,-83.5371 0.074,-0.0736 0.5462,0.56998 1.0503,1.43014 1.1037,1.88335 5.5679,5.32222 9.3989,7.24027 2.4767,1.24001 2.8618,1.32759 5.8374,1.32759 h 3.1858 l 2.7571,-1.71748 c 1.5164,-0.94461 2.8376,-1.63696 2.936,-1.53855 0.8173,0.81733 -6.049,57.04431 -9.5955,78.57585 -1.4674,8.90898 -1.9955,10.83915 -3.2319,11.81166 -1.1542,0.9079 -3.0838,0.94589 -3.9518,0.0778 z" style="fill:#ffffff;fill-opacity:1;stroke-width:1.64895" /></g></g></svg>