<svg class="svgDente svgDenteMolar" xmlns:dc="http://purl.org/dc/elements/1.1/" xmlns:cc="http://creativecommons.org/ns#" xmlns:rdf="http://www.w3.org/1999/02/22-rdf-syntax-ns#" xmlns:svg="http://www.w3.org/2000/svg" xmlns="http://www.w3.org/2000/svg" xmlns:sodipodi="http://sodipodi.sourceforge.net/DTD/sodipodi-0.dtd" xmlns:inkscape="http://www.inkscape.org/namespaces/inkscape" sodipodi:docname="dd17.svg" inkscape:version="1.0 (4035a4fb49, 2020-05-01)" id="svg855" version="1.1" viewBox="0 0 22.7402 44.702908" height="44.702908mm" width="22.7402mm"> <g transform="translate(-69.51681,-94.821164)" id="layer1" inkscape:groupmode="layer" inkscape:label="Camada 1"> <g transform="translate(-386.81733,-10.810643)" class="dente DD17"> <path inkscape:connector-curvature="0" class="fundoDente fundoDD17" d="m 467.06189,148.59358 -1.54201,0.70247 c -3.41262,1.55462 -4.33195,1.29801 -7.50587,-2.09518 l -1.67987,-1.79591 0.14639,-3.06197 c 0.12709,-2.65809 0.30112,-3.34054 1.3194,-5.17396 0.64515,-1.1616 1.39879,-2.53925 1.67475,-3.06144 0.73686,-1.39435 1.28322,-7.05824 1.02346,-10.60981 -0.1244,-1.70092 -0.63065,-4.47905 -1.12499,-6.17361 -1.08868,-3.73194 -1.06771,-7.25131 0.0481,-8.06719 0.97389,-0.71213 1.71091,0.16402 2.82828,3.3622 0.50113,1.43435 1.36341,3.49777 1.91618,4.58538 0.91869,1.80762 1.02273,1.90172 1.21118,1.09553 0.38761,-1.65821 0.91853,-6.85814 0.91853,-8.99628 0,-3.70833 1.57447,-4.75136 3.72701,-2.469 0.64047,0.6791 1.30533,1.23473 1.47746,1.23473 0.17213,0 0.94799,0.54355 1.72414,1.2079 1.66692,1.42683 3.41867,4.55421 4.17288,7.44981 0.64565,2.47881 0.70469,8.17897 0.14931,14.41457 -0.36527,4.10123 -0.34259,4.5345 0.34674,6.62125 1.58302,4.86857 2.13555,8.20575 -1.9807,10.96904 -3.19573,2.06359 -4.21927,2.25604 -8.85037,-0.13853 z" style="fill:#000000;stroke-width:0.352778"/> <path inkscape:connector-curvature="0" class="coroaDente coroaDD17" transform="scale(0.26458333)" d="m 1745.3732,564.56743 c -2.2931,-1.07911 -9.9489,-6.84614 -12.8021,-9.64365 -3.8008,-3.72675 -4.9269,-7.51062 -4.5136,-15.16624 0.4787,-8.86841 1.6641,-14.4432 4.2214,-19.85359 3.5231,-7.45386 7.3871,-9.11257 19.2818,-8.27702 6.5042,0.4569 12.6428,0.45396 15.0285,-0.007 4.6358,-0.89608 4.9662,-0.87072 7.7043,0.59131 l 2.5488,1.36088 4.4194,-0.007 c 2.4307,-0.004 7.2036,-0.0781 10.6066,-0.16546 7.3914,-0.18969 7.7266,-0.0695 10.3268,3.70204 3.0067,4.36118 4.9501,10.16861 5.6432,16.8639 0.3344,3.2296 0.2803,4.83517 -0.3867,11.49049 l -0.7754,7.73631 -1.3052,1.19495 c -12.5161,11.45929 -17.0027,12.70089 -29.7148,8.22316 -7.9697,-2.80724 -9.2161,-4.56868 -9.2367,-13.05338 0,-1.71487 -0.2153,-3.4265 -0.5096,-4.13082 -0.504,-1.20635 -2.4328,-2.71874 -4.0937,-3.20994 -0.7911,-0.23399 -0.7312,-0.0954 0.572,1.3212 1.9941,2.16771 2.3996,3.59022 2.3998,8.4174 10e-5,3.19972 -0.1322,4.3148 -0.6211,5.23445 -1.046,1.96761 -6.2849,5.02721 -11.9265,6.96534 -3.7835,1.29978 -4.8461,1.36361 -6.8672,0.41251 z" style="fill:#ffffff;fill-opacity:1;stroke-width:1.64895"/> <path inkscape:connector-curvature="0" transform="scale(0.26458333)" class="raizDente raizDD17" d="m 1777.1392,510.10874 c -0.809,-0.26768 -2.0023,-0.86565 -2.6517,-1.32884 -1.3577,-0.96834 -2.9365,-1.03961 -8.4286,-0.38052 -1.8678,0.22415 -8.5878,0.40733 -15.1383,0.41265 -11.0563,0.009 -11.768,-0.0284 -11.5931,-0.60913 3.09,-10.25756 4.2802,-20.96292 3.9997,-35.97406 -0.2264,-12.1165 -1.0122,-17.38853 -4.5184,-30.31458 -2.1135,-7.79204 -2.9238,-13.42939 -2.7322,-19.01077 0.1143,-3.33221 0.2867,-4.37429 0.9504,-5.74525 0.4459,-0.92109 1.0054,-1.67472 1.2433,-1.67472 1.2827,0 3.4322,3.6779 5.6823,9.72272 2.1635,5.81188 4.2469,10.72038 8.8376,20.82092 6.7518,14.85553 8.3784,18.75241 12.2652,29.38366 3.5674,9.75746 4.5645,11.11329 6.9326,9.42702 4.1131,-2.92875 7.4804,-9.12042 10.7993,-19.85684 3.2524,-10.52177 4.1084,-18.62193 2.915,-27.58496 -0.6832,-5.13137 -1.6484,-8.69233 -4.259,-15.71416 -2.8479,-7.66016 -3.1558,-8.80087 -2.6371,-9.77009 0.324,-0.60544 0.6093,-0.70427 1.5119,-0.52374 4.737,0.9474 13.3035,10.24588 17.1475,18.6127 6.0876,13.25026 7.2368,28.16379 4.8068,62.38063 -0.5461,7.68985 -1.4199,16.41273 -1.6691,16.66193 -0.3021,0.3021 -11.2903,1.22267 -16.5132,1.38343 -4.086,0.12577 -5.8543,0.0449 -6.9509,-0.318 z" style="fill:#ffffff;fill-opacity:0.986667;stroke-width:1.64895"/> <path inkscape:connector-curvature="0" transform="scale(0.26458333)" class="raizDente raizDD17" d="m 1770.6739,481.9868 c -0.1977,-0.36953 -1.2531,-3.19354 -2.3452,-6.27558 -1.0922,-3.08203 -3.1847,-8.54703 -4.65,-12.14444 -3.2756,-8.04161 -3.4116,-9.07278 -2.1013,-15.93235 1.599,-8.37064 2.3778,-15.38188 3.2569,-29.32248 0.6362,-10.08696 1.0166,-13.13291 1.8538,-14.84373 0.5475,-1.11879 0.7695,-1.25345 2.2226,-1.34806 1.3398,-0.0872 1.9094,0.0932 3.3485,1.06066 0.9917,0.66674 2.1925,1.91034 2.805,2.90512 0.9829,1.59633 1.0777,2.03048 1.1532,5.28009 0.092,3.95879 0.4207,5.32952 2.9802,12.426 4.2186,11.6969 5.0586,21.84913 2.743,33.15174 -0.9497,4.63557 -3.8234,13.30183 -5.7911,17.46421 -1.4324,3.03003 -4.561,8.25068 -4.9445,8.25068 -0.094,0 -0.3333,-0.30234 -0.5311,-0.67186 z" style="fill:#ffffff;fill-opacity:1;stroke-width:1.64895"/></g></g></svg>