<svg class="svgDente" xmlns:dc="http://purl.org/dc/elements/1.1/" xmlns:cc="http://creativecommons.org/ns#" xmlns:rdf="http://www.w3.org/1999/02/22-rdf-syntax-ns#" xmlns:svg="http://www.w3.org/2000/svg" xmlns="http://www.w3.org/2000/svg" xmlns:sodipodi="http://sodipodi.sourceforge.net/DTD/sodipodi-0.dtd" xmlns:inkscape="http://www.inkscape.org/namespaces/inkscape" sodipodi:docname="dd13.svg" inkscape:version="1.0 (4035a4fb49, 2020-05-01)" id="svg855" version="1.1" viewBox="0 0 19.916122 57.692831" height="57.692829mm" width="19.916121mm"><g class="dente DD13" transform="translate(-245.36017,-56.378771)" id="layer1" inkscape:groupmode="layer" inkscape:label="Camada 1"><g transform="translate(-302.42687,-49.29738)" id="g1042"><path class="fundoDente fundoDD13" inkscape:connector-curvature="0" id="path987" d="m 551.45892,159.06582 c -2.58038,-1.21176 -3.67188,-2.63903 -3.67188,-4.80141 0,-1.64746 1.2494,-5.65107 2.25094,-7.21293 0.24884,-0.38806 0.73544,-1.50225 1.08135,-2.47599 0.54054,-1.52165 0.57679,-2.14133 0.25796,-4.40973 -0.49646,-3.53219 -0.26232,-13.55185 0.44912,-19.21984 0.61456,-4.89607 0.49942,-8.58614 -0.36196,-11.60043 -0.61135,-2.13934 -0.35119,-3.32859 0.79086,-3.61523 0.62135,-0.15594 1.11777,0.0175 1.77573,0.62044 1.12816,1.0338 4.08376,7.14971 4.83705,10.00911 0.30669,1.16417 0.96201,3.46605 1.45627,5.11528 1.15232,3.84508 2.46316,10.43404 3.21195,16.14491 0.3694,2.81738 0.89765,5.20035 1.41665,6.39067 0.45518,1.04394 1.29711,4.15579 1.87096,6.91522 1.4935,7.18171 1.68639,7.24949 -4.34399,10.58952 -6.55536,3.73935 -3.19003,1.25473 -11.02101,-2.44959 z" style="fill:#000000;stroke-width:0.352778" /><path class="raizDente raizDD13" inkscape:connector-curvature="0" transform="scale(0.26458333)" id="path874" d="m 2087.6285,534.60174 c -1.5235,-5.03042 -1.7548,-8.78644 -1.7618,-28.60855 -0.01,-19.50128 0.082,-21.47928 1.749,-38.89087 1.4455,-15.09893 1.7,-19.56377 1.7227,-30.22882 0.023,-10.75636 -0.3546,-15.80189 -1.5756,-21.05576 -1.9488,-8.3862 -2.225,-10.16222 -1.8006,-11.57882 0.5428,-1.81178 1.649,-2.33527 3.7936,-1.79525 1.39,0.35 1.7558,0.67034 3.1297,2.74061 3.3122,4.99109 9.7954,17.3495 13.4549,25.64778 1.2611,2.8597 2.2801,5.83154 2.7278,7.95496 0.393,1.86438 1.4209,5.59979 2.2841,8.30092 2.2735,7.11384 3.6976,12.30178 6.6314,24.15784 3.6137,14.60365 5.3325,22.81747 6.9733,33.32498 1.4681,9.40162 3.5904,25.48556 3.3894,25.68659 -0.064,0.0638 -1.4999,-0.90402 -3.1915,-2.15065 -4.85,-3.5744 -9.9033,-5.04271 -15.9129,-4.62376 -7.3254,0.51068 -13.6014,4.13085 -19.5823,11.29558 l -1.4512,1.73849 z" style="fill:#ffffff;fill-opacity:1;stroke-width:1.64895" /><path class="coroaDente coroaDD13" inkscape:connector-curvature="0" transform="scale(0.26458333)" id="path876" d="m 2107.2508,613.45994 c -1.2569,-0.81561 -4.2002,-2.95457 -6.5408,-4.75324 -5.4908,-4.21963 -11.1913,-7.94248 -17.1428,-11.19549 -5.6237,-3.07388 -8.3837,-5.50528 -9.3722,-8.2562 -0.4339,-1.20755 -0.685,-3.16832 -0.7922,-6.18719 -0.1381,-3.89092 -0.05,-4.83265 0.7342,-7.87505 1.364,-5.28939 5.2271,-14.50409 12.0496,-28.74184 3.256,-6.79483 4.6276,-8.78579 8.8009,-12.77552 5.2757,-5.04363 10.2404,-7.17613 16.7068,-7.17613 7.7664,0 12.1511,2.97718 17.0513,11.57756 4.4818,7.86605 7.1078,15.26353 9.9314,27.97625 2.8354,12.76613 3.5626,16.86282 3.8061,21.44179 0.294,5.52816 -0.2705,7.33966 -3.1876,10.22923 -4.7018,4.65746 -24.3379,16.35871 -28.5815,17.0319 -0.9628,0.15273 -1.5955,-0.084 -3.4632,-1.29607 z" style="fill:#ffffff;fill-opacity:1;stroke-width:1.64895" /></g></g></svg>