<svg class="svgDente svgDenteMolar" xmlns:dc="http://purl.org/dc/elements/1.1/" xmlns:cc="http://creativecommons.org/ns#" xmlns:rdf="http://www.w3.org/1999/02/22-rdf-syntax-ns#" xmlns:svg="http://www.w3.org/2000/svg" xmlns="http://www.w3.org/2000/svg" xmlns:sodipodi="http://sodipodi.sourceforge.net/DTD/sodipodi-0.dtd" xmlns:inkscape="http://www.inkscape.org/namespaces/inkscape" sodipodi:docname="dd27.svg" inkscape:version="1.0 (4035a4fb49, 2020-05-01)" id="svg8" version="1.1" viewBox="0 0 23.007061 45.909122" height="45.909122mm" width="23.007059mm"><g class="dente DD27" transform="translate(-118.15437,36.944326)" id="layer1" inkscape:groupmode="layer" inkscape:label="Camada 1"><g transform="translate(-619.43404,-142.57614)" id="g1119"><path class="fundoDente fundoDD27" inkscape:connector-curvature="0" id="path927" d="m 737.58841,146.03061 c 0.0131,-2.05597 0.70941,-6.03094 1.44824,-8.26754 0.68932,-2.08674 0.71201,-2.52002 0.34674,-6.62125 -0.55538,-6.2356 -0.49634,-11.93576 0.14931,-14.41457 0.75421,-2.8956 2.50596,-6.02298 4.17288,-7.44981 0.77615,-0.66434 1.55201,-1.2079 1.72414,-1.2079 0.17213,0 0.83699,-0.55563 1.47746,-1.23472 2.15254,-2.28236 3.72701,-1.23934 3.72701,2.469 0,2.13813 0.53092,7.33806 0.91853,8.99627 0.18845,0.80619 0.29249,0.71209 1.21118,-1.09552 0.55277,-1.08761 1.41504,-3.15104 1.91618,-4.58539 1.11737,-3.19817 1.85439,-4.07433 2.82828,-3.3622 1.11579,0.81588 1.13676,4.33525 0.0481,8.06719 -0.49434,1.69456 -1.00059,4.47269 -1.12499,6.17361 -0.25976,3.55157 0.2866,9.21546 1.02346,10.60981 0.27596,0.5222 1.02959,1.89984 1.67475,3.06144 1.01828,1.83342 1.19231,2.51587 1.3194,5.17396 l 0.14639,3.06197 -1.67987,1.79592 c -3.17392,3.39318 -4.09325,3.6498 -7.50587,2.09517 l -1.54201,-0.70247 -2.26128,1.16923 c -3.98652,3.26759 -9.77032,2.03626 -10.01803,-3.7322 z" style="fill:#000000;stroke-width:0.352778" /><path class="coroaDente coroaDD27" inkscape:connector-curvature="0" transform="scale(0.26458333)" id="path914" d="m 2807.7411,570.62987 c -3.7588,-0.56834 -8.6587,-2.89969 -10.7962,-5.13682 -0.5186,-0.54273 -2.2763,-3.18325 -3.9061,-5.86782 l -2.9632,-4.88103 0.2723,-2.19003 c 0.1498,-1.20452 0.6034,-4.97427 1.0079,-8.37722 2.0722,-17.43276 5.2786,-28.31053 8.9336,-30.30734 1.0119,-0.55285 1.8746,-0.60926 7.161,-0.46821 3.3057,0.0882 8.0787,0.16776 10.6066,0.17678 l 4.5962,0.0164 2.4277,-1.36619 c 2.6075,-1.46737 3.5089,-1.53951 7.6485,-0.61205 2.1056,0.47174 8.5763,0.47625 15.2054,0.0106 11.7464,-0.82514 15.6253,0.79519 19.0985,7.97806 3.0226,6.25089 4.3799,13.79581 4.166,23.15775 -0.1261,5.52039 -0.1861,5.94252 -1.1169,7.86161 -0.5549,1.14415 -1.9159,2.96024 -3.1227,4.16707 -2.9083,2.90832 -11.4556,9.28833 -13.4785,10.06089 -1.5389,0.5877 -1.7883,0.59154 -3.9039,0.0601 -4.714,-1.1841 -12.1207,-4.88607 -13.6398,-6.8173 -1.1733,-1.49162 -1.5412,-3.51733 -1.3398,-7.37744 0.2211,-4.23883 0.5511,-5.1959 2.4685,-7.15946 1.6194,-1.65835 1.2319,-1.94597 -0.9448,-0.70129 -2.6997,1.54376 -3.2971,3.28199 -3.3621,9.78206 -0.041,4.09562 -0.7597,5.50771 -4.0506,7.95891 -3.5008,2.60761 -9.2243,5.98924 -13.8337,8.17347 -4.5835,2.17193 -4.7588,2.21761 -7.1339,1.85849 z" style="fill:#ffffff;fill-opacity:1;stroke-width:1.64895" /><path class="raizDente raizDD27" inkscape:connector-curvature="0" transform="scale(0.26458333)" id="path916" d="m 2809.5717,510.36105 c -5.3233,-0.39606 -8.5937,-0.81509 -9.4652,-1.21276 -1.7384,-0.79325 -2.2957,-4.29974 -3.0863,-19.41856 -1.5295,-29.24991 -1.0059,-43.35153 1.9495,-52.50268 1.2529,-3.87959 5.042,-11.53548 7.0869,-14.31891 3.8212,-5.2015 8.0222,-9.22897 11.4088,-10.93754 3.7473,-1.89056 4.0504,0.22352 1.1375,7.93234 -4.0212,10.64179 -5.3189,16.723 -5.3189,24.92551 0,7.47185 1.1955,13.94336 4.2779,23.15775 2.25,6.72602 4.851,11.74222 7.599,14.65527 4.5877,4.86317 5.0694,4.39402 10.2015,-9.93531 2.2522,-6.28802 5.4685,-13.91247 11.3119,-26.81494 4.4513,-9.82869 6.1399,-13.85024 10.0216,-23.86686 1.082,-2.7921 3.4407,-6.54084 4.1155,-6.54084 1.4761,0 2.6569,3.784 2.6698,8.55556 0.011,3.9756 -0.9206,10.48238 -2.1661,15.13252 -4.9031,18.30686 -6.1283,28.16795 -5.2712,42.4264 0.7637,12.70322 2.1094,21.41501 4.1156,26.64323 0.2039,0.53137 -0.7882,0.57851 -11.7475,0.55814 -10.9943,-0.0204 -14.2214,-0.1672 -19.5147,-0.8875 -1.7478,-0.23783 -2.0861,-0.15469 -4.5664,1.12194 l -2.6787,1.37879 -5.1564,0.04 c -2.836,0.022 -5.9518,-0.0192 -6.9241,-0.0915 z" style="fill:#ffffff;fill-opacity:1;stroke-width:1.64895" /><path class="raizDente raizDD27" inkscape:connector-curvature="0" transform="scale(0.26458333)" id="path918" d="m 2826.1102,479.74636 c -2.0862,-3.22488 -4.2852,-8.20562 -6.2602,-14.17937 -5.0032,-15.13307 -4.868,-27.31443 0.467,-42.06308 2.4678,-6.82209 2.8665,-8.54466 2.8665,-12.38446 0,-2.66023 0.1004,-3.08247 1.149,-4.83019 1.583,-2.6383 3.6372,-4.03051 5.9751,-4.04942 3.2315,-0.0261 3.3629,0.47391 4.3635,16.60244 0.8494,13.68993 1.7457,21.90271 3.0634,28.06777 0.3995,1.86916 0.7423,4.59172 0.7617,6.05013 0.042,3.13101 -0.3905,4.53985 -5.3158,17.32412 -4.0495,10.51088 -4.6899,12.02081 -5.0978,12.02081 -0.1745,0 -1.062,-1.15144 -1.9724,-2.55875 z" style="fill:#ffffff;fill-opacity:1;stroke-width:1.64895" /></g></g></svg>