<svg class="svgDente" xmlns:dc="http://purl.org/dc/elements/1.1/" xmlns:cc="http://creativecommons.org/ns#" xmlns:rdf="http://www.w3.org/1999/02/22-rdf-syntax-ns#" xmlns:svg="http://www.w3.org/2000/svg" xmlns="http://www.w3.org/2000/svg" xmlns:sodipodi="http://sodipodi.sourceforge.net/DTD/sodipodi-0.dtd" xmlns:inkscape="http://www.inkscape.org/namespaces/inkscape" sodipodi:docname="dd23.svg" inkscape:version="1.0 (4035a4fb49, 2020-05-01)" id="svg8" version="1.1" viewBox="0 0 19.798816 58.158612" height="58.158611mm" width="19.798815mm"><g class="dente DD23" transform="translate(-287.68363,-33.018901)" id="layer1" inkscape:groupmode="layer" inkscape:label="Camada 1"><g transform="translate(-361.66009,-72.657254)" id="g1077"><path  class="fundoDente fundoDD23" inkscape:connector-curvature="0" id="path933" d="m 653.92784,161.17034 c -1.96442,-1.15991 -3.79515,-2.44997 -4.06827,-2.86681 -0.27313,-0.41684 -0.50512,-1.4522 -0.51555,-2.30081 -0.0259,-2.10987 1.60372,-9.52368 2.66394,-12.11922 0.53314,-1.3052 1.08562,-3.81154 1.43349,-6.5031 0.71919,-5.56455 2.0109,-12.05844 3.16376,-15.90531 0.49426,-1.64923 1.14958,-3.95111 1.45627,-5.11528 0.75329,-2.8594 3.70889,-8.97531 4.83705,-10.00911 0.65796,-0.60294 1.15438,-0.77638 1.77573,-0.62043 1.14205,0.28663 1.40221,1.47589 0.79086,3.61522 -0.86138,3.01429 -0.97652,6.70436 -0.36196,11.60044 0.71144,5.66798 0.94558,15.68764 0.44912,19.21983 -0.31883,2.2684 -0.28258,2.88808 0.25796,4.40973 0.34591,0.97374 0.83251,2.08793 1.08135,2.47599 1.00154,1.56187 2.25094,5.56547 2.25094,7.21293 0,2.16238 -1.0915,3.58965 -3.67188,4.80141 -0.98789,0.46393 -2.78485,1.63184 -3.99323,2.59537 -3.4429,3.60715 -3.12388,2.2163 -7.54958,-0.49085 z" style="fill:#000000;stroke-width:0.352778" /><path class="coroaDente coroaDD23" inkscape:connector-curvature="0" transform="scale(0.26458333)" id="path894" d="m 2485.54,613.71345 c -6.6537,-2.92466 -22.0738,-12.56243 -25.5881,-15.99287 -4.1907,-4.09071 -4.1357,-9.23688 0.3167,-29.59766 2.985,-13.65072 4.7728,-19.1236 8.8617,-27.12795 4.6587,-9.11993 7.7093,-12.22215 13.7437,-13.97641 1.6117,-0.46851 2.9545,-0.56565 5.9954,-0.43367 4.3425,0.18847 7.0321,0.97614 10.7214,3.1398 2.3799,1.39574 8.172,7.06277 10.0762,9.85849 1.5263,2.24105 7.265,14.2714 10.6238,22.27144 4.5379,10.80838 6.0096,16.00921 6.0548,21.39735 0.028,3.31805 -0.044,3.69215 -1.1277,5.89434 -1.499,3.04486 -4.0082,5.33683 -8.671,7.92024 -6.3931,3.54211 -11.3325,6.74944 -17.3872,11.29016 -6.3288,4.74628 -9.1265,6.52489 -10.2609,6.52329 -0.3889,-7.1e-4 -1.9004,-0.5255 -3.3588,-1.16655 z" style="fill:#ffffff;fill-opacity:1;stroke-width:1.64895" /><path class="raizDente raizDD23" inkscape:connector-curvature="0" transform="scale(0.26458333)" id="path896" d="m 2509.5745,534.79741 c -2.186,-3.17727 -6.7235,-7.05638 -10.4227,-8.91046 -3.3278,-1.66794 -6.5202,-2.35208 -10.9601,-2.34879 -6.0172,0.004 -9.7681,1.2957 -14.6725,5.05091 -1.264,0.96779 -2.3476,1.61999 -2.4082,1.44932 -0.3658,-1.03147 3.875,-30.05286 5.621,-38.46626 3.1004,-14.94019 8.0089,-34.12901 11.6405,-45.50624 0.8069,-2.52791 1.6895,-5.74607 1.9615,-7.15147 0.7027,-3.63211 2.1186,-7.08709 6.6647,-16.26309 4.4707,-9.02383 6.9604,-13.58226 9.441,-17.28517 1.5334,-2.28903 1.8366,-2.55404 3.3616,-2.93803 1.4956,-0.3766 1.774,-0.3492 2.5844,0.25421 1.3953,1.03899 1.4164,4.21327 0.065,9.73415 -1.4638,5.97808 -1.7161,7.55709 -2.1946,13.73884 -0.7392,9.54789 -0.1342,24.3508 1.7678,43.2554 1.8149,18.03815 2.2938,29.08872 1.7962,41.44179 -0.5862,14.54924 -1.2364,20.99304 -2.423,24.01387 l -0.645,1.64206 z" style="fill:#ffffff;fill-opacity:1;stroke-width:1.64895" /></g></g></svg>