<svg class="svgDente svgDenteMolar" xmlns:dc="http://purl.org/dc/elements/1.1/" xmlns:cc="http://creativecommons.org/ns#" xmlns:rdf="http://www.w3.org/1999/02/22-rdf-syntax-ns#" xmlns:svg="http://www.w3.org/2000/svg" xmlns="http://www.w3.org/2000/svg" xmlns:sodipodi="http://sodipodi.sourceforge.net/DTD/sodipodi-0.dtd" xmlns:inkscape="http://www.inkscape.org/namespaces/inkscape" sodipodi:docname="dd26.svg" inkscape:version="1.0 (4035a4fb49, 2020-05-01)" id="svg8" version="1.1" viewBox="0 0 26.23441 47.78199" height="47.78199mm" width="26.234407mm"><g  class="dente DD26" transform="translate(-63.134091,-28.343568)" id="layer1" inkscape:groupmode="layer" inkscape:label="Camada 1"><g transform="translate(-646.73937,-74.060841)" id="g1110"><path class="fundoDente fundoDD26" inkscape:connector-curvature="0" id="path941" d="m 711.5093,135.43975 c 0.97968,-2.91546 1.05523,-3.45985 0.83644,-6.02716 -0.42453,-4.98156 -0.45824,-5.26597 -0.8152,-6.87916 -0.85519,-3.86479 -0.83755,-6.04021 0.0779,-9.60543 0.54309,-2.11506 1.28437,-4.01782 1.93197,-4.95907 1.40199,-2.03773 3.8389,-4.20205 4.57449,-4.0628 0.81207,0.15373 0.9595,2.137 0.294,3.95485 -1.07552,2.93782 -1.58246,6.79333 -1.06912,8.13109 0.2264,0.58997 3.4697,-5.70834 4.36935,-8.48504 0.71625,-2.21064 2.03401,-4.62299 2.65563,-4.86152 2.01507,-0.77326 2.98414,0.30694 2.992,3.33514 0.006,2.14713 1.17803,11.50428 1.47922,11.80547 0.31851,0.31851 2.50698,-4.06476 3.59822,-7.20683 1.26117,-3.63136 2.02846,-4.55205 2.86037,-3.43226 1.38327,1.86197 0.9401,7.61044 -0.85979,11.15239 -1.43025,2.81455 -3.11872,8.66813 -3.41269,11.83111 -0.21042,2.26407 -0.1337,2.70588 0.90184,5.19336 1.42057,3.41236 2.12016,6.0152 2.12554,7.90816 0.005,1.80808 -0.92254,3.00962 -3.88479,5.03164 -2.5503,1.74081 -3.76536,1.82324 -6.40531,0.43455 l -1.89926,-0.99907 c -3.66027,2.46919 -4.81663,2.76976 -6.19297,2.3028 -1.11726,-0.37907 -2.67757,-1.26392 -3.45476,-1.90508 -2.18439,-1.80209 -3.60626,-3.92131 -0.70308,-12.65714 z" style="fill:#000000;stroke-width:0.352778" /><path class="coroaDente coroaDD26" inkscape:connector-curvature="0" transform="scale(0.26458333)" id="path908" d="m 2704.7923,563.81354 c -4.85,-2.30826 -14.7029,-9.65018 -16.8187,-12.53238 -2.52,-3.43304 -2.8545,-4.60368 -2.8376,-9.93263 0.01,-3.23223 0.2233,-5.74307 0.6598,-7.77818 2.1481,-10.01497 8.1421,-28.0746 9.9989,-30.12634 0.5882,-0.6499 1.1218,-0.6765 11.4118,-0.5689 11.6217,0.12152 11.4585,0.13984 16.7778,-1.88299 1.9258,-0.73233 3.1417,-1.00124 3.8914,-0.86061 0.5997,0.11251 2.5212,1.33183 4.2701,2.70961 1.7488,1.37778 3.601,2.72586 4.1158,2.99575 1.839,0.96391 4.4922,1.27288 13.395,1.55987 10.4749,0.33769 10.9591,0.45519 12.6348,3.06651 4.8447,7.54993 9.8156,24.92713 9.1693,32.0544 -0.2879,3.1752 -1.8746,6.04956 -4.9408,8.95064 -3.2092,3.03638 -10.0858,7.84462 -13.9765,9.7725 -2.6386,1.30747 -3.2052,1.4577 -5.3719,1.42431 -5.0192,-0.0773 -12.2003,-3.10465 -15.9875,-6.7398 -1.6601,-1.5934 -2.2166,-3.95029 -1.9419,-8.2242 0.2364,-3.67832 0.9922,-5.68529 2.6585,-7.05872 0.6953,-0.57314 1.1809,-1.12536 1.0791,-1.22714 -0.1018,-0.1018 -1.0475,0.25178 -2.1016,0.78571 -2.8066,1.42164 -3.0619,2.14636 -3.3634,9.55092 l -0.2486,6.10524 -4.4556,2.44091 c -11.8742,6.50503 -14.348,7.2623 -18.0182,5.51552 z" style="fill:#ffffff;fill-opacity:1;stroke-width:1.64895" /><path class="raizDente raizDD26" inkscape:connector-curvature="0" transform="scale(0.26458333)" id="path910" d="m 2750.3515,504.55445 c -12.2507,-0.98954 -13.1725,-1.25884 -17.2379,-5.03546 -5.0643,-4.70461 -5.4704,-4.85977 -7.7124,-2.94693 -0.7642,0.65201 -1.8834,1.43965 -2.4872,1.75031 -1.8234,0.93826 -6.5202,1.30686 -16.6523,1.30686 h -9.6369 l -0.1749,-0.7955 c -0.096,-0.43752 -0.7462,-5.56846 -1.4444,-11.4021 -0.6982,-5.83363 -2.1534,-17.12966 -3.2338,-25.10229 -2.721,-20.07939 -2.7016,-22.35616 0.2918,-34.29467 2.0789,-8.29095 3.7033,-12.65445 5.9593,-16.00756 3.1277,-4.64864 6.4535,-8.67587 10.6728,-12.92351 4.0625,-4.08975 4.7979,-4.42816 5.3605,-2.46657 0.39,1.35986 -0.3902,6.36183 -1.6438,10.53799 -0.4669,1.55563 -1.265,4.22175 -1.7735,5.92469 -1.2702,4.25359 -1.6542,7.8181 -1.6463,15.27924 0.01,9.52851 0.5934,18.5581 1.4285,22.11501 1.2414,5.28782 5.9839,14.143 10.6936,19.96711 2.2499,2.78238 5.9372,6.50041 7.59,7.65344 2.6785,1.86852 3.3925,1.40023 7.1186,-4.66933 1.7954,-2.92454 5.7324,-7.89593 11.9739,-15.12 8.0545,-9.32233 13.5048,-17.36176 17.4767,-25.77877 0.9875,-2.09255 3.2124,-7.46391 4.9444,-11.93636 3.5972,-9.28911 5.5159,-13.389 6.3364,-13.54007 0.8019,-0.14762 1.62,1.75293 2.111,4.90442 0.6461,4.14653 0.2135,16.96232 -0.7186,21.28872 -0.9508,4.41377 -1.553,6.0231 -5.3192,14.21698 -5.0462,10.97838 -6.143,14.11398 -9.1513,26.16295 -2.822,11.30254 -2.9476,12.19799 -3.1362,22.36225 l -0.1722,9.28078 -0.9308,-0.0445 c -0.512,-0.0245 -4.5106,-0.33369 -8.8858,-0.68709 z" style="fill:#ffffff;fill-opacity:1;stroke-width:1.64895" /><path class="raizDente raizDD26" inkscape:connector-curvature="0" transform="scale(0.26458333)" id="path912" d="m 2727.9009,473.23038 c -4.4769,-4.74614 -6.8397,-7.53077 -8.6499,-10.19393 -5.044,-7.42094 -6.7252,-14.02456 -4.9308,-19.3682 1.041,-3.10008 3.9809,-9.89665 7.7124,-17.82994 4.2902,-9.12092 7.3799,-16.3098 9.3619,-21.78233 3.9015,-10.77253 7.0902,-14.64915 11.3244,-13.76731 2.6835,0.55887 2.8143,1.10193 3.9405,16.35602 0.7217,9.77581 1.5898,17.37371 3.1802,27.83527 1.5804,10.39566 1.5736,13.47955 -0.036,16.26825 -0.5738,0.99424 -3.3502,4.53405 -6.1698,7.86625 -6.3706,7.52877 -9.886,12.19867 -11.5113,15.29163 -0.6904,1.31374 -1.2863,2.37382 -1.3243,2.35574 -0.038,-0.0181 -1.3419,-1.38223 -2.8975,-3.03145 z" style="fill:#ffffff;fill-opacity:1;stroke-width:1.64895" /></g></g></svg>