<svg class="svgDente" xmlns:dc="http://purl.org/dc/elements/1.1/" xmlns:cc="http://creativecommons.org/ns#" xmlns:rdf="http://www.w3.org/1999/02/22-rdf-syntax-ns#" xmlns:svg="http://www.w3.org/2000/svg" xmlns="http://www.w3.org/2000/svg" xmlns:sodipodi="http://sodipodi.sourceforge.net/DTD/sodipodi-0.dtd" xmlns:inkscape="http://www.inkscape.org/namespaces/inkscape" sodipodi:docname="dd42.svg" inkscape:version="1.0 (4035a4fb49, 2020-05-01)" id="svg8" version="1.1" viewBox="0 0 13.436464 46.626277" height="46.626278mm" width="13.436464mm"><g class="dente DD42" transform="translate(124.29753,128.74018)" id="layer1" inkscape:groupmode="layer" inkscape:label="Camada 1"><g transform="translate(-696.10204,-308.50351)" id="g1201"><path class="fundoDente fundoDD42" inkscape:connector-curvature="0" id="path1063" d="m 577.22677,225.39189 c 0,-0.69385 -0.66404,-2.26626 -0.87586,-5.20347 -0.31428,-4.35797 -0.97931,-9.77033 -1.2554,-10.21705 -0.2316,-0.37474 -1.20138,-10.50075 -1.20225,-12.55341 -3.6e-4,-1.01472 -0.23631,-2.44347 -0.52417,-3.175 -1.39783,-3.55223 -2.01341,-9.72099 -1.20226,-12.04785 0.38764,-1.11199 1.79416,-2.12842 3.03104,-2.19041 3.70834,0.2692 6.68113,-0.66914 9.74127,0.0119 0.94315,4.54026 -0.5891,10.86743 -0.98915,14.48398 -0.26999,2.42534 -0.58478,6.99587 -0.69953,10.15671 -0.29101,8.01574 -1.28735,14.11759 -3.17787,19.46222 -0.81757,2.31131 -2.84582,3.07162 -2.84582,1.27255 z" style="fill:#000000;stroke-width:0.352778" /><path class="raizDente raizDD42" inkscape:connector-curvature="0" transform="scale(0.26458333)" id="path962" d="m 2184.3186,850.98631 c -1.4644,-2.40809 -2.3638,-8.43771 -3.5483,-23.78988 -1.1657,-15.10739 -1.9537,-21.54258 -3.8746,-31.64302 -1.5826,-8.32141 -3.3064,-22.9791 -4.2203,-35.88567 -0.9343,-13.19554 -0.9473,-13.13534 1.9379,-8.99932 4.2513,6.09458 8.8201,9.22332 13.8386,9.47675 3.0054,0.15176 4.6108,-0.18188 9.4166,-1.95697 2.7123,-1.00182 3.542,-1.18448 3.7622,-0.82822 1.1045,1.78725 0.5926,15.07637 -1.4305,37.13277 -1.6881,18.4043 -2.2518,21.96519 -5.5132,34.825 -2.9919,11.79757 -5.9045,20.08785 -7.7889,22.17011 -0.8612,0.95157 -1.8077,0.76753 -2.5795,-0.50155 z" style="fill:#ffffff;fill-opacity:1;stroke-width:1.64895" /><path class="coroaDente coroaDD42" inkscape:connector-curvature="0" transform="scale(0.26458333)" id="path964" d="m 2185.8944,756.95159 c -4.6731,-1.51086 -9.8128,-8.13286 -13.7989,-17.77842 -8.9719,-21.71047 -11.2869,-46.85224 -4.8743,-52.93719 3.1188,-2.95946 8.2467,-3.62704 33.6199,-4.37689 l 7.8666,-0.23247 v 2.02917 c 0,1.11604 -0.2383,4.51548 -0.5296,7.55431 -0.2912,3.03882 -1.1726,12.92324 -1.9586,21.96537 -2.1905,25.19921 -3.3736,34.45598 -4.9386,38.63878 -0.8122,2.17077 -2.703,4.1373 -3.9876,4.14724 -0.4307,0.003 -1.9764,0.3188 -3.4348,0.70104 -2.8145,0.73768 -6.1968,0.86043 -7.9641,0.28906 z" style="fill:#ffffff;fill-opacity:1;stroke-width:1.64895" /></g></g></svg>