<svg class="svgDente" xmlns:dc="http://purl.org/dc/elements/1.1/" xmlns:cc="http://creativecommons.org/ns#" xmlns:rdf="http://www.w3.org/1999/02/22-rdf-syntax-ns#" xmlns:svg="http://www.w3.org/2000/svg" xmlns="http://www.w3.org/2000/svg" xmlns:sodipodi="http://sodipodi.sourceforge.net/DTD/sodipodi-0.dtd" xmlns:inkscape="http://www.inkscape.org/namespaces/inkscape" sodipodi:docname="dd21.svg" inkscape:version="1.0 (4035a4fb49, 2020-05-01)" id="svg8" version="1.1" viewBox="0 0 17.888512 50.501343" height="50.501343mm" width="17.888512mm"><g class="dente DD21" transform="translate(93.120632,57.881562)" id="layer1" inkscape:groupmode="layer" inkscape:label="Camada 1"><g transform="translate(-703.67159,-171.26735)" id="g1063"><path class="fundoDente fundoDD21" inkscape:connector-curvature="0" id="path899" d="m 611.05814,163.28947 c -0.9102,-0.34928 -0.58869,-5.51326 0.91122,-16.59077 0.1839,-1.35819 0.43135,-3.42194 0.5499,-4.58611 0.11854,-1.16417 0.27755,-2.35479 0.35336,-2.64583 0.0758,-0.29104 0.23427,-1.40229 0.35213,-2.46945 1.01001,-9.14454 3.86234,-18.16102 7.1145,-22.48958 0.93941,-1.25036 2.01195,-1.48532 2.53267,-0.55485 0.19156,0.34231 0.25506,3.2788 0.15066,6.96736 -0.18321,6.47292 0.27116,10.96102 1.87763,18.54652 0.26709,1.26118 0.48838,3.52815 0.49175,5.03771 0.005,2.13167 0.20519,3.21763 0.89746,4.86237 1.29819,3.08435 2.37416,7.92303 2.1098,9.48781 -0.46263,2.73825 -2.46703,4.60099 -4.95091,4.60099 -4.21555,0.68887 -8.77438,0.49321 -12.39017,-0.16617 z" style="fill:#000000;stroke-width:0.352778" /><path class="coroaDente coroaDD21" inkscape:connector-curvature="0" transform="scale(0.26458333)" id="path886" d="m 2316.6929,615.60953 c -2.8214,-0.32166 -4.3455,-0.98304 -5.4235,-2.35351 -0.6639,-0.84402 -0.738,-1.40595 -0.7353,-5.57553 0.01,-7.77831 1.3003,-24.25422 2.8519,-36.27993 1.8575,-14.39637 5.3572,-23.8533 10.696,-28.90252 5.9403,-5.6181 13.4283,-5.50332 22.4374,0.34393 3.6219,2.3507 9.2813,8.11544 12.0559,12.28022 5.6628,8.50012 9.9167,19.68844 12.7566,33.55174 1.2514,6.10884 1.3383,9.14572 0.3701,12.9314 -1.3801,5.39617 -4.0377,9.24956 -7.65,11.09245 -2.0131,1.02699 -5.9127,2.11947 -9.15,2.56334 -3.4142,0.46813 -34.6599,0.75305 -38.2091,0.34841 z" style="fill:#ffffff;fill-opacity:1;stroke-width:1.64895" /><path class="raizDente raizDD21" inkscape:connector-curvature="0" transform="scale(0.26458333)" id="path888" d="m 2355.577,546.67631 c -5.1436,-5.00202 -9.419,-8.0681 -13.4127,-9.61886 -8.071,-3.13399 -14.742,-1.77499 -21.2146,4.32183 -1.6336,1.53872 -3.1346,2.79767 -3.3356,2.79767 -0.8949,0 -0.097,-6.9746 3.3708,-29.44947 3.7971,-24.61228 5.4621,-32.52639 9.4246,-44.79674 6.8093,-21.08599 15.9887,-38.58019 20.0006,-38.11732 1.8339,0.21158 1.8657,0.65641 1.6374,22.91453 -0.3112,30.34474 0.5902,40.65199 5.8203,66.55546 2.5361,12.56095 3.1007,18.14677 2.6051,25.77497 l -0.2676,4.11887 z" style="fill:#ffffff;fill-opacity:1;stroke-width:1.64895" /></g></g></svg>