<svg class="svgDente svgDenteMolar" xmlns:dc="http://purl.org/dc/elements/1.1/" xmlns:cc="http://creativecommons.org/ns#" xmlns:rdf="http://www.w3.org/1999/02/22-rdf-syntax-ns#" xmlns:svg="http://www.w3.org/2000/svg" xmlns="http://www.w3.org/2000/svg" xmlns:sodipodi="http://sodipodi.sourceforge.net/DTD/sodipodi-0.dtd" xmlns:inkscape="http://www.inkscape.org/namespaces/inkscape" sodipodi:docname="dd28.svg" inkscape:version="1.0 (4035a4fb49, 2020-05-01)" id="svg8" version="1.1" viewBox="0 0 21.417866 40.507793" height="40.507793mm" width="21.417864mm"><g class="dente DD28" transform="translate(-274.51091,-34.272015)" id="layer1" inkscape:groupmode="layer" inkscape:label="Camada 1"><g transform="translate(-489.62858,-78.724843)" id="g1126"><path class="fundoDente fundoDD28" inkscape:connector-curvature="0" id="path905" d="m 767.2498,152.60182 c -1.04788,-0.53033 -2.21083,-1.37536 -2.58433,-1.87785 -0.63322,-0.85192 -0.6523,-1.16166 -0.28248,-4.58611 0.21814,-2.01987 0.70303,-4.70437 1.07754,-5.96555 0.5477,-1.8444 0.74878,-1.86003 0.61124,-8.89661 -0.0385,-1.96901 -0.83935,-4.80219 0.26106,-6.802 l 1.55295,-2.82222 c 1.99156,-3.61933 3.56739,-5.533 5.97715,-7.2586 2.07222,-1.48388 3.84751,-1.81106 4.64073,-0.85529 0.24155,0.29104 0.64087,0.52917 0.8874,0.52917 0.65284,0 0.87644,0.83938 0.87695,3.29205 2.5e-4,1.1968 0.41296,3.84288 0.91712,5.88017 0.67708,2.73612 0.97783,5.10181 1.15076,9.05218 0.17745,4.05373 0.36636,5.50512 0.78059,5.99722 1.29649,1.54023 2.43791,5.39767 2.44076,8.24867 0.004,1.83904 -0.087,2.04082 -1.49733,3.40123 -1.55024,1.49535 -3.35763,2.58125 -4.29619,2.58125 -0.29638,0 -1.38313,-0.41406 -2.41501,-0.92014 l -1.87613,-0.92014 -1.35591,0.92014 c -0.74575,0.50608 -1.61157,0.93882 -1.92404,0.96164 0.009,1.64764 -3.47491,0.78914 -4.94283,0.0408 z" style="fill:#000000;stroke-width:0.352778" /><path class="coroaDente coroaDD28" inkscape:connector-curvature="0" transform="scale(0.26458333)" id="path920" d="m 2903.55,575.84379 c -5.5889,-2.67112 -9.7078,-5.62671 -12.1652,-8.72935 l -1.0748,-1.35716 1.2824,-10.34822 c 1.408,-11.36225 3.0139,-21.4298 3.9551,-24.79589 0.484,-1.7312 0.9696,-2.53325 2.4044,-3.97113 2.9572,-2.96367 6.8571,-4.09309 16.2716,-4.71229 5.7053,-0.37524 9.6628,-1.12766 13.2582,-2.5207 2.5322,-0.98108 4.6285,-0.93587 7.5473,0.16278 3.5673,1.34271 7.2595,1.99847 13.1685,2.33878 6.1697,0.35533 7.7261,0.82909 9.4888,2.88843 2.5598,2.99058 5.9261,11.6842 7.5004,19.37036 0.6984,3.40997 0.909,5.50049 0.9167,9.1 0.013,6.20244 -0.4661,7.24271 -5.5016,11.94055 -8.2074,7.65696 -11.4909,9.05513 -16.9562,7.22025 -1.2092,-0.40597 -4.3719,-1.87763 -7.0283,-3.27037 l -4.8297,-2.53224 -0.12,-6.78869 c -0.084,-4.77041 -0.2496,-6.91818 -0.556,-7.22427 -0.2399,-0.23957 -0.5581,-0.31194 -0.7072,-0.16082 -0.149,0.15113 -0.271,3.45548 -0.271,7.34301 v 7.06824 l -4.0659,2.46529 c -7.6214,4.62115 -15.421,8.09097 -18.1478,8.0734 -0.6164,-0.004 -2.5828,-0.70595 -4.3697,-1.55996 z" style="fill:#ffffff;fill-opacity:1;stroke-width:1.64895" /><path class="raizDente raizDD28" inkscape:connector-curvature="0" transform="scale(0.26458333)" id="path922" d="m 2898.389,509.26356 c -0.1391,-7.8376 -0.3962,-12.94973 -0.796,-15.82152 -1.3451,-9.66331 0.6002,-20.29948 5.6256,-30.75914 4.9149,-10.22984 11.5107,-18.51677 20.7276,-26.04212 6.2888,-5.13466 10.2065,-7.36868 12.922,-7.36868 1.2078,0 3.0307,1.23366 3.7166,2.51521 0.4154,0.7761 0.271,1.04729 -5.1922,9.7536 -7.526,11.99374 -10.6257,20.41487 -9.6968,26.34421 0.6064,3.87149 0.6818,4.11879 1.3672,4.48562 1.4069,0.75294 1.648,0.005 1.6643,-5.1649 0.018,-5.70355 0.4795,-7.77007 2.8656,-12.83145 4.0068,-8.49925 12.8657,-21.57255 13.7016,-20.21991 0.4185,0.67705 0.9117,5.27089 0.9186,8.55482 0.013,6.12419 1.3383,15.27583 3.3922,23.41944 3.4651,13.73889 4.3289,20.77638 4.5896,37.38957 0.093,5.93086 0.2297,11.99893 0.3037,13.48461 l 0.1346,2.70123 -2.8808,0.22425 c -3.3234,0.25871 -8.1407,-0.63498 -15.0102,-2.78468 -4.6561,-1.45708 -7.0409,-1.58542 -10.3723,-0.55821 -3.0501,0.94048 -6.5677,1.73972 -10.3787,2.35813 -3.4818,0.56501 -15.0046,1.89074 -16.4766,1.89569 l -0.9203,0.003 z" style="fill:#ffffff;fill-opacity:1;stroke-width:1.64895" /></g></g></svg>