<svg class="svgDente" xmlns:dc="http://purl.org/dc/elements/1.1/" xmlns:cc="http://creativecommons.org/ns#" xmlns:rdf="http://www.w3.org/1999/02/22-rdf-syntax-ns#" xmlns:svg="http://www.w3.org/2000/svg" xmlns="http://www.w3.org/2000/svg" xmlns:sodipodi="http://sodipodi.sourceforge.net/DTD/sodipodi-0.dtd" xmlns:inkscape="http://www.inkscape.org/namespaces/inkscape" sodipodi:docname="dd35.svg" inkscape:version="1.0 (4035a4fb49, 2020-05-01)" id="svg8" version="1.1" viewBox="0 0 14.220491 49.629947" height="49.629948mm" width="14.22049mm"><g class="dente DD35" transform="translate(-414.4287,-249.03966)" id="layer1" inkscape:groupmode="layer" inkscape:label="Camada 1"><g transform="translate(-273.12929,60.072323)" id="g1159"><path class="fundoDente fundoDD35" inkscape:connector-curvature="0" id="path1051" d="m 696.22519,237.97992 c -1.79543,-2.03994 -3.47512,-7.79182 -4.14654,-14.1993 -0.87863,-8.38482 -1.41388,-14.77003 -1.41523,-16.8829 -10e-4,-1.76939 -0.22819,-2.71772 -1.07601,-4.49416 -1.26956,-2.66013 -2.30013,-7.05983 -1.96574,-8.39215 0.15294,-0.60935 0.8889,-1.37328 2.07948,-2.15851 1.01352,-0.66845 2.31902,-1.61551 2.9011,-2.10457 0.53576,-2.29422 4.61437,1.09938 6.75144,2.09106 1.46701,0.6661 1.89139,1.0619 2.22614,2.0762 0.43886,1.32975 0.1279,3.98276 -0.7094,6.05253 -0.29622,0.73225 -0.40645,3.28659 -0.35774,8.29028 0.052,5.33673 -0.0775,8.06399 -0.4941,10.40694 -0.82813,4.65777 -1.5874,12.23875 -1.59173,15.89264 -0.004,3.11078 -0.29202,4.0393 -1.25437,4.0393 -0.22217,0 -0.64845,-0.27781 -0.9473,-0.61736 z" style="fill:#000000;stroke-width:0.352778" /><path class="raizDente raizDD35" inkscape:connector-curvature="0" transform="scale(0.26458333)" id="path938" d="m 2633.7374,897.45072 c -1.728,-2.18179 -5.266,-8.81328 -6.83,-12.80186 -3.1412,-8.01104 -5.7137,-19.08064 -7.5178,-32.35014 -1.5848,-11.65598 -4.3957,-39.23804 -4.9542,-48.61359 -0.9677,-16.24303 -1.3685,-25.69292 -1.13,-26.64308 0.2773,-1.10505 0.9343,-1.19672 1.7912,-0.24991 0.3405,0.3763 1.3595,1.05063 2.2645,1.49853 1.4625,0.72386 2.156,0.8144 6.2415,0.81482 4.2516,4.2e-4 4.8284,-0.0824 7.6938,-1.10422 5.0912,-1.8157 6.4737,-2.8044 11.685,-8.35675 0.7676,-0.81779 1.0898,-0.9634 1.4142,-0.63913 0.6013,0.60093 0.7727,23.77184 0.2684,36.27073 -0.5138,12.7341 -0.7379,15.03815 -2.8447,29.25088 -2.6662,17.98732 -3.5328,28.40402 -3.5519,42.69724 -0.014,10.15763 -0.5548,19.2008 -1.2269,20.50048 -0.7856,1.51926 -1.9599,1.42185 -3.3031,-0.274 z" style="fill:#ffffff;fill-opacity:1;stroke-width:1.64895" /><path class="coroaDente coroaDD35" inkscape:connector-curvature="0" transform="scale(0.26458333)" id="path940" d="m 2621.8089,776.08979 c -3.0792,-0.24005 -4.9644,-1.25802 -7.5317,-4.06705 -2.2318,-2.44196 -4.1836,-5.68136 -6.2439,-10.36278 -3.5843,-8.14433 -6.1349,-17.79433 -6.4416,-24.37111 l -0.1863,-3.99411 1.7294,-1.58104 c 2.2218,-2.03109 11.8449,-9.71267 14.9801,-11.95767 1.8961,-1.35768 2.786,-1.76377 4.1532,-1.89515 1.9869,-0.19091 3.0134,0.24138 7.4336,3.13031 3.9791,2.60059 6.6656,4.0509 11.1323,6.00972 9.2439,4.0538 10.7515,9.07107 6.9762,23.21747 -3.2342,12.11885 -9.2123,21.48089 -15.6361,24.48691 -2.5685,1.20194 -6.3049,1.70103 -10.3652,1.3845 z" style="fill:#ffffff;fill-opacity:1;stroke-width:1.64895" /></g></g></svg>