<svg class="svgDente " xmlns:dc="http://purl.org/dc/elements/1.1/" xmlns:cc="http://creativecommons.org/ns#" xmlns:rdf="http://www.w3.org/1999/02/22-rdf-syntax-ns#" xmlns:svg="http://www.w3.org/2000/svg" xmlns="http://www.w3.org/2000/svg" xmlns:sodipodi="http://sodipodi.sourceforge.net/DTD/sodipodi-0.dtd" xmlns:inkscape="http://www.inkscape.org/namespaces/inkscape" sodipodi:docname="implanteDente.svg" inkscape:version="0.92.3 (2405546, 2018-03-11)" id="svg8" version="1.1" viewBox="0 0 13.666798 32.117462" height="32.117462mm" width="13.666799mm"> <g transform="translate(206.19112,163.39853)" id="layer1" inkscape:groupmode="layer" inkscape:label="Camada 1"> <g transform="translate(-694.68435,-355.61629)" id="g1238"> <g id="g861"> <g id="g852"> <g transform="translate(-44.7019,2.565301)" id="g1215"> <g id="g843"> <path id="rect825" d="m 491.51706,203.87726 h 7.79189 v 16.68615 h -7.79189 z" style="opacity:1;fill:#ffffff;fill-opacity:1;fill-rule:nonzero;stroke:none;stroke-width:0.54597348;stroke-miterlimit:4;stroke-dasharray:none;stroke-opacity:1" transform="translate(44.701907,-2.5653007)"/> <path id="rect825-9" d="m 493.6774,-181.30554 h 5.84151 v 4.97414 h -5.84151 z" style="opacity:1;fill:#ffffff;fill-opacity:1;fill-rule:nonzero;stroke:none;stroke-width:0.25810316;stroke-miterlimit:4;stroke-dasharray:none;stroke-opacity:1" transform="matrix(0.72944154,0.68404314,-0.74410657,0.66806093,44.701907,-2.5653007)"/> <g transform="matrix(0.20725243,0,0,0.20725243,520.5805,151.61269)" id="g925" style=""> <g transform="translate(5.0926486,2.0000312)" id="g946"> <g transform="matrix(1.0003224,0,0,1.0003224,130.9804,-226.64643)" id="g961"> <path sodipodi:nodetypes="ccccccccccccccccccccccccccccc" style="stroke-width:0.2729122" inkscape:connector-curvature="0" d="m -35.34109,451.00113 h -13.990129 c 24.927546,-8.61628 -17.769819,-20.5881 -13.853522,28.97112 v 65.4235 l 20.848744,17.58014 20.848747,-17.58014 v -65.4235 c -0.284234,-12.50819 3.903204,-29.34045 -13.85384,-28.97112 z m 10.276612,28.97112 v 0.11948 l -34.543681,12.49686 v -12.61634 z m 0,40.93102 -34.543681,12.49687 V 521.7793 l 34.543681,-12.49687 z m 0,-20.40566 -34.543681,12.49687 v -11.62084 l 34.543681,-12.49686 z m -17.271834,57.78997 -17.271847,-15.50429 v -0.5981 l 34.543681,-12.49687 v 15.09436 z" id="path948"/> </g> </g> </g> <path sodipodi:nodetypes="ccccc" style="fill:#000000;stroke-width:0.35277799" d="m 534.19879,200.14451 c -0.52902,-1.45521 -0.97985,-3.25546 -1.00186,-4.00057 0.72649,-5.97428 9.70836,-9.69008 13.618,-2.41012 0.28043,1.07238 -0.74624,6.31233 -1.69358,8.64376 -4.80401,6.56663 -7.07755,5.86168 -10.92256,-2.23307 z" id="path1095" inkscape:connector-curvature="0"/> <path style="fill:#000000;stroke-width:0.35277799" d="m 543.12522,204.58643 c 1.2357,-1.40739 1.99809,-3.52763 2.67546,-7.44053 0.61079,-4.51537 -0.43623,-3.57511 -3.25004,-5.5151 l -2.17155,-1.45816 -1.32317,0.9164 c -3.30226,2.28708 -4.11932,2.93932 -4.71501,3.7638 -0.5813,0.80457 -0.59567,1.06766 -0.16376,2.99862 1.15143,5.14773 3.49247,7.88276 6.78225,7.92369 0.831,0.0103 1.37535,-0.28844 2.16582,-1.18872 z" id="path1091" inkscape:connector-curvature="0"/> <path sodipodi:nodetypes="scccccs" style="fill:#ffffff;fill-opacity:1;stroke-width:1.64894998" d="m 2039.9372,776.96216 c -7.3483,-1.77884 -13.5965,-8.33963 -17.5636,-18.44218 -1.8931,-4.82085 -3.8966,-12.67191 -4.1317,-16.19025 8.1968,-32.25944 40.8693,-26.74511 44.8273,-7.69056 1.0472,4.92709 -1.7286,20.56243 -5.2459,29.54838 -2.2506,5.74987 -6.3683,11.1176 -9.6818,12.62121 -1.8403,0.83505 -5.134,0.89664 -8.2043,0.1534 z" id="path970" transform="scale(0.26458333)" inkscape:connector-curvature="0"/> </g> </g> </g> </g> </g> </g></svg>