<svg class="svgDente svgDenteMolar" xmlns:dc="http://purl.org/dc/elements/1.1/" xmlns:cc="http://creativecommons.org/ns#" xmlns:rdf="http://www.w3.org/1999/02/22-rdf-syntax-ns#" xmlns:svg="http://www.w3.org/2000/svg" xmlns="http://www.w3.org/2000/svg" xmlns:sodipodi="http://sodipodi.sourceforge.net/DTD/sodipodi-0.dtd" xmlns:inkscape="http://www.inkscape.org/namespaces/inkscape" sodipodi:docname="dd38.svg" inkscape:version="1.0 (4035a4fb49, 2020-05-01)" id="svg8" version="1.1" viewBox="0 0 21.613785 40.464855" height="40.464855mm" width="21.613783mm"><g class="dente DD38" transform="translate(-95.02645,-118.19073)" id="layer1" inkscape:groupmode="layer" inkscape:label="Camada 1"><g transform="translate(-666.80037,-72.504352)" id="g1136"><path class="fundoDente fundoDD38" inkscape:connector-curvature="0" id="path1017" d="m 774.62313,230.83617 c -0.29104,-0.18808 -0.90154,-0.3444 -1.35668,-0.34737 -1.50601,-0.01 -2.80033,-1.11908 -3.88878,-3.3327 -3.90656,-7.94493 -6.03271,-14.45606 -6.05568,-18.54492 -0.007,-1.26118 -0.24565,-3.24556 -0.53015,-4.40973 -0.2845,-1.16416 -0.48924,-7.62484 -0.74114,-5.67831 l -0.22388,-3.56166 1.3112,-1.45134 c 0.79768,-0.88293 1.99034,-1.70468 3.04529,-2.09821 2.72179,-1.27092 3.34563,-0.79474 5.66752,0.97646 1.03657,0.77886 2.04469,1.35473 2.24029,1.2797 0.19559,-0.075 1.28265,-0.34383 2.41569,-0.59736 1.86798,-0.41799 2.17391,-0.39966 3.28095,0.19652 1.71235,0.92216 3.65531,3.66714 3.65284,5.16064 -0.004,1.87911 -0.65454,3.8288 -2.10587,6.30273 -1.02694,1.75049 -1.40096,2.83562 -1.58073,4.58611 -0.29562,2.87869 -0.39451,3.56117 -1.46235,10.09193 -0.47927,2.93118 -0.91424,6.45642 -0.9666,7.83387 -0.12285,3.23197 -1.14921,4.59708 -2.70192,3.59364 z" style="fill:#000000;stroke-width:0.352778" /><path  class="raizDente raizDD38" inkscape:connector-curvature="0" id="path924" d="m 2919.9503,867.87489 c -4.2305,-1.50899 -6.6701,-4.57101 -11.5648,-14.51551 -6.206,-12.60845 -11.5628,-25.91966 -15.1534,-37.65482 -3.6196,-11.82992 -4.9814,-18.90935 -5.2367,-27.22222 -0.213,-6.93634 0.082,-8.30235 2.0097,-9.30689 2.5073,-1.30657 11.8005,-0.20893 19.1111,2.25725 3.1807,1.073 3.659,1.13436 10.057,1.29007 4.1269,0.10044 10.0831,-0.0527 15.4446,-0.39723 11.8679,-0.76252 10.6472,-0.8937 10.4101,1.11866 -0.1089,0.92366 -0.2973,2.66323 -0.4188,3.86571 -0.1646,1.62959 -0.3422,2.13975 -0.6976,2.00339 -1.1366,-0.43618 -2.5076,7.82246 -7.7856,46.89875 -2.8378,21.00991 -3.4326,24.32805 -4.837,26.98191 -0.6355,1.20094 -1.4247,2.23381 -1.7538,2.29526 -1.7427,0.32546 -2.9698,-5.91828 -5.4065,-27.50941 -1.4717,-13.04066 -2.1909,-18.2958 -4.1095,-30.0305 -1.7159,-10.49439 -3.0836,-17.37082 -3.5731,-17.96437 -1.5171,-1.83935 -1.7698,1.91114 -0.642,9.52655 0.3832,2.58719 1.2518,8.20616 1.9303,12.4866 2.5081,15.82425 4.6226,34.01823 5.5144,47.44761 0.4134,6.22585 0.2562,8.06547 -0.7346,8.59573 -0.8014,0.42889 -0.9152,0.42149 -2.5638,-0.16654 z" style="fill:#ffffff;fill-opacity:1;stroke-width:1.64895" transform="scale(0.26458333)" /><path class="coroaDente coroaDD38" inkscape:connector-curvature="0" id="path926" d="m 2913.2372,779.25781 c -1.1257,-0.16471 -3.3258,-0.7035 -4.889,-1.19732 -4.1808,-1.3207 -8.5604,-1.93701 -15.5589,-2.18947 l -6.2313,-0.22479 -0.9313,-4.45371 c -1.532,-7.32685 -2.3848,-15.09397 -3.2452,-29.556 l -0.2313,-3.88909 3.509,-3.53553 c 5.8592,-5.90335 11.0687,-8.31751 17.9175,-8.30328 6.0777,0.0126 11.3461,2.43254 17.0807,7.84567 1.3996,1.32118 2.7516,2.40215 3.0043,2.40215 0.2527,0 1.9714,-0.49401 3.8192,-1.09781 2.3454,-0.76639 3.6264,-1.39602 4.2435,-2.08566 1.6858,-1.88414 3.6167,-2.30063 8.3584,-1.80288 3.7131,0.38978 5.6119,1.20674 8.7542,3.76647 4.4205,3.60094 8.8711,10.64295 9.2867,14.69409 0.3937,3.83749 -1.7275,11.77009 -4.8326,18.07239 -1.5712,3.18915 -5.254,9.42235 -6.1653,10.43515 -0.842,0.93574 -28.8261,1.86028 -33.8886,1.11962 z m 11.6469,-29.85629 c 0.4907,-1.27895 -1.9738,-2.52183 -2.9885,-1.50711 -0.5539,0.5539 -0.5438,1.58989 0.018,1.81646 1.0004,0.40369 2.7678,0.21966 2.9708,-0.30935 z" style="fill:#ffffff;fill-opacity:1;stroke-width:1.64895" transform="scale(0.26458333)" /><path  class="raizDente raizDD38" inkscape:connector-curvature="0" id="path928" d="m 2928.454,870.07556 c -1.677,-0.97205 -1.677,-1.33608 0,-1.33857 1.8907,-0.003 4.0241,-0.65267 4.9498,-1.50776 0.7045,-0.65086 0.7954,-0.66519 0.7954,-0.12534 0,1.26385 -1.0468,2.61343 -2.4684,3.18223 -1.7775,0.71122 -1.6751,0.71779 -3.2768,-0.21056 z" style="fill:#ffffff;fill-opacity:1;stroke-width:1.64895" transform="scale(0.26458333)" /></g></g></svg>