<svg style="transform: rotate(180deg);" class="svgDente svgDenteMolar" xmlns:dc="http://purl.org/dc/elements/1.1/" xmlns:cc="http://creativecommons.org/ns#" xmlns:rdf="http://www.w3.org/1999/02/22-rdf-syntax-ns#" xmlns:svg="http://www.w3.org/2000/svg" xmlns="http://www.w3.org/2000/svg" xmlns:sodipodi="http://sodipodi.sourceforge.net/DTD/sodipodi-0.dtd" xmlns:inkscape="http://www.inkscape.org/namespaces/inkscape" sodipodi:docname="implanteMolar.svg" inkscape:version="0.92.3 (2405546, 2018-03-11)" id="svg8" version="1.1" viewBox="0 0 22.547919 36.788547" height="36.788548mm" width="22.54792mm"> <g transform="translate(236.02141,163.17587)" id="layer1" inkscape:groupmode="layer" inkscape:label="Camada 1"> <g transform="translate(-694.68435,-355.61629)" id="g1238"> <g id="g834"> <g id="g840"> <path style="opacity:1;fill:#ffffff;fill-opacity:1;fill-rule:nonzero;stroke:#000000;stroke-width:0;stroke-miterlimit:4;stroke-dasharray:none;stroke-opacity:1" d="m 463.22339,205.95792 h 14.49937 v 18.60864 h -14.49937 z" id="rect823"/> <path inkscape:connector-curvature="0" id="path1083" d="m 460.60533,205.07785 c -1.98441,-4.21881 -2.39926,-6.69346 -1.46823,-8.75812 0.48552,-1.07671 1.05139,-1.56057 2.87904,-2.46182 2.73717,-1.34977 3.62437,-1.38358 6.09733,-0.23238 l 1.89565,0.88246 1.75677,-1.01427 c 1.21938,-1.50714 3.97498,-1.14119 5.79633,-0.4771 3.10376,1.13169 3.64864,1.77771 3.64864,4.32595 0,1.90779 -1.08411,6.95733 -1.6947,7.89352 -0.54898,0.95577 -0.28665,1.28595 -1.14016,1.68082 -1.9933,0.92221 -4.05262,0.0657 -8.18551,1.62537 -0.52576,0.19842 -3.15157,-0.63114 -6.18018,-0.42404 -1.79663,0.12286 -2.80519,-1.44859 -3.40498,-3.04039 z" style="fill:#000000;stroke-width:0.35277799" sodipodi:nodetypes="cccccccscsssc"/> <path inkscape:connector-curvature="0" id="path1079" d="m 474.55402,206.63776 c 1.5604,-0.0182 3.01617,-0.0579 3.23505,-0.0882 0.93414,-0.12923 3.15694,-8.20822 2.79265,-10.15012 -0.2433,-1.29686 -0.96107,-1.83847 -3.87348,-2.92277 l -2.09398,-0.77961 -2.13935,1.10605 c -1.17664,0.60832 -2.31902,1.33616 -2.5386,1.61742 -0.34604,0.44323 -0.42761,0.43749 -0.61199,-0.043 -0.27301,-0.71146 -2.92071,-1.918 -4.23105,-1.92806 -1.57624,-0.0121 -5.03116,1.99327 -5.53668,3.21372 -0.69168,1.66986 -0.19353,4.51079 1.37958,7.86772 0.77886,1.66206 1.54548,3.021 1.70359,3.01988 0.1581,-0.001 1.2003,-0.15156 2.31599,-0.33429 1.53129,-0.25081 2.35279,-0.21316 3.35139,0.15357 0.72757,0.2672 1.36813,0.49701 1.42347,0.51068 1.39567,-0.70882 2.57325,-1.16206 4.82341,-1.24299 z" style="fill:#000000;stroke-width:0.35277799"/> <path inkscape:connector-curvature="0" id="path1077" d="m 469.81569,200.76187 -0.67204,-0.79375 0.79375,0.67204 c 0.74593,0.63155 0.95435,0.91546 0.67204,0.91546 -0.0669,0 -0.70922,-1.35949 -0.79375,-0.79375 z" style="fill:#000000;stroke-width:0.35277799"/> <path inkscape:connector-curvature="0" id="path1075" d="m 469.40674,201.06965 c 0,-0.0733 0.27781,-0.35107 0.61736,-0.61736 0.55953,-0.43881 0.572,-0.42633 0.1332,0.13319 -0.46086,0.58764 -0.75056,0.77452 -0.75056,0.48417 z" style="fill:#000000;stroke-width:0.35277799"/> <path transform="matrix(0.85789346,0.5138276,-0.85630289,0.51647396,0,0)" style="opacity:1;fill:#ffffff;fill-opacity:1;fill-rule:nonzero;stroke:#000000;stroke-width:0;stroke-miterlimit:4;stroke-dasharray:none;stroke-opacity:1" d="m 487.90988,-59.946739 h 9.13594 v 8.298172 h -9.13594 z" id="rect825"/> <g id="g925" transform="matrix(0.38168363,0,0,0.2645792,434.68008,139.666)"> <g id="g946" transform="translate(5.0926486,2.0000312)"> <g id="g961" transform="matrix(1.0003224,0,0,1.0003224,130.9804,-226.64643)"> <path id="path948" d="m -35.34109,451.00113 h -13.990129 c 25.19214,-5.97034 -14.603325,11.07684 -13.853522,28.97112 v 65.4235 l 20.848744,17.58014 20.848747,-17.58014 v -65.4235 c -0.284234,-12.50819 3.903204,-29.34045 -13.85384,-28.97112 z m 10.276612,28.97112 v 0.11948 l -34.543681,12.49686 v -12.61634 z m 0,40.93102 -34.543681,12.49687 V 521.7793 l 34.543681,-12.49687 z m 0,-20.40566 -34.543681,12.49687 v -11.62084 l 34.543681,-12.49686 z m -17.271834,57.78997 -17.271847,-15.50429 v -0.5981 l 34.543681,-12.49687 v 15.09436 z" inkscape:connector-curvature="0" style="stroke-width:0.2729122" sodipodi:nodetypes="ccccccccccccccccccccccccccccc"/> </g> </g> </g> <path inkscape:connector-curvature="0" id="path982" d="m 468.58164,207.43097 c -1.11839,-0.41457 -2.115,-0.48958 -3.55468,-0.26756 -0.54022,0.0833 -1.29693,0.19597 -1.68161,0.25034 l -0.69937,0.0988 -0.21524,-0.26517 c -0.3148,-0.38782 -1.82605,-3.48556 -2.21199,-4.53414 -0.5705,-1.54993 -0.81759,-2.63919 -0.87324,-3.84935 -0.0888,-1.93119 0.25144,-2.63887 1.77517,-3.69222 0.776,-0.53646 2.109,-1.2227 2.87729,-1.48128 0.77497,-0.26082 1.56094,-0.21922 2.61456,0.1384 1.47196,0.4996 2.30831,1.03126 2.82337,1.79479 l 0.15267,0.22632 0.45913,-0.42946 c 0.49294,-0.46109 1.53167,-1.0939 3.39825,-2.07027 l 1.1693,-0.61163 1.7916,0.68075 c 3.71663,1.41223 4.24363,1.926 4.11819,4.01493 -0.17108,2.84937 -1.93799,8.73597 -2.70878,9.02448 -0.11417,0.0427 -1.13366,0.10058 -2.26555,0.12855 -2.47642,0.0612 -3.37021,0.20594 -4.77387,0.77308 -0.56767,0.22935 -1.09384,0.41318 -1.1693,0.4085 -0.0755,-0.005 -0.53711,-0.15674 -1.0259,-0.33791 z m 2.99342,-5.96028 c 0,-0.13697 -1.50355,-1.57536 -1.57356,-1.50536 -0.0821,0.0821 0.57447,0.80478 0.6907,0.76018 0.0722,-0.0277 0.24273,0.14155 0.41859,0.41558 0.29607,0.46141 0.46427,0.58081 0.46427,0.3296 z m -2.48089,-0.76834 c 0.23606,-0.28982 0.4079,-0.54826 0.38184,-0.57432 -0.10673,-0.10673 -1.08145,0.76265 -1.08145,0.96458 0,0.27913 0.28283,0.12135 0.69961,-0.39026 z" style="fill:#ffffff;fill-opacity:1;stroke-width:0.43628469"/> </g> </g> </g> </g></svg>